{
.appVersion = "1230";
DisplayStrings = (
"/quotesinglbase",
"/minute",
"%TY/uni20BA NK"
);
copyright = "Copyright 2019 The Tomorrow Project Authors (https://github.com/googlefonts/Tomorrow)";
customParameters = (
{
name = panose;
value = (
0,
0,
7,
0,
0,
0,
0,
0,
0,
0
);
},
{
name = unicodeRanges;
value = (
0,
1,
2,
29
);
},
{
name = codePageRanges;
value = (
1252,
1250,
1257
);
},
{
name = blueScale;
value = 0.037;
},
{
name = glyphOrder;
value = (
.notdef,
CR,
space,
A,
Aacute,
Abreve,
uni1EAE,
uni1EB6,
uni1EB0,
uni1EB2,
uni1EB4,
Acircumflex,
uni1EA4,
uni1EAC,
uni1EA6,
uni1EA8,
uni1EAA,
uni0200,
Adieresis,
uni1EA0,
Agrave,
uni1EA2,
uni0202,
Amacron,
Aogonek,
Aring,
Aringacute,
Atilde,
AE,
AEacute,
B,
C,
Cacute,
Ccaron,
Ccedilla,
Ccircumflex,
Cdotaccent,
D,
uni01C4,
Eth,
Dcaron,
Dcroat,
uni01C5,
E,
Eacute,
Ebreve,
Ecaron,
Ecircumflex,
uni1EBE,
uni1EC6,
uni1EC0,
uni1EC2,
uni1EC4,
uni0204,
Edieresis,
Edotaccent,
uni1EB8,
Egrave,
uni1EBA,
uni0206,
Emacron,
Eogonek,
uni1EBC,
F,
G,
Gbreve,
Gcaron,
Gcircumflex,
uni0122,
Gdotaccent,
H,
Hbar,
Hcircumflex,
I,
Iacute,
Ibreve,
Icircumflex,
uni0208,
Idieresis,
Idotaccent,
uni1ECA,
Igrave,
uni1EC8,
uni020A,
Imacron,
Iogonek,
Itilde,
J,
Jcircumflex,
K,
uni0136,
L,
uni01C7,
Lacute,
Lcaron,
uni013B,
Ldot,
uni01C8,
Lslash,
M,
N,
uni01CA,
Nacute,
Ncaron,
uni0145,
Eng,
uni01CB,
Ntilde,
O,
Oacute,
Obreve,
Ocircumflex,
uni1ED0,
uni1ED8,
uni1ED2,
uni1ED4,
uni1ED6,
uni020C,
Odieresis,
uni022A,
uni0230,
uni1ECC,
Ograve,
uni1ECE,
Ohorn,
uni1EDA,
uni1EE2,
uni1EDC,
uni1EDE,
uni1EE0,
Ohungarumlaut,
uni020E,
Omacron,
uni01EA,
Oslash,
Oslashacute,
Otilde,
uni022C,
OE,
P,
Thorn,
Q,
R,
Racute,
Rcaron,
uni0156,
uni0210,
uni0212,
S,
Sacute,
Scaron,
Scedilla,
Scircumflex,
uni0218,
uni1E9E,
uni018F,
T,
Tbar,
Tcaron,
uni0162,
uni021A,
U,
Uacute,
Ubreve,
Ucircumflex,
uni0214,
Udieresis,
uni1EE4,
Ugrave,
uni1EE6,
Uhorn,
uni1EE8,
uni1EF0,
uni1EEA,
uni1EEC,
uni1EEE,
Uhungarumlaut,
uni0216,
Umacron,
Uogonek,
Uring,
Utilde,
V,
W,
Wacute,
Wcircumflex,

glyphs = (
{
glyphname = .notdef;
lastChange = "2019-09-03 20:00:58 +0000";
layers = (
{
hints = (
{
horizontal = 1;
place = "{137.5, 101.25}";
type = Stem;
},
{
horizontal = 1;
place = "{347.94, 174.31}";
type = Stem;
},
{
place = "{183.62, 111}";
type = Stem;
},
{
place = "{414.37, 111}";
type = Stem;
},
{
place = "{70, 115}";
type = Stem;
},
{
place = "{525, 114.5}";
type = Stem;
}
);
layerId = "37B3F0A2-20CC-4AE3-B6A0-1D169A898E63";
paths = (
{
closed = 1;
nodes = (
"185 45.87 LINE",
"185 91.87 LINE",
"229 137.5 LINE",
"481.56 137.5 LINE",
"525 92.94 LINE",
"525 45.87 LINE",
"639.5 45.87 LINE",
"639.5 139.69 LINE",
"537.44 238.75 LINE",
"172.56 238.75 LINE",
"70 139.69 LINE",
"70 45.87 LINE"
);
},
{
closed = 1;
nodes = (
"294.62 347.94 LINE",
"294.62 522.25 LINE",
"183.62 522.25 LINE",
"183.62 347.94 LINE"
);
},
{
closed = 1;
nodes = (
"525.37 347.94 LINE",
"525.37 522.25 LINE",
"414.37 522.25 LINE",
"414.37 347.94 LINE"
);
}
);
width = 710;
}
);
note = .notdef;
},
{
glyphname = A;
lastChange = "2019-09-03 20:00:58 +0000";
layers = (
{
hints = (
{
horizontal = 1;
place = "{163.12, 127}";
type = Stem;
},
{
horizontal = 1;
place = "{607.12, 129.88}";
type = Stem;
},
{
place = "{5, 701.25}";
type = Stem;
}
);
layerId = "37B3F0A2-20CC-4AE3-B6A0-1D169A898E63";
paths = (
{
closed = 1;
nodes = (
"170.5 0 LINE",
"216.19 163.12 LINE",
"495.05 163.12 LINE",
"540.75 0 LINE",
"706.25 0 LINE",
"478.37 737 LINE",
"232.87 737 LINE",
"5 0 LINE"
);
},
{
closed = 1;
nodes = (
"340.56 607.12 LINE",
"370.69 607.12 LINE",
"459.48 290.12 LINE",
"251.76 290.12 LINE"
);
}
);
width = 711;
}
);
leftKerningGroup = A;
note = A;
rightKerningGroup = A;
unicode = 0041;
},
{
glyphname = Aacute;
lastChange = "2019-09-03 20:00:58 +0000";
layers = (
{
hints = (
{
horizontal = 1;
place = "{163.12, 127}";
type = Stem;
},
{
horizontal = 1;
place = "{607.12, 129.88}";
type = Stem;
},
{
horizontal = 1;
place = "{794.62, 155.5}";
type = Stem;
},
{
place = "{5, 701.25}";
type = Stem;
}
);
layerId = "37B3F0A2-20CC-4AE3-B6A0-1D169A898E63";
paths = (
{
closed = 1;
nodes = (
"170.5 0 LINE",
"216.19 163.12 LINE",
"495.05 163.12 LINE",
"540.75 0 LINE",
"706.25 0 LINE",
"478.37 737 LINE",
"232.87 737 LINE",
"5 0 LINE"
);
},
{
closed = 1;
nodes = (
"340.56 607.12 LINE",
"370.69 607.12 LINE",
"459.48 290.12 LINE",
"251.76 290.12 LINE"
);
},
{
closed = 1;
nodes = (
"416.31 794.62 LINE",
"560.62 950.12 LINE",
"400.31 950.12 LINE",
"297.25 794.62 LINE"
);
}
);
width = 711;
}
);
leftKerningGroup = A;
note = Aacute;
rightKerningGroup = A;
unicode = 00C1;
},
{
glyphname = Abreve;
lastChange = "2019-09-03 20:00:58 +0000";
layers = (
{
hints = (
{
horizontal = 1;
place = "{163.12, 127}";
type = Stem;
},
{
horizontal = 1;
place = "{607.12, 129.88}";
type = Stem;
},
{
horizontal = 1;
place = "{794.62, 86}";
type = Stem;
},
{
place = "{180.94, 106.18}";
type = Stem;
},
{
place = "{419, 106.19}";
type = Stem;
},
{
horizontal = 1;
place = "{868.25, 73.87}";
type = Stem;
}
);
layerId = "37B3F0A2-20CC-4AE3-B6A0-1D169A898E63";
paths = (
{
closed = 1;
nodes = (
"170.5 0 LINE",
"216.19 163.12 LINE",
"495.05 163.12 LINE",
"540.75 0 LINE",
"706.25 0 LINE",
"478.37 737 LINE",
"232.87 737 LINE",
"5 0 LINE"
);
},
{
closed = 1;
nodes = (
"340.56 607.12 LINE",
"370.69 607.12 LINE",
"459.48 290.12 LINE",
"251.76 290.12 LINE"
);
},
{
closed = 1;
nodes = (
"447.5 794.62 LINE",
"525.19 868.25 LINE",
"525.19 942.12 LINE",
"419 942.12 LINE",
"419 897.62 LINE",
"401.56 880.62 LINE",
"304.56 880.62 LINE",
"287.12 897.62 LINE",
"287.12 942.12 LINE",
"180.94 942.12 LINE",
"180.94 868.25 LINE",
"258.12 794.62 LINE"
);
}
);
width = 711;
}
);
leftKerningGroup = A;
note = Abreve;
rightKerningGroup = A;
unicode = 0102;
},
{
glyphname = uni1EAE;
lastChange = "2019-09-03 20:00:58 +0000";
layers = (
{
hints = (
{
horizontal = 1;
place = "{163.12, 127}";
type = Stem;
},
{
horizontal = 1;
place = "{607.12, 129.88}";
type = Stem;
},
{
horizontal = 1;
place = "{794.62, 86}";
type = Stem;
},
{
horizontal = 1;
place = "{973.31, 155.5}";
type = Stem;
},
{
place = "{180.94, 106.18}";
type = Stem;
},
{
place = "{419, 106.19}";
type = Stem;
},
{
horizontal = 1;
place = "{868.25, 73.87}";
type = Stem;
}
);
layerId = "37B3F0A2-20CC-4AE3-B6A0-1D169A898E63";
paths = (
{
closed = 1;
nodes = (
"170.5 0 LINE",
"216.19 163.12 LINE",
"495.05 163.12 LINE",
"540.75 0 LINE",
"706.25 0 LINE",
"478.37 737 LINE",
"232.87 737 LINE",
"5 0 LINE"
);
},
{
closed = 1;
nodes = (
"340.56 607.12 LINE",
"370.69 607.12 LINE",
"459.48 290.12 LINE",
"251.76 290.12 LINE"
);
},
{
closed = 1;
nodes = (
"447.5 794.62 LINE",
"525.19 868.25 LINE",
"525.19 942.12 LINE",
"419 942.12 LINE",
"419 897.62 LINE",
"401.56 880.62 LINE",
"304.56 880.62 LINE",
"287.12 897.62 LINE",
"287.12 942.12 LINE",
"180.94 942.12 LINE",
"180.94 868.25 LINE",
"258.12 794.62 LINE"
);
},
{
closed = 1;
nodes = (
"411.69 973.31 LINE",
"556 1128.81 LINE",
"395.69 1128.81 LINE",
"292.62 973.31 LINE"
);
}
);
width = 711;
}
);
leftKerningGroup = A;
note = uni1EAE;
rightKerningGroup = A;
unicode = 1EAE;
},
{
glyphname = uni1EB6;
lastChange = "2019-09-03 20:00:58 +0000";
layers = (
{
hints = (
{
horizontal = 1;
place = "{-189.81, 132.68}";
type = Stem;
},
{
horizontal = 1;
place = "{163.12, 127}";
type = Stem;
},
{
horizontal = 1;
place = "{607.12, 129.88}";
type = Stem;
},
{
horizontal = 1;
place = "{794.62, 86}";
type = Stem;
},
{
place = "{419, 106.19}";
type = Stem;
},
{
horizontal = 1;
place = "{868.25, 73.87}";
type = Stem;
},
{
place = "{180.94, 106.18}";
type = Stem;
},
{
place = "{276.06, 154}";
type = Stem;
}
);
layerId = "37B3F0A2-20CC-4AE3-B6A0-1D169A898E63";
paths = (
{
closed = 1;
nodes = (
"170.5 0 LINE",
"216.19 163.12 LINE",
"495.05 163.12 LINE",
"540.75 0 LINE",
"706.25 0 LINE",
"478.37 737 LINE",
"232.87 737 LINE",
"5 0 LINE"
);
},
{
closed = 1;
nodes = (
"430.06 -189.81 LINE",
"430.06 -57.13 LINE",
"276.06 -57.13 LINE",
"276.06 -189.81 LINE"
);
},
{
closed = 1;
nodes = (
"340.56 607.12 LINE",
"370.69 607.12 LINE",
"459.48 290.12 LINE",
"251.76 290.12 LINE"
);
},
{
closed = 1;
nodes = (
"447.5 794.62 LINE",
"525.19 868.25 LINE",
"525.19 942.12 LINE",
"419 942.12 LINE",
"419 897.62 LINE",
"401.56 880.62 LINE",
"304.56 880.62 LINE",
"287.12 897.62 LINE",
"287.12 942.12 LINE",
"180.94 942.12 LINE",
"180.94 868.25 LINE",
"258.12 794.62 LINE"
);
}
);
width = 711;
}
);
leftKerningGroup = A;
note = uni1EB6;
rightKerningGroup = A;
unicode = 1EB6;
},
{
glyphname = uni1EB0;
lastChange = "2019-09-03 20:00:58 +0000";
layers = (
{
hints = (
{
horizontal = 1;
place = "{163.12, 127}";
type = Stem;
},
{
horizontal = 1;
place = "{607.12, 129.88}";
type = Stem;
},
{
horizontal = 1;
place = "{794.62, 86}";
type = Stem;
},
{
horizontal = 1;
place = "{973.31, 155.5}";
type = Stem;
},
{
place = "{180.94, 106.18}";
type = Stem;
},
{
place = "{419, 106.19}";
type = Stem;
},
{
horizontal = 1;
place = "{868.25, 73.87}";
type = Stem;
}
);
layerId = "37B3F0A2-20CC-4AE3-B6A0-1D169A898E63";
paths = (
{
closed = 1;
nodes = (
"170.5 0 LINE",
"216.19 163.12 LINE",
"495.05 163.12 LINE",
"540.75 0 LINE",
"706.25 0 LINE",
"478.37 737 LINE",
"232.87 737 LINE",
"5 0 LINE"
);
},
{
closed = 1;
nodes = (
"340.56 607.12 LINE",
"370.69 607.12 LINE",
"459.48 290.12 LINE",
"251.76 290.12 LINE"
);
},
{
closed = 1;
nodes = (
"447.5 794.62 LINE",
"525.19 868.25 LINE",
"525.19 942.12 LINE",
"419 942.12 LINE",
"419 897.62 LINE",
"401.56 880.62 LINE",
"304.56 880.62 LINE",
"287.12 897.62 LINE",
"287.12 942.12 LINE",
"180.94 942.12 LINE",
"180.94 868.25 LINE",
"258.12 794.62 LINE"
);
},
{
closed = 1;
nodes = (
"407.5 973.31 LINE",
"304.44 1128.81 LINE",
"144.12 1128.81 LINE",
"288.44 973.31 LINE"
);
}
);
width = 711;
}
);
leftKerningGroup = A;
note = uni1EB0;
rightKerningGroup = A;
unicode = 1EB0;
},
{
glyphname = uni1EB2;
lastChange = "2019-09-03 20:00:58 +0000";
layers = (
{
hints = (
{
horizontal = 1;
place = "{163.12, 127}";
type = Stem;
},
{
horizontal = 1;
place = "{607.12, 129.88}";
type = Stem;
},
{
horizontal = 1;
place = "{794.62, 86}";
type = Stem;
},
{
horizontal = 1;
place = "{1100.3, 95.65}";
type = Stem;
},
{
place = "{293.27, 103.65}";
type = Stem;
},
{
place = "{419, 106.19}";
type = Stem;
},
{
horizontal = 1;
place = "{973.5, 76.3}";
type = Stem;
},
{
place = "{180.94, 106.18}";
type = Stem;
},
{
place = "{363.22, 106.5}";
type = Stem;
},
{
place = "{225.82, 102.15}";
type = Stem;
},
{
horizontal = 1;
place = "{868.25, 73.87}";
type = Stem;
}
);
layerId = "37B3F0A2-20CC-4AE3-B6A0-1D169A898E63";
paths = (
{
closed = 1;
nodes = (
"170.5 0 LINE",
"216.19 163.12 LINE",
"495.05 163.12 LINE",
"540.75 0 LINE",
"706.25 0 LINE",
"478.37 737 LINE",
"232.87 737 LINE",
"5 0 LINE"
);
},
{
closed = 1;
nodes = (
"340.56 607.12 LINE",
"370.69 607.12 LINE",
"459.48 290.12 LINE",
"251.76 290.12 LINE"
);
},
{
closed = 1;
nodes = (
"447.5 794.62 LINE",
"525.19 868.25 LINE",
"525.19 942.12 LINE",
"419 942.12 LINE",
"419 897.62 LINE",
"401.56 880.62 LINE",
"304.56 880.62 LINE",
"287.12 897.62 LINE",
"287.12 942.12 LINE",
"180.94 942.12 LINE",
"180.94 868.25 LINE",
"258.12 794.62 LINE"
);
},
{
closed = 1;
nodes = (
"396.92 973.5 LINE",
"396.92 1013.8 LINE",
"469.72 1061.75 LINE",
"469.72 1151.2 LINE",
"422.92 1195.95 LINE",
"272.62 1195.95 LINE",
"225.82 1150.65 LINE",
"225.82 1100.3 LINE",
"327.97 1100.3 LINE",
"327.97 1125.25 LINE",
"363.22 1125.25 LINE",
"363.22 1098.65 LINE",
"293.27 1049.8 LINE",
"293.27 973.5 LINE"
);
}
);
width = 711;
}
);
leftKerningGroup = A;
note = uni1EB2;
rightKerningGroup = A;
unicode = 1EB2;
},
{
glyphname = uni1EB4;
lastChange = "2019-09-03 20:00:58 +0000";
layers = (
{
hints = (
{
horizontal = 1;
place = "{163.12, 127}";
type = Stem;
},
{
horizontal = 1;
place = "{607.12, 129.88}";
type = Stem;
},
{
horizontal = 1;
place = "{794.62, 86}";
type = Stem;
},
{
horizontal = 1;
place = "{1037.75, 84.94}";
type = Stem;
},
{
place = "{148.31, 97.44}";
type = Stem;
},
{
place = "{419, 106.19}";
type = Stem;
},
{
horizontal = 1;
place = "{973.25, 86.94}";
type = Stem;
},
{
place = "{180.94, 106.18}";
type = Stem;
},
{
place = "{469.37, 97.69}";
type = Stem;
},
{
horizontal = 1;
place = "{868.25, 73.87}";
type = Stem;
}
);
layerId = "37B3F0A2-20CC-4AE3-B6A0-1D169A898E63";
paths = (
{
closed = 1;
nodes = (
"170.5 0 LINE",
"216.19 163.12 LINE",
"495.05 163.12 LINE",
"540.75 0 LINE",
"706.25 0 LINE",
"478.37 737 LINE",
"232.87 737 LINE",
"5 0 LINE"
);
},
{
closed = 1;
nodes = (
"340.56 607.12 LINE",
"370.69 607.12 LINE",
"459.48 290.12 LINE",
"251.76 290.12 LINE"
);
},
{
closed = 1;
nodes = (
"447.5 794.62 LINE",
"525.19 868.25 LINE",
"525.19 942.12 LINE",
"419 942.12 LINE",
"419 897.62 LINE",
"401.56 880.62 LINE",
"304.56 880.62 LINE",
"287.12 897.62 LINE",
"287.12 942.12 LINE",
"180.94 942.12 LINE",
"180.94 868.25 LINE",
"258.12 794.62 LINE"
);
},
{
closed = 1;
nodes = (
"499.56 973.25 LINE",
"566.56 1042.75 LINE",
"567.56 1118 LINE",
"469.37 1118 LINE",
"469.37 1091.31 LINE",
"444.81 1060.19 LINE",
"419.37 1060.19 LINE",
"361.25 1122.69 LINE",
"215.56 1122.69 LINE",
"149.06 1054.62 LINE",
"147.56 978.37 LINE",
"245.75 978.37 LINE",
"245.75 1004.06 LINE",
"270.31 1037.75 LINE",
"295.75 1037.75 LINE",
"353.87 973.25 LINE"
);
}
);
width = 711;
}
);
leftKerningGroup = A;
note = uni1EB4;
rightKerningGroup = A;
unicode = 1EB4;
},
{
glyphname = Acircumflex;
lastChange = "2019-09-03 20:00:58 +0000";
layers = (
{
hints = (
{
horizontal = 1;
place = "{163.12, 127}";
type = Stem;
},
{
horizontal = 1;
place = "{607.12, 129.88}";
type = Stem;
},
{
horizontal = 1;
place = "{794.62, 147.5}";
type = Stem;
},
{
place = "{5, 701.25}";
type = Stem;
}
);
layerId = "37B3F0A2-20CC-4AE3-B6A0-1D169A898E63";
paths = (
{
closed = 1;
nodes = (
"170.5 0 LINE",
"216.19 163.12 LINE",
"495.05 163.12 LINE",
"540.75 0 LINE",
"706.25 0 LINE",
"478.37 737 LINE",
"232.87 737 LINE",
"5 0 LINE"
);
},
{
closed = 1;
nodes = (
"340.56 607.12 LINE",
"370.69 607.12 LINE",
"459.48 290.12 LINE",
"251.76 290.12 LINE"
);
},
{
closed = 1;
nodes = (
"284 794.62 LINE",
"353.06 864.69 LINE",
"421.62 794.62 LINE",
"543.19 794.62 LINE",
"434.44 942.12 LINE",
"271.69 942.12 LINE",
"162.94 794.62 LINE"
);
}
);
width = 711;
}
);
leftKerningGroup = A;
note = Acircumflex;
rightKerningGroup = A;
unicode = 00C2;
},
{
glyphname = uni1EA4;
lastChange = "2019-09-03 20:00:58 +0000";
layers = (
{
hints = (
{
horizontal = 1;
place = "{163.12, 127}";
type = Stem;
},
{
horizontal = 1;
place = "{607.12, 129.88}";
type = Stem;
},
{
horizontal = 1;
place = "{876.74, 155.5}";
type = Stem;
},
{
place = "{5, 785.87}";
type = Stem;
},
{
horizontal = 1;
place = "{794.62, 147.5}";
type = Stem;
}
);
layerId = "37B3F0A2-20CC-4AE3-B6A0-1D169A898E63";
paths = (
{
closed = 1;
nodes = (
"170.5 0 LINE",
"216.19 163.12 LINE",
"495.05 163.12 LINE",
"540.75 0 LINE",
"706.25 0 LINE",
"478.37 737 LINE",
"232.87 737 LINE",
"5 0 LINE"
);
},
{
closed = 1;
nodes = (
"340.56 607.12 LINE",
"370.69 607.12 LINE",
"459.48 290.12 LINE",
"251.76 290.12 LINE"
);
},
{
closed = 1;
nodes = (
"284.5 794.62 LINE",
"353.06 864.69 LINE",
"422.12 794.62 LINE",
"543.19 794.62 LINE",
"434.44 942.12 LINE",
"271.69 942.12 LINE",
"162.94 794.62 LINE"
);
},
{
closed = 1;
nodes = (
"646.56 876.74 LINE",
"790.87 1032.24 LINE",
"630.56 1032.24 LINE",
"527.5 876.74 LINE"
);
}
);
width = 711;
}
);
leftKerningGroup = A;
note = uni1EA4;
rightKerningGroup = A;
unicode = 1EA4;
},
{
glyphname = uni1EAC;
lastChange = "2019-09-03 20:00:58 +0000";
layers = (
{
hints = (
{
horizontal = 1;
place = "{-189.81, 132.68}";
type = Stem;
},
{
horizontal = 1;
place = "{163.12, 127}";
type = Stem;
},
{
horizontal = 1;
place = "{607.12, 129.88}";
type = Stem;
},
{
horizontal = 1;
place = "{794.62, 147.5}";
type = Stem;
},
{
place = "{276.06, 154}";
type = Stem;
}
);
layerId = "37B3F0A2-20CC-4AE3-B6A0-1D169A898E63";
paths = (
{
closed = 1;
nodes = (
"170.5 0 LINE",
"216.19 163.12 LINE",
"495.05 163.12 LINE",
"540.75 0 LINE",
"706.25 0 LINE",
"478.37 737 LINE",
"232.87 737 LINE",
"5 0 LINE"
);
},
{
closed = 1;
nodes = (
"430.06 -189.81 LINE",
"430.06 -57.13 LINE",
"276.06 -57.13 LINE",
"276.06 -189.81 LINE"
);
},
{
closed = 1;
nodes = (
"340.56 607.12 LINE",
"370.69 607.12 LINE",
"459.48 290.12 LINE",
"251.76 290.12 LINE"
);
},
{
closed = 1;
nodes = (
"284 794.62 LINE",
"353.06 864.69 LINE",
"421.62 794.62 LINE",
"543.19 794.62 LINE",
"434.44 942.12 LINE",
"271.69 942.12 LINE",
"162.94 794.62 LINE"
);
}
);
width = 711;
}
);
leftKerningGroup = A;
note = uni1EAC;
rightKerningGroup = A;
unicode = 1EAC;
},
{
glyphname = uni1EA6;
lastChange = "2019-09-03 20:00:58 +0000";
layers = (
{
hints = (
{
horizontal = 1;
place = "{163.12, 127}";
type = Stem;
},
{
horizontal = 1;
place = "{607.12, 129.88}";
type = Stem;
},
{
horizontal = 1;
place = "{876.76, 155.5}";
type = Stem;
},
{
place = "{-84.75, 791}";
type = Stem;
},
{
horizontal = 1;
place = "{794.62, 147.5}";
type = Stem;
}
);
layerId = "37B3F0A2-20CC-4AE3-B6A0-1D169A898E63";
paths = (
{
closed = 1;
nodes = (
"170.5 0 LINE",
"216.19 163.12 LINE",
"495.05 163.12 LINE",
"540.75 0 LINE",
"706.25 0 LINE",
"478.37 737 LINE",
"232.87 737 LINE",
"5 0 LINE"
);
},
{
closed = 1;
nodes = (
"340.56 607.12 LINE",
"370.69 607.12 LINE",
"459.48 290.12 LINE",
"251.76 290.12 LINE"
);
},
{
closed = 1;
nodes = (
"178.62 876.76 LINE",
"75.56 1032.26 LINE",
"-84.75 1032.26 LINE",
"59.56 876.76 LINE"
);
},
{
closed = 1;
nodes = (
"284 794.62 LINE",
"353.06 864.69 LINE",
"421.62 794.62 LINE",
"543.19 794.62 LINE",
"434.44 942.12 LINE",
"271.69 942.12 LINE",
"162.94 794.62 LINE"
);
}
);
width = 711;
}
);
leftKerningGroup = A;
note = uni1EA6;
rightKerningGroup = A;
unicode = 1EA6;
},
{
glyphname = uni1EA8;
lastChange = "2019-09-03 20:00:58 +0000";
layers = (
{
hints = (
{
horizontal = 1;
place = "{163.12, 127}";
type = Stem;
},
{
horizontal = 1;
place = "{607.12, 129.88}";
type = Stem;
},
{
horizontal = 1;
place = "{794.62, 147.5}";
type = Stem;
},
{
horizontal = 1;
place = "{1003.89, 95.65}";
type = Stem;
},
{
place = "{511.14, 103.65}";
type = Stem;
},
{
place = "{581.09, 106.5}";
type = Stem;
},
{
place = "{443.69, 102.15}";
type = Stem;
}
);
layerId = "37B3F0A2-20CC-4AE3-B6A0-1D169A898E63";
paths = (
{
closed = 1;
nodes = (
"170.5 0 LINE",
"216.19 163.12 LINE",
"495.05 163.12 LINE",
"540.75 0 LINE",
"706.25 0 LINE",
"478.37 737 LINE",
"232.87 737 LINE",
"5 0 LINE"
);
},
{
closed = 1;
nodes = (
"340.56 607.12 LINE",
"370.69 607.12 LINE",
"459.48 290.12 LINE",
"251.76 290.12 LINE"
);
},
{
closed = 1;
nodes = (
"284 794.62 LINE",
"353.06 864.69 LINE",
"421.62 794.62 LINE",
"543.19 794.62 LINE",
"434.44 942.12 LINE",
"271.69 942.12 LINE",
"162.94 794.62 LINE"
);
},
{
closed = 1;
nodes = (
"614.79 877.09 LINE",
"614.79 917.39 LINE",
"687.59 965.34 LINE",
"687.59 1054.79 LINE",
"640.79 1099.54 LINE",
"490.49 1099.54 LINE",
"443.69 1054.24 LINE",
"443.69 1003.89 LINE",
"545.84 1003.89 LINE",
"545.84 1028.84 LINE",
"581.09 1028.84 LINE",
"581.09 1002.24 LINE",
"511.14 953.39 LINE",
"511.14 877.09 LINE"
);
}
);
width = 711;
}
);
leftKerningGroup = A;
note = uni1EA8;
rightKerningGroup = A;
unicode = 1EA8;
},
{
glyphname = uni1EAA;
lastChange = "2019-09-03 20:00:58 +0000";
layers = (
{
hints = (
{
horizontal = 1;
place = "{163.12, 127}";
type = Stem;
},
{
horizontal = 1;
place = "{607.12, 129.88}";
type = Stem;
},
{
horizontal = 1;
place = "{794.62, 147.5}";
type = Stem;
},
{
horizontal = 1;
place = "{1037.44, 84.93}";
type = Stem;
},
{
place = "{148.31, 97.44}";
type = Stem;
},
{
place = "{469.37, 97.69}";
type = Stem;
},
{
horizontal = 1;
place = "{972.94, 86.93}";
type = Stem;
}
);
layerId = "37B3F0A2-20CC-4AE3-B6A0-1D169A898E63";
paths = (
{
closed = 1;
nodes = (
"170.5 0 LINE",
"216.19 163.12 LINE",
"495.05 163.12 LINE",
"540.75 0 LINE",
"706.25 0 LINE",
"478.37 737 LINE",
"232.87 737 LINE",
"5 0 LINE"
);
},
{
closed = 1;
nodes = (
"340.56 607.12 LINE",
"370.69 607.12 LINE",
"459.48 290.12 LINE",
"251.76 290.12 LINE"
);
},
{
closed = 1;
nodes = (
"284 794.62 LINE",
"353.06 864.69 LINE",
"421.62 794.62 LINE",
"543.19 794.62 LINE",
"434.44 942.12 LINE",
"271.69 942.12 LINE",
"162.94 794.62 LINE"
);
},
{
closed = 1;
nodes = (
"499.56 972.94 LINE",
"566.56 1042.44 LINE",
"567.56 1117.69 LINE",
"469.37 1117.69 LINE",
"469.37 1091 LINE",
"444.81 1059.87 LINE",
"419.37 1059.87 LINE",
"361.25 1122.37 LINE",
"215.56 1122.37 LINE",
"149.06 1054.31 LINE",
"147.56 978.06 LINE",
"245.75 978.06 LINE",
"245.75 1003.75 LINE",
"270.31 1037.44 LINE",
"295.75 1037.44 LINE",
"353.87 972.94 LINE"
);
}
);
width = 711;
}
);
leftKerningGroup = A;
note = uni1EAA;
rightKerningGroup = A;
unicode = 1EAA;
},
{
glyphname = uni0200;
lastChange = "2019-09-03 20:00:58 +0000";
layers = (
{
hints = (
{
horizontal = 1;
place = "{163.12, 127}";
type = Stem;
},
{
horizontal = 1;
place = "{607.12, 129.88}";
type = Stem;
},
{
horizontal = 1;
place = "{794.62, 155.5}";
type = Stem;
},
{
place = "{5, 701.25}";
type = Stem;
}
);
layerId = "37B3F0A2-20CC-4AE3-B6A0-1D169A898E63";
paths = (
{
closed = 1;
nodes = (
"170.5 0 LINE",
"216.19 163.12 LINE",
"495.05 163.12 LINE",
"540.75 0 LINE",
"706.25 0 LINE",
"478.37 737 LINE",
"232.87 737 LINE",
"5 0 LINE"
);
},
{
closed = 1;
nodes = (
"340.56 607.12 LINE",
"370.69 607.12 LINE",
"459.48 290.12 LINE",
"251.76 290.12 LINE"
);
},
{
closed = 1;
nodes = (
"312.06 794.62 LINE",
"208.94 950.12 LINE",
"54.12 950.12 LINE",
"198.44 794.62 LINE"
);
},
{
closed = 1;
nodes = (
"513.87 794.62 LINE",
"410.75 950.12 LINE",
"255.94 950.12 LINE",
"400.25 794.62 LINE"
);
}
);
width = 711;
}
);
leftKerningGroup = A;
note = uni0200;
rightKerningGroup = A;
unicode = 0200;
},
{
glyphname = Adieresis;
lastChange = "2019-09-03 20:00:58 +0000";
layers = (
{
hints = (
{
horizontal = 1;
place = "{163.12, 127}";
type = Stem;
},
{
horizontal = 1;
place = "{607.12, 129.88}";
type = Stem;
},
{
horizontal = 1;
place = "{794.62, 132.75}";
type = Stem;
},
{
place = "{141.56, 148}";
type = Stem;
},
{
place = "{416.56, 148}";
type = Stem;
}
);
layerId = "37B3F0A2-20CC-4AE3-B6A0-1D169A898E63";
paths = (
{
closed = 1;
nodes = (
"170.5 0 LINE",
"216.19 163.12 LINE",
"495.05 163.12 LINE",
"540.75 0 LINE",
"706.25 0 LINE",
"478.37 737 LINE",
"232.87 737 LINE",
"5 0 LINE"
);
},
{
closed = 1;
nodes = (
"340.56 607.12 LINE",
"370.69 607.12 LINE",
"459.48 290.12 LINE",
"251.76 290.12 LINE"
);
},
{
closed = 1;
nodes = (
"289.56 794.62 LINE",
"289.56 927.37 LINE",
"141.56 927.37 LINE",
"141.56 794.62 LINE"
);
},
{
closed = 1;
nodes = (
"564.56 794.62 LINE",
"564.56 927.37 LINE",
"416.56 927.37 LINE",
"416.56 794.62 LINE"
);
}
);
width = 711;
}
);
leftKerningGroup = A;
note = Adieresis;
rightKerningGroup = A;
unicode = 00C4;
},
{
glyphname = uni1EA0;
lastChange = "2019-09-03 20:00:58 +0000";
layers = (
{
hints = (
{
horizontal = 1;
place = "{-189.81, 132.68}";
type = Stem;
},
{
horizontal = 1;
place = "{163.12, 127}";
type = Stem;
},
{
horizontal = 1;
place = "{607.12, 129.88}";
type = Stem;
},
{
place = "{276.06, 154}";
type = Stem;
}
);
layerId = "37B3F0A2-20CC-4AE3-B6A0-1D169A898E63";
paths = (
{
closed = 1;
nodes = (
"170.5 0 LINE",
"216.19 163.12 LINE",
"495.05 163.12 LINE",
"540.75 0 LINE",
"706.25 0 LINE",
"478.37 737 LINE",
"232.87 737 LINE",
"5 0 LINE"
);
},
{
closed = 1;
nodes = (
"430.06 -189.81 LINE",
"430.06 -57.13 LINE",
"276.06 -57.13 LINE",
"276.06 -189.81 LINE"
);
},
{
closed = 1;
nodes = (
"340.56 607.12 LINE",
"370.69 607.12 LINE",
"459.48 290.12 LINE",
"251.76 290.12 LINE"
);
}
);
width = 711;
}
);
leftKerningGroup = A;
note = uni1EA0;
rightKerningGroup = A;
unicode = 1EA0;
},
{
glyphname = Agrave;
lastChange = "2019-09-03 20:00:58 +0000";
layers = (
{
hints = (
{
horizontal = 1;
place = "{163.12, 127}";
type = Stem;
},
{
horizontal = 1;
place = "{607.12, 129.88}";
type = Stem;
},
{
horizontal = 1;
place = "{794.62, 155.5}";
type = Stem;
},
{
place = "{5, 701.25}";
type = Stem;
}
);
layerId = "37B3F0A2-20CC-4AE3-B6A0-1D169A898E63";
paths = (
{
closed = 1;
nodes = (
"170.5 0 LINE",
"216.19 163.12 LINE",
"495.05 163.12 LINE",
"540.75 0 LINE",
"706.25 0 LINE",
"478.37 737 LINE",
"232.87 737 LINE",
"5 0 LINE"
);
},
{
closed = 1;
nodes = (
"340.56 607.12 LINE",
"370.69 607.12 LINE",
"459.48 290.12 LINE",
"251.76 290.12 LINE"
);
},
{
closed = 1;
nodes = (
"407.56 794.62 LINE",
"304.5 950.12 LINE",
"144.19 950.12 LINE",
"288.5 794.62 LINE"
);
}
);
width = 711;
}
);
leftKerningGroup = A;
note = Agrave;
rightKerningGroup = A;
unicode = 00C0;
},
{
glyphname = uni1EA2;
lastChange = "2019-09-03 20:00:58 +0000";
layers = (
{
hints = (
{
horizontal = 1;
place = "{163.12, 127}";
type = Stem;
},
{
horizontal = 1;
place = "{607.12, 129.88}";
type = Stem;
},
{
horizontal = 1;
place = "{921.8, 95.65}";
type = Stem;
},
{
place = "{299.7, 103.65}";
type = Stem;
},
{
horizontal = 1;
place = "{795, 76.3}";
type = Stem;
},
{
place = "{369.65, 106.5}";
type = Stem;
},
{
place = "{232.25, 102.15}";
type = Stem;
}
);
layerId = "37B3F0A2-20CC-4AE3-B6A0-1D169A898E63";
paths = (
{
closed = 1;
nodes = (
"170.5 0 LINE",
"216.19 163.12 LINE",
"495.05 163.12 LINE",
"540.75 0 LINE",
"706.25 0 LINE",
"478.37 737 LINE",
"232.87 737 LINE",
"5 0 LINE"
);
},
{
closed = 1;
nodes = (
"340.56 607.12 LINE",
"370.69 607.12 LINE",
"459.48 290.12 LINE",
"251.76 290.12 LINE"
);
},
{
closed = 1;
nodes = (
"403.35 795 LINE",
"403.35 835.3 LINE",
"476.15 883.25 LINE",
"476.15 972.7 LINE",
"429.35 1017.45 LINE",
"279.05 1017.45 LINE",
"232.25 972.15 LINE",
"232.25 921.8 LINE",
"334.4 921.8 LINE",
"334.4 946.75 LINE",
"369.65 946.75 LINE",
"369.65 920.15 LINE",
"299.7 871.3 LINE",
"299.7 795 LINE"
);
}
);
width = 711;
}
);
leftKerningGroup = A;
note = uni1EA2;
rightKerningGroup = A;
unicode = 1EA2;
},
{
glyphname = uni0202;
lastChange = "2019-09-03 20:00:58 +0000";
layers = (
{
hints = (
{
horizontal = 1;
place = "{163.12, 127}";
type = Stem;
},
{
horizontal = 1;
place = "{607.12, 129.88}";
type = Stem;
},
{
horizontal = 1;
place = "{856.44, 85.56}";
type = Stem;
},
{
place = "{180.94, 106.18}";
type = Stem;
},
{
place = "{419, 106.19}";
type = Stem;
},
{
horizontal = 1;
place = "{795, 73.31}";
type = Stem;
}
);
layerId = "37B3F0A2-20CC-4AE3-B6A0-1D169A898E63";
paths = (
{
closed = 1;
nodes = (
"170.5 0 LINE",
"216.19 163.12 LINE",
"495.05 163.12 LINE",
"540.75 0 LINE",
"706.25 0 LINE",
"478.37 737 LINE",
"232.87 737 LINE",
"5 0 LINE"
);
},
{
closed = 1;
nodes = (
"340.56 607.12 LINE",
"370.69 607.12 LINE",
"459.48 290.12 LINE",
"251.76 290.12 LINE"
);
},
{
closed = 1;
nodes = (
"287.12 795 LINE",
"287.12 839.5 LINE",
"304.56 856.44 LINE",
"401.56 856.44 LINE",
"419 839.5 LINE",
"419 795 LINE",
"525.19 795 LINE",
"525.19 868.31 LINE",
"447.5 942 LINE",
"258.12 942 LINE",
"180.94 868.31 LINE",
"180.94 795 LINE"
);
}
);
width = 711;
}
);
leftKerningGroup = A;
note = uni0202;
rightKerningGroup = A;
unicode = 0202;
},
{
glyphname = Amacron;
lastChange = "2019-09-03 20:00:58 +0000";
layers = (
{
hints = (
{
horizontal = 1;
place = "{163.12, 127}";
type = Stem;
},
{
horizontal = 1;
place = "{607.12, 129.88}";
type = Stem;
},
{
horizontal = 1;
place = "{794.62, 104.07}";
type = Stem;
},
{
place = "{5, 701.25}";
type = Stem;
}
);
layerId = "37B3F0A2-20CC-4AE3-B6A0-1D169A898E63";
paths = (
{
closed = 1;
nodes = (
"170.5 0 LINE",
"216.19 163.12 LINE",
"495.05 163.12 LINE",
"540.75 0 LINE",
"706.25 0 LINE",
"478.37 737 LINE",
"232.87 737 LINE",
"5 0 LINE"
);
},
{
closed = 1;
nodes = (
"340.56 607.12 LINE",
"370.69 607.12 LINE",
"459.48 290.12 LINE",
"251.76 290.12 LINE"
);
},
{
closed = 1;
nodes = (
"564.56 794.62 LINE",
"564.56 898.69 LINE",
"141.56 898.69 LINE",
"141.56 794.62 LINE"
);
}
);
width = 711;
}
);
leftKerningGroup = A;
note = Amacron;
rightKerningGroup = A;
unicode = 0100;
},
{
glyphname = Aogonek;
lastChange = "2019-09-03 20:01:55 +0000";
layers = (
{
hints = (
{
horizontal = 1;
place = "{-175.81, 91.68}";
type = Stem;
},
{
horizontal = 1;
place = "{163.12, 127}";
type = Stem;
},
{
horizontal = 1;
place = "{607.12, 129.88}";
type = Stem;
},
{
place = "{495.62, 89.44}";
type = Stem;
}
);
layerId = "37B3F0A2-20CC-4AE3-B6A0-1D169A898E63";
paths = (
{
closed = 1;
nodes = (
"635 -175.81 LINE",
"635 -84.13 LINE",
"605.06 -84.13 LINE",
"585.06 -64.63 LINE",
"585.06 -35.75 LINE",
"629 0 LINE",
"706.25 0 LINE",
"478.37 737 LINE",
"232.87 737 LINE",
"5 0 LINE",
"170.5 0 LINE",
"216.19 163.12 LINE",
"495.05 163.12 LINE",
"540.69 0 LINE",
"495.62 -33 LINE",
"495.62 -110.88 LINE",
"564.06 -175.81 LINE"
);
},
{
closed = 1;
nodes = (
"340.56 607.12 LINE",
"370.69 607.12 LINE",
"459.48 290.12 LINE",
"251.76 290.12 LINE"
);
}
);
width = 711;
}
);
leftKerningGroup = A;
note = Aogonek;
rightKerningGroup = A;
unicode = 0104;
},
{
glyphname = Aring;
lastChange = "2019-09-03 20:00:58 +0000";
layers = (
{
hints = (
{
horizontal = 1;
place = "{163.12, 127}";
type = Stem;
},
{
horizontal = 1;
place = "{607.12, 129.88}";
type = Stem;
},
{
horizontal = 1;
place = "{794.62, 71.94}";
type = Stem;
},
{
horizontal = 1;
place = "{940.25, 72.44}";
type = Stem;
},
{
place = "{227, 89.19}";
type = Stem;
},
{
place = "{389.94, 89.18}";
type = Stem;
}
);
layerId = "37B3F0A2-20CC-4AE3-B6A0-1D169A898E63";
paths = (
{
closed = 1;
nodes = (
"170.5 0 LINE",
"216.19 163.12 LINE",
"495.05 163.12 LINE",
"540.75 0 LINE",
"706.25 0 LINE",
"478.37 737 LINE",
"232.87 737 LINE",
"5 0 LINE"
);
},
{
closed = 1;
nodes = (
"340.56 607.12 LINE",
"370.69 607.12 LINE",
"459.48 290.12 LINE",
"251.76 290.12 LINE"
);
},
{
closed = 1;
nodes = (
"409.56 794.62 LINE",
"479.12 864.12 LINE",
"479.12 943.12 LINE",
"409.56 1012.69 LINE",
"296.56 1012.69 LINE",
"227 943.12 LINE",
"227 864.12 LINE",
"296.56 794.62 LINE"
);
},
{
closed = 1;
nodes = (
"316.19 890.25 LINE",
"316.19 916.56 LINE",
"339.94 940.25 LINE",
"366.19 940.25 LINE",
"389.94 916.56 LINE",
"389.94 890.25 LINE",
"366.19 866.56 LINE",
"339.94 866.56 LINE"
);
}
);
width = 711;
}
);
leftKerningGroup = A;
note = Aring;
rightKerningGroup = A;
unicode = 00C5;
},
{
glyphname = Aringacute;
lastChange = "2019-09-03 20:00:58 +0000";
layers = (
{
hints = (
{
horizontal = 1;
place = "{163.12, 127}";
type = Stem;
},
{
horizontal = 1;
place = "{607.12, 129.88}";
type = Stem;
},
{
horizontal = 1;
place = "{794.62, 71.94}";
type = Stem;
},
{
horizontal = 1;
place = "{940.25, 72.44}";
type = Stem;
},
{
horizontal = 1;
place = "{1043.62, 155.5}";
type = Stem;
},
{
place = "{227, 89.19}";
type = Stem;
},
{
place = "{389.94, 89.18}";
type = Stem;
}
);
layerId = "37B3F0A2-20CC-4AE3-B6A0-1D169A898E63";
paths = (
{
closed = 1;
nodes = (
"170.5 0 LINE",
"216.19 163.12 LINE",
"495.05 163.12 LINE",
"540.75 0 LINE",
"706.25 0 LINE",
"478.37 737 LINE",
"232.87 737 LINE",
"5 0 LINE"
);
},
{
closed = 1;
nodes = (
"340.56 607.12 LINE",
"370.69 607.12 LINE",
"459.48 290.12 LINE",
"251.76 290.12 LINE"
);
},
{
closed = 1;
nodes = (
"409.56 794.62 LINE",
"479.12 864.12 LINE",
"479.12 943.12 LINE",
"409.56 1012.69 LINE",
"296.56 1012.69 LINE",
"227 943.12 LINE",
"227 864.12 LINE",
"296.56 794.62 LINE"
);
},
{
closed = 1;
nodes = (
"316.19 890.25 LINE",
"316.19 916.56 LINE",
"339.94 940.25 LINE",
"366.19 940.25 LINE",
"389.94 916.56 LINE",
"389.94 890.25 LINE",
"366.19 866.56 LINE",
"339.94 866.56 LINE"
);
},
{
closed = 1;
nodes = (
"413.19 1043.62 LINE",
"557.5 1199.12 LINE",
"397.19 1199.12 LINE",
"294.12 1043.62 LINE"
);
}
);
width = 711;
}
);
leftKerningGroup = A;
note = Aringacute;
rightKerningGroup = A;
unicode = 01FA;
},
{
glyphname = Atilde;
lastChange = "2019-09-03 20:00:58 +0000";
layers = (
{
hints = (
{
horizontal = 1;
place = "{163.12, 127}";
type = Stem;
},
{
horizontal = 1;
place = "{607.12, 129.88}";
type = Stem;
},
{
horizontal = 1;
place = "{859.12, 84.94}";
type = Stem;
},
{
place = "{147.19, 97.43}";
type = Stem;
},
{
place = "{468.25, 97.69}";
type = Stem;
},
{
horizontal = 1;
place = "{794.62, 86.94}";
type = Stem;
}
);
layerId = "37B3F0A2-20CC-4AE3-B6A0-1D169A898E63";
paths = (
{
closed = 1;
nodes = (
"170.5 0 LINE",
"216.19 163.12 LINE",
"495.05 163.12 LINE",
"540.75 0 LINE",
"706.25 0 LINE",
"478.37 737 LINE",
"232.87 737 LINE",
"5 0 LINE"
);
},
{
closed = 1;
nodes = (
"340.56 607.12 LINE",
"370.69 607.12 LINE",
"459.48 290.12 LINE",
"251.76 290.12 LINE"
);
},
{
closed = 1;
nodes = (
"498.44 794.62 LINE",
"565.44 864.12 LINE",
"566.44 939.37 LINE",
"468.25 939.37 LINE",
"468.25 912.69 LINE",
"443.69 881.56 LINE",
"418.25 881.56 LINE",
"360.12 944.06 LINE",
"214.44 944.06 LINE",
"147.94 876 LINE",
"146.44 799.75 LINE",
"244.62 799.75 LINE",
"244.62 825.44 LINE",
"269.19 859.12 LINE",
"294.62 859.12 LINE",
"352.75 794.62 LINE"
);
}
);
width = 711;
}
);
leftKerningGroup = A;
note = Atilde;
rightKerningGroup = A;
unicode = 00C3;
},
{
glyphname = AE;
lastChange = "2019-09-28 19:37:45 +0000";
layers = (
{
background = {
paths = (
{
closed = 1;
nodes = (
"171 0 LINE",
"216 163 LINE",
"495 163 LINE",
"541 0 LINE",
"981 0 LINE",
"981 139 LINE",
"663 139 LINE",
"609 315 LINE",
"946 315 LINE",
"946 449 LINE",
"568 449 LINE",
"521 598 LINE",
"981 598 LINE",
"981 737 LINE",
"233 737 LINE",
"5 0 LINE"
);
},
{
closed = 1;
nodes = (
"341 607 LINE",
"371 607 LINE",
"459 290 LINE",
"252 290 LINE"
);
}
);
};
hints = (
{
horizontal = 1;
place = "{0, 138.69}";
type = Stem;
},
{
horizontal = 1;
place = "{315.44, 133.18}";
type = Stem;
},
{
horizontal = 1;
place = "{598.31, 138.69}";
type = Stem;
},
{
place = "{5, 976.37}";
type = Stem;
},
{
horizontal = 1;
place = "{163.12, 127}";
type = Stem;
}
);
layerId = "37B3F0A2-20CC-4AE3-B6A0-1D169A898E63";
paths = (
{
closed = 1;
nodes = (
"171 0 LINE",
"216 163 LINE",
"495 163 LINE",
"541 0 LINE",
"981 0 LINE",
"981 133 LINE",
"665 133 LINE",
"608 318 LINE",
"946 318 LINE",
"946 446 LINE",
"568 446 LINE",
"519 604 LINE",
"981 604 LINE",
"981 737 LINE",
"233 737 LINE",
"5 0 LINE"
);
},
{
closed = 1;
nodes = (
"341 607 LINE",
"371 607 LINE",
"459 290 LINE",
"252 290 LINE"
);
},
{
closed = 1;
nodes = (
"471 604 LINE",
"474 589 LINE",
"469 604 LINE"
);
}
);
width = 1031;
}
);
leftKerningGroup = A;
note = AE;
rightKerningGroup = AE;
unicode = 00C6;
},
{
glyphname = AEacute;
lastChange = "2019-09-28 19:37:58 +0000";
layers = (
{
hints = (
{
horizontal = 1;
place = "{0, 138.69}";
type = Stem;
},
{
horizontal = 1;
place = "{315.44, 133.18}";
type = Stem;
},
{
horizontal = 1;
place = "{598.31, 138.69}";
type = Stem;
},
{
horizontal = 1;
place = "{794.62, 155.5}";
type = Stem;
},
{
place = "{5, 976.37}";
type = Stem;
},
{
horizontal = 1;
place = "{163.12, 127}";
type = Stem;
}
);
layerId = "37B3F0A2-20CC-4AE3-B6A0-1D169A898E63";
paths = (
{
closed = 1;
nodes = (
"340.56 607.12 LINE",
"370.69 607.12 LINE",
"459.48 290.12 LINE",
"251.76 290.12 LINE"
);
},
{
closed = 1;
nodes = (
"416.31 794.62 LINE",
"560.62 950.12 LINE",
"400.31 950.12 LINE",
"297.25 794.62 LINE"
);
},
{
closed = 1;
nodes = (
"171 0 LINE",
"216 163 LINE",
"495 163 LINE",
"541 0 LINE",
"981 0 LINE",
"981 133 LINE",
"665 133 LINE",
"608 318 LINE",
"946 318 LINE",
"946 446 LINE",
"568 446 LINE",
"519 604 LINE",
"981 604 LINE",
"981 737 LINE",
"233 737 LINE",
"5 0 LINE"
);
}
);
width = 1031;
}
);
leftKerningGroup = A;
note = AEacute;
rightKerningGroup = AE;
unicode = 01FC;
},
{
glyphname = B;
lastChange = "2019-09-03 20:00:58 +0000";
layers = (
{
hints = (
{
horizontal = 1;
place = "{0, 126.08}";
type = Stem;
},
{
horizontal = 1;
place = "{326.14, 119.92}";
type = Stem;
},
{
horizontal = 1;
place = "{611.08, 125.92}";
type = Stem;
},
{
place = "{75, 156.2}";
type = Stem;
},
{
place = "{491.6, 152.25}";
type = Stem;
},
{
place = "{518.75, 156.1}";
type = Stem;
}
);
layerId = "37B3F0A2-20CC-4AE3-B6A0-1D169A898E63";
paths = (
{
closed = 1;
nodes = (
"563.85 0 LINE",
"674.85 111.06 LINE",
"674.85 321.5 LINE",
"595.22 398.62 LINE",
"643.85 451.12 LINE",
"643.85 625.94 LINE",
"532.85 737 LINE",
"75 737 LINE",
"75 0 LINE"
);
},
{
closed = 1;
nodes = (
"231.2 326.08 LINE",
"479.16 326.19 LINE",
"518.72 286.56 LINE",
"518.79 165.5 LINE",
"479.16 126.12 LINE",
"231.2 126.03 LINE"
);
},
{
closed = 1;
nodes = (
"231.2 611.03 LINE",
"452.16 611.12 LINE",
"491.54 571.5 LINE",
"491.66 488.25 LINE",
"452.47 446.06 LINE",
"231.2 446.06 LINE"
);
}
);
width = 727;
}
);
leftKerningGroup = B;
note = B;
rightKerningGroup = B;
unicode = 0042;
},
{
glyphname = C;
lastChange = "2019-09-03 20:00:58 +0000";
layers = (
{
hints = (
{
horizontal = 1;
place = "{0, 125.94}";
type = Stem;
},
{
horizontal = 1;
place = "{610.94, 126.06}";
type = Stem;
},
{
place = "{55, 156.18}";
type = Stem;
}
);
layerId = "37B3F0A2-20CC-4AE3-B6A0-1D169A898E63";
paths = (
{
closed = 1;
nodes = (
"537.25 0 LINE",
"643.37 106.12 LINE",
"544.25 200.75 LINE",
"467.94 126 LINE",
"250.69 125.87 LINE",
"211.31 165.5 LINE",
"211.06 571.5 LINE",
"250.69 610.87 LINE",
"460.06 611 LINE",
"536.87 536.25 LINE",
"635.94 630.87 LINE",
"529.37 737 LINE",
"166.06 737 LINE",
"55 625.94 LINE",
"55 111.06 LINE",
"166.06 0 LINE"
);
}
);
width = 673;
}
);
leftKerningGroup = C;
note = C;
rightKerningGroup = C;
unicode = 0043;
},
{
glyphname = Cacute;
lastChange = "2019-09-03 20:00:58 +0000";
layers = (
{
hints = (
{
horizontal = 1;
place = "{0, 125.94}";
type = Stem;
},
{
horizontal = 1;
place = "{610.94, 126.06}";
type = Stem;
},
{
horizontal = 1;
place = "{794.62, 155.5}";
type = Stem;
},
{
place = "{55, 156.18}";
type = Stem;
}
);
layerId = "37B3F0A2-20CC-4AE3-B6A0-1D169A898E63";
paths = (
{
closed = 1;
nodes = (
"537.25 0 LINE",
"643.37 106.12 LINE",
"544.25 200.75 LINE",
"467.94 126 LINE",
"250.69 125.87 LINE",
"211.31 165.5 LINE",
"211.06 571.5 LINE",
"250.69 610.87 LINE",
"460.06 611 LINE",
"536.87 536.25 LINE",
"635.94 630.87 LINE",
"529.37 737 LINE",
"166.06 737 LINE",
"55 625.94 LINE",
"55 111.06 LINE",
"166.06 0 LINE"
);
},
{
closed = 1;
nodes = (
"410.85 794.62 LINE",
"555.16 950.12 LINE",
"394.85 950.12 LINE",
"291.79 794.62 LINE"
);
}
);
width = 673;
}
);
leftKerningGroup = C;
note = Cacute;
rightKerningGroup = C;
unicode = 0106;
},
{
glyphname = Ccaron;
lastChange = "2019-09-03 20:00:58 +0000";
layers = (
{
hints = (
{
horizontal = 1;
place = "{0, 125.94}";
type = Stem;
},
{
horizontal = 1;
place = "{610.94, 126.06}";
type = Stem;
},
{
horizontal = 1;
place = "{794.62, 147.5}";
type = Stem;
},
{
place = "{55, 156.18}";
type = Stem;
}
);
layerId = "37B3F0A2-20CC-4AE3-B6A0-1D169A898E63";
paths = (
{
closed = 1;
nodes = (
"537.25 0 LINE",
"643.37 106.12 LINE",
"544.25 200.75 LINE",
"467.94 126 LINE",
"250.69 125.87 LINE",
"211.31 165.5 LINE",
"211.06 571.5 LINE",
"250.69 610.87 LINE",
"460.06 611 LINE",
"536.87 536.25 LINE",
"635.94 630.87 LINE",
"529.37 737 LINE",
"166.06 737 LINE",
"55 625.94 LINE",
"55 111.06 LINE",
"166.06 0 LINE"
);
},
{
closed = 1;
nodes = (
"428.97 794.62 LINE",
"537.72 942.12 LINE",
"416.16 942.12 LINE",
"347.6 872.06 LINE",
"278.54 942.12 LINE",
"157.47 942.12 LINE",
"266.22 794.62 LINE"
);
}
);
width = 673;
}
);
leftKerningGroup = C;
note = Ccaron;
rightKerningGroup = C;
unicode = 010C;
},
{
glyphname = Ccedilla;
lastChange = "2019-09-03 20:00:58 +0000";
layers = (
{
hints = (
{
horizontal = 1;
place = "{0, 125.94}";
type = Stem;
},
{
horizontal = 1;
place = "{610.94, 126.06}";
type = Stem;
},
{
place = "{55, 156.18}";
type = Stem;
}
);
layerId = "37B3F0A2-20CC-4AE3-B6A0-1D169A898E63";
paths = (
{
closed = 1;
nodes = (
"374.25 -125.19 LINE",
"418.5 0 LINE",
"537.25 0 LINE",
"643.37 106.12 LINE",
"544.25 200.75 LINE",
"467.94 126 LINE",
"250.69 125.87 LINE",
"211.31 165.5 LINE",
"211.06 571.5 LINE",
"250.69 610.87 LINE",
"460.06 611 LINE",
"536.87 536.25 LINE",
"635.94 630.87 LINE",
"529.37 737 LINE",
"166.06 737 LINE",
"55 625.94 LINE",
"55 111.06 LINE",
"166.06 0 LINE",
"291.31 0 LINE",
"271.37 -125.19 LINE"
);
}
);
width = 673;
}
);
leftKerningGroup = C;
note = Ccedilla;
rightKerningGroup = C;
unicode = 00C7;
},
{
glyphname = Ccircumflex;
lastChange = "2019-09-03 20:00:58 +0000";
layers = (
{
hints = (
{
horizontal = 1;
place = "{0, 125.94}";
type = Stem;
},
{
horizontal = 1;
place = "{610.94, 126.06}";
type = Stem;
},
{
horizontal = 1;
place = "{794.62, 147.5}";
type = Stem;
},
{
place = "{55, 156.18}";
type = Stem;
}
);
layerId = "37B3F0A2-20CC-4AE3-B6A0-1D169A898E63";
paths = (
{
closed = 1;
nodes = (
"537.25 0 LINE",
"643.37 106.12 LINE",
"544.25 200.75 LINE",
"467.94 126 LINE",
"250.69 125.87 LINE",
"211.31 165.5 LINE",
"211.06 571.5 LINE",
"250.69 610.87 LINE",
"460.06 611 LINE",
"536.87 536.25 LINE",
"635.94 630.87 LINE",
"529.37 737 LINE",
"166.06 737 LINE",
"55 625.94 LINE",
"55 111.06 LINE",
"166.06 0 LINE"
);
},
{
closed = 1;
nodes = (
"278.54 794.62 LINE",
"347.6 864.69 LINE",
"416.16 794.62 LINE",
"537.72 794.62 LINE",
"428.97 942.12 LINE",
"266.22 942.12 LINE",
"157.47 794.62 LINE"
);
}
);
width = 673;
}
);
leftKerningGroup = C;
note = Ccircumflex;
rightKerningGroup = C;
unicode = 0108;
},
{
glyphname = Cdotaccent;
lastChange = "2019-09-03 20:00:58 +0000";
layers = (
{
hints = (
{
horizontal = 1;
place = "{0, 125.94}";
type = Stem;
},
{
horizontal = 1;
place = "{610.94, 126.06}";
type = Stem;
},
{
horizontal = 1;
place = "{794.62, 132.69}";
type = Stem;
},
{
place = "{55, 156.18}";
type = Stem;
},
{
place = "{270.6, 154}";
type = Stem;
}
);
layerId = "37B3F0A2-20CC-4AE3-B6A0-1D169A898E63";
paths = (
{
closed = 1;
nodes = (
"537.25 0 LINE",
"643.37 106.12 LINE",
"544.25 200.75 LINE",
"467.94 126 LINE",
"250.69 125.87 LINE",
"211.31 165.5 LINE",
"211.06 571.5 LINE",
"250.69 610.87 LINE",
"460.06 611 LINE",
"536.87 536.25 LINE",
"635.94 630.87 LINE",
"529.37 737 LINE",
"166.06 737 LINE",
"55 625.94 LINE",
"55 111.06 LINE",
"166.06 0 LINE"
);
},
{
closed = 1;
nodes = (
"424.6 794.62 LINE",
"424.6 927.31 LINE",
"270.6 927.31 LINE",
"270.6 794.62 LINE"
);
}
);
width = 673;
}
);
leftKerningGroup = C;
note = Cdotaccent;
rightKerningGroup = C;
unicode = 010A;
},
{
glyphname = D;
lastChange = "2019-09-03 20:00:58 +0000";
layers = (
{
hints = (
{
horizontal = 1;
place = "{0, 126}";
type = Stem;
},
{
horizontal = 1;
place = "{611, 126}";
type = Stem;
},
{
place = "{75, 156.2}";
type = Stem;
},
{
place = "{528.79, 153.18}";
type = Stem;
}
);
layerId = "37B3F0A2-20CC-4AE3-B6A0-1D169A898E63";
paths = (
{
closed = 1;
nodes = (
"527.91 0 LINE",
"681.97 154.06 LINE",
"681.97 582.94 LINE",
"527.91 737 LINE",
"75 737 LINE",
"75 0 LINE"
);
},
{
closed = 1;
nodes = (
"231.2 611 LINE",
"458.29 611 LINE",
"528.79 540.5 LINE",
"528.79 196.5 LINE",
"458.29 126 LINE",
"231.2 126 LINE"
);
}
);
width = 732;
}
);
leftKerningGroup = B;
note = D;
rightKerningGroup = D;
unicode = 0044;
},
{
glyphname = uni01C4;
lastChange = "2019-09-03 20:00:58 +0000";
layers = (
{
hints = (
{
horizontal = 1;
place = "{0, 133.19}";
type = Stem;
},
{
horizontal = 1;
place = "{603.81, 133.19}";
type = Stem;
},
{
horizontal = 1;
place = "{794.62, 147.5}";
type = Stem;
},
{
place = "{75, 156.2}";
type = Stem;
},
{
place = "{528.79, 153.18}";
type = Stem;
},
{
horizontal = 1;
place = "{0, 126}";
type = Stem;
},
{
horizontal = 1;
place = "{611, 126}";
type = Stem;
},
{
place = "{779.31, 209.13}";
type = Stem;
}
);
layerId = "37B3F0A2-20CC-4AE3-B6A0-1D169A898E63";
paths = (
{
closed = 1;
nodes = (
"527.91 0 LINE",
"681.97 154.06 LINE",
"681.97 582.94 LINE",
"527.91 737 LINE",
"75 737 LINE",
"75 0 LINE"
);
},
{
closed = 1;
nodes = (
"231.2 611 LINE",
"458.29 611 LINE",
"528.79 540.5 LINE",
"528.79 196.5 LINE",
"458.29 126 LINE",
"231.2 126 LINE"
);
},
{
closed = 1;
nodes = (
"1343.31 0 LINE",
"1343.31 133.19 LINE",
"988.44 133.19 LINE",
"988.44 162.81 LINE",
"1343.31 601.31 LINE",
"1343.31 737 LINE",
"802.31 737 LINE",
"802.31 603.81 LINE",
"1135.81 603.81 LINE",
"1135.81 574.19 LINE",
"779.31 135.69 LINE",
"779.31 0 LINE"
);
},
{
closed = 1;
nodes = (
"1161.44 794.62 LINE",
"1270.19 942.12 LINE",
"1148.62 942.12 LINE",
"1080.06 872.06 LINE",
"1011 942.12 LINE",
"889.94 942.12 LINE",
"998.69 794.62 LINE"
);
}
);
width = 1396;
}
);
leftKerningGroup = B;
note = uni01C4;
rightKerningGroup = uni01C4;
unicode = 01C4;
},
{
glyphname = Eth;
lastChange = "2019-09-03 20:00:58 +0000";
layers = (
{
hints = (
{
horizontal = 1;
place = "{0, 126}";
type = Stem;
},
{
horizontal = 1;
place = "{320.25, 108.5}";
type = Stem;
},
{
horizontal = 1;
place = "{611, 126}";
type = Stem;
},
{
place = "{75, 156.2}";
type = Stem;
},
{
place = "{528.79, 153.18}";
type = Stem;
}
);
layerId = "37B3F0A2-20CC-4AE3-B6A0-1D169A898E63";
paths = (
{
closed = 1;
nodes = (
"527.91 0 LINE",
"681.97 154.06 LINE",
"681.97 582.94 LINE",
"527.91 737 LINE",
"75 737 LINE",
"75 428.75 LINE",
"4.54 428.75 LINE",
"4.54 320.25 LINE",
"75 320.25 LINE",
"75 0 LINE"
);
},
{
closed = 1;
nodes = (
"231.2 320.25 LINE",
"342.29 320.25 LINE",
"342.29 428.75 LINE",
"231.2 428.75 LINE",
"231.2 611 LINE",
"458.29 611 LINE",
"528.79 540.5 LINE",
"528.79 196.5 LINE",
"458.29 126 LINE",
"231.2 126 LINE"
);
}
);
width = 732;
}
);
leftKerningGroup = B;
note = Eth;
rightKerningGroup = D;
unicode = 00D0;
},
{
glyphname = Dcaron;
lastChange = "2019-09-03 20:00:58 +0000";
layers = (
{
hints = (
{
horizontal = 1;
place = "{0, 126}";
type = Stem;
},
{
horizontal = 1;
place = "{611, 126}";
type = Stem;
},
{
horizontal = 1;
place = "{794.62, 147.5}";
type = Stem;
},
{
place = "{75, 156.2}";
type = Stem;
},
{
place = "{528.79, 153.18}";
type = Stem;
}
);
layerId = "37B3F0A2-20CC-4AE3-B6A0-1D169A898E63";
paths = (
{
closed = 1;
nodes = (
"527.91 0 LINE",
"681.97 154.06 LINE",
"681.97 582.94 LINE",
"527.91 737 LINE",
"75 737 LINE",
"75 0 LINE"
);
},
{
closed = 1;
nodes = (
"231.2 611 LINE",
"458.29 611 LINE",
"528.79 540.5 LINE",
"528.79 196.5 LINE",
"458.29 126 LINE",
"231.2 126 LINE"
);
},
{
closed = 1;
nodes = (
"423.47 794.62 LINE",
"532.22 942.12 LINE",
"410.66 942.12 LINE",
"342.1 872.06 LINE",
"273.04 942.12 LINE",
"151.97 942.12 LINE",
"260.72 794.62 LINE"
);
}
);
width = 732;
}
);
leftKerningGroup = B;
note = Dcaron;
rightKerningGroup = D;
unicode = 010E;
},
{
glyphname = Dcroat;
lastChange = "2019-09-03 20:00:58 +0000";
layers = (
{
hints = (
{
horizontal = 1;
place = "{0, 126}";
type = Stem;
},
{
horizontal = 1;
place = "{320.25, 108.5}";
type = Stem;
},
{
horizontal = 1;
place = "{611, 126}";
type = Stem;
},
{
place = "{75, 156.2}";
type = Stem;
},
{
place = "{528.79, 153.18}";
type = Stem;
}
);
layerId = "37B3F0A2-20CC-4AE3-B6A0-1D169A898E63";
paths = (
{
closed = 1;
nodes = (
"527.91 0 LINE",
"681.97 154.06 LINE",
"681.97 582.94 LINE",
"527.91 737 LINE",
"75 737 LINE",
"75 428.75 LINE",
"4.54 428.75 LINE",
"4.54 320.25 LINE",
"75 320.25 LINE",
"75 0 LINE"
);
},
{
closed = 1;
nodes = (
"231.2 320.25 LINE",
"342.29 320.25 LINE",
"342.29 428.75 LINE",
"231.2 428.75 LINE",
"231.2 611 LINE",
"458.29 611 LINE",
"528.79 540.5 LINE",
"528.79 196.5 LINE",
"458.29 126 LINE",
"231.2 126 LINE"
);
}
);
width = 732;
}
);
leftKerningGroup = B;
note = Dcroat;
rightKerningGroup = D;
unicode = 0110;
},
{
glyphname = uni01C5;
lastChange = "2019-09-03 20:00:58 +0000";
layers = (
{
hints = (
{
horizontal = 1;
place = "{0, 113.5}";
type = Stem;
},
{
horizontal = 1;
place = "{409.25, 113}";
type = Stem;
},
{
horizontal = 1;
place = "{611, 126}";
type = Stem;
},
{
place = "{75, 156.2}";
type = Stem;
},
{
place = "{528.79, 153.18}";
type = Stem;
},
{
horizontal = 1;
place = "{0, 126}";
type = Stem;
},
{
horizontal = 1;
place = "{579.87, 147.5}";
type = Stem;
}
);
layerId = "37B3F0A2-20CC-4AE3-B6A0-1D169A898E63";
paths = (
{
closed = 1;
nodes = (
"527.91 0 LINE",
"681.97 154.06 LINE",
"681.97 582.94 LINE",
"527.91 737 LINE",
"75 737 LINE",
"75 0 LINE"
);
},
{
closed = 1;
nodes = (
"231.2 611 LINE",
"458.29 611 LINE",
"528.79 540.5 LINE",
"528.79 196.5 LINE",
"458.29 126 LINE",
"231.2 126 LINE"
);
},
{
closed = 1;
nodes = (
"1278.87 0 LINE",
"1278.87 113.5 LINE",
"998.97 113.5 LINE",
"1271.56 403.19 LINE",
"1271.56 522.25 LINE",
"819.56 522.25 LINE",
"819.56 409.25 LINE",
"1070.97 409.25 LINE",
"797.62 117.56 LINE",
"797.62 0 LINE"
);
},
{
closed = 1;
nodes = (
"1121.37 579.87 LINE",
"1230.12 727.37 LINE",
"1108.56 727.37 LINE",
"1040 657.31 LINE",
"970.94 727.37 LINE",
"849.87 727.37 LINE",
"958.62 579.87 LINE"
);
}
);
width = 1344;
}
);
leftKerningGroup = B;
note = uni01C5;
unicode = 01C5;
},
{
glyphname = E;
lastChange = "2019-09-03 20:00:58 +0000";
layers = (
{
hints = (
{
horizontal = 1;
place = "{0, 133.19}";
type = Stem;
},
{
horizontal = 1;
place = "{318.44, 127.68}";
type = Stem;
},
{
horizontal = 1;
place = "{603.81, 133.19}";
type = Stem;
},
{
place = "{75, 156.2}";
type = Stem;
}
);
layerId = "37B3F0A2-20CC-4AE3-B6A0-1D169A898E63";
paths = (
{
closed = 1;
nodes = (
"606.97 0 LINE",
"606.97 133.19 LINE",
"231.2 133.19 LINE",
"231.2 318.44 LINE",
"571.97 318.44 LINE",
"571.97 446.12 LINE",
"231.2 446.12 LINE",
"231.2 603.81 LINE",
"606.97 603.81 LINE",
"606.97 737 LINE",
"75 737 LINE",
"75 0 LINE"
);
}
);
width = 657;
}
);
leftKerningGroup = B;
note = E;
rightKerningGroup = AE;
unicode = 0045;
},
{
glyphname = Eacute;
lastChange = "2019-09-03 20:00:58 +0000";
layers = (
{
hints = (
{
horizontal = 1;
place = "{0, 133.19}";
type = Stem;
},
{
horizontal = 1;
place = "{318.44, 127.68}";
type = Stem;
},
{
horizontal = 1;
place = "{603.81, 133.19}";
type = Stem;
},
{
horizontal = 1;
place = "{794.62, 155.5}";
type = Stem;
},
{
place = "{75, 156.2}";
type = Stem;
}
);
layerId = "37B3F0A2-20CC-4AE3-B6A0-1D169A898E63";
paths = (
{
closed = 1;
nodes = (
"606.97 0 LINE",
"606.97 133.19 LINE",
"231.2 133.19 LINE",
"231.2 318.44 LINE",
"571.97 318.44 LINE",
"571.97 446.12 LINE",
"231.2 446.12 LINE",
"231.2 603.81 LINE",
"606.97 603.81 LINE",
"606.97 737 LINE",
"75 737 LINE",
"75 0 LINE"
);
},
{
closed = 1;
nodes = (
"403.66 794.62 LINE",
"547.97 950.12 LINE",
"387.66 950.12 LINE",
"284.6 794.62 LINE"
);
}
);
width = 657;
}
);
leftKerningGroup = B;
note = Eacute;
rightKerningGroup = AE;
unicode = 00C9;
},
{
glyphname = Ebreve;
lastChange = "2019-09-03 20:00:58 +0000";
layers = (
{
hints = (
{
horizontal = 1;
place = "{0, 133.19}";
type = Stem;
},
{
horizontal = 1;
place = "{318.44, 127.68}";
type = Stem;
},
{
horizontal = 1;
place = "{603.81, 133.19}";
type = Stem;
},
{
horizontal = 1;
place = "{794.62, 86}";
type = Stem;
},
{
place = "{75, 156.2}";
type = Stem;
},
{
place = "{406.35, 106.19}";
type = Stem;
},
{
horizontal = 1;
place = "{868.25, 73.87}";
type = Stem;
},
{
place = "{168.28, 106.19}";
type = Stem;
}
);
layerId = "37B3F0A2-20CC-4AE3-B6A0-1D169A898E63";
paths = (
{
closed = 1;
nodes = (
"606.97 0 LINE",
"606.97 133.19 LINE",
"231.2 133.19 LINE",
"231.2 318.44 LINE",
"571.97 318.44 LINE",
"571.97 446.12 LINE",
"231.2 446.12 LINE",
"231.2 603.81 LINE",
"606.97 603.81 LINE",
"606.97 737 LINE",
"75 737 LINE",
"75 0 LINE"
);
},
{
closed = 1;
nodes = (
"434.85 794.62 LINE",
"512.54 868.25 LINE",
"512.54 942.12 LINE",
"406.35 942.12 LINE",
"406.35 897.62 LINE",
"388.91 880.62 LINE",
"291.91 880.62 LINE",
"274.47 897.62 LINE",
"274.47 942.12 LINE",
"168.28 942.12 LINE",
"168.28 868.25 LINE",
"245.47 794.62 LINE"
);
}
);
width = 657;
}
);
leftKerningGroup = B;
note = Ebreve;
rightKerningGroup = AE;
unicode = 0114;
},
{
glyphname = Ecaron;
lastChange = "2019-09-03 20:00:58 +0000";
layers = (
{
hints = (
{
horizontal = 1;
place = "{0, 133.19}";
type = Stem;
},
{
horizontal = 1;
place = "{318.44, 127.68}";
type = Stem;
},
{
horizontal = 1;
place = "{603.81, 133.19}";
type = Stem;
},
{
horizontal = 1;
place = "{794.62, 147.5}";
type = Stem;
},
{
place = "{75, 156.2}";
type = Stem;
}
);
layerId = "37B3F0A2-20CC-4AE3-B6A0-1D169A898E63";
paths = (
{
closed = 1;
nodes = (
"606.97 0 LINE",
"606.97 133.19 LINE",
"231.2 133.19 LINE",
"231.2 318.44 LINE",
"571.97 318.44 LINE",
"571.97 446.12 LINE",
"231.2 446.12 LINE",
"231.2 603.81 LINE",
"606.97 603.81 LINE",
"606.97 737 LINE",
"75 737 LINE",
"75 0 LINE"
);
},
{
closed = 1;
nodes = (
"421.79 794.62 LINE",
"530.54 942.12 LINE",
"408.97 942.12 LINE",
"340.41 872.06 LINE",
"271.35 942.12 LINE",
"150.28 942.12 LINE",
"259.04 794.62 LINE"
);
}
);
width = 657;
}
);
leftKerningGroup = B;
note = Ecaron;
rightKerningGroup = AE;
unicode = 011A;
},
{
glyphname = Ecircumflex;
lastChange = "2019-09-03 20:00:58 +0000";
layers = (
{
hints = (
{
horizontal = 1;
place = "{0, 133.19}";
type = Stem;
},
{
horizontal = 1;
place = "{318.44, 127.68}";
type = Stem;
},
{
horizontal = 1;
place = "{603.81, 133.19}";
type = Stem;
},
{
horizontal = 1;
place = "{794.62, 147.5}";
type = Stem;
},
{
place = "{75, 156.2}";
type = Stem;
}
);
layerId = "37B3F0A2-20CC-4AE3-B6A0-1D169A898E63";
paths = (
{
closed = 1;
nodes = (
"606.97 0 LINE",
"606.97 133.19 LINE",
"231.2 133.19 LINE",
"231.2 318.44 LINE",
"571.97 318.44 LINE",
"571.97 446.12 LINE",
"231.2 446.12 LINE",
"231.2 603.81 LINE",
"606.97 603.81 LINE",
"606.97 737 LINE",
"75 737 LINE",
"75 0 LINE"
);
},
{
closed = 1;
nodes = (
"271.35 794.62 LINE",
"340.41 864.69 LINE",
"408.97 794.62 LINE",
"530.54 794.62 LINE",
"421.79 942.12 LINE",
"259.04 942.12 LINE",
"150.28 794.62 LINE"
);
}
);
width = 657;
}
);
leftKerningGroup = B;
note = Ecircumflex;
rightKerningGroup = AE;
unicode = 00CA;
},
{
glyphname = uni1EBE;
lastChange = "2019-09-03 20:00:58 +0000";
layers = (
{
hints = (
{
horizontal = 1;
place = "{0, 133.19}";
type = Stem;
},
{
horizontal = 1;
place = "{318.44, 127.68}";
type = Stem;
},
{
horizontal = 1;
place = "{603.81, 133.19}";
type = Stem;
},
{
horizontal = 1;
place = "{876.74, 155.5}";
type = Stem;
},
{
place = "{75, 156.2}";
type = Stem;
},
{
horizontal = 1;
place = "{794.62, 147.5}";
type = Stem;
}
);
layerId = "37B3F0A2-20CC-4AE3-B6A0-1D169A898E63";
paths = (
{
closed = 1;
nodes = (
"606.97 0 LINE",
"606.97 133.19 LINE",
"231.2 133.19 LINE",
"231.2 318.44 LINE",
"571.97 318.44 LINE",
"571.97 446.12 LINE",
"231.2 446.12 LINE",
"231.2 603.81 LINE",
"606.97 603.81 LINE",
"606.97 737 LINE",
"75 737 LINE",
"75 0 LINE"
);
},
{
closed = 1;
nodes = (
"271.85 794.62 LINE",
"340.41 864.69 LINE",
"409.47 794.62 LINE",
"530.54 794.62 LINE",
"421.79 942.12 LINE",
"259.04 942.12 LINE",
"150.29 794.62 LINE"
);
},
{
closed = 1;
nodes = (
"633.91 876.74 LINE",
"778.22 1032.24 LINE",
"617.91 1032.24 LINE",
"514.85 876.74 LINE"
);
}
);
width = 657;
}
);
leftKerningGroup = B;
note = uni1EBE;
rightKerningGroup = AE;
unicode = 1EBE;
},
{
glyphname = uni1EC6;
lastChange = "2019-09-03 20:00:58 +0000";
layers = (
{
hints = (
{
horizontal = 1;
place = "{-189.81, 132.68}";
type = Stem;
},
{
horizontal = 1;
place = "{0, 133.19}";
type = Stem;
},
{
horizontal = 1;
place = "{318.44, 127.68}";
type = Stem;
},
{
horizontal = 1;
place = "{603.81, 133.19}";
type = Stem;
},
{
horizontal = 1;
place = "{794.62, 147.5}";
type = Stem;
},
{
place = "{75, 156.2}";
type = Stem;
},
{
place = "{263.41, 154}";
type = Stem;
}
);
layerId = "37B3F0A2-20CC-4AE3-B6A0-1D169A898E63";
paths = (
{
closed = 1;
nodes = (
"606.97 0 LINE",
"606.97 133.19 LINE",
"231.2 133.19 LINE",
"231.2 318.44 LINE",
"571.97 318.44 LINE",
"571.97 446.12 LINE",
"231.2 446.12 LINE",
"231.2 603.81 LINE",
"606.97 603.81 LINE",
"606.97 737 LINE",
"75 737 LINE",
"75 0 LINE"
);
},
{
closed = 1;
nodes = (
"417.41 -189.81 LINE",
"417.41 -57.13 LINE",
"263.41 -57.13 LINE",
"263.41 -189.81 LINE"
);
},
{
closed = 1;
nodes = (
"271.35 794.62 LINE",
"340.41 864.69 LINE",
"408.97 794.62 LINE",
"530.54 794.62 LINE",
"421.79 942.12 LINE",
"259.04 942.12 LINE",
"150.28 794.62 LINE"
);
}
);
width = 657;
}
);
leftKerningGroup = B;
note = uni1EC6;
rightKerningGroup = AE;
unicode = 1EC6;
},
{
glyphname = uni1EC0;
lastChange = "2019-09-03 20:00:58 +0000";
layers = (
{
hints = (
{
horizontal = 1;
place = "{0, 133.19}";
type = Stem;
},
{
horizontal = 1;
place = "{318.44, 127.68}";
type = Stem;
},
{
horizontal = 1;
place = "{603.81, 133.19}";
type = Stem;
},
{
horizontal = 1;
place = "{876.76, 155.5}";
type = Stem;
},
{
place = "{75, 156.2}";
type = Stem;
},
{
horizontal = 1;
place = "{794.62, 147.5}";
type = Stem;
}
);
layerId = "37B3F0A2-20CC-4AE3-B6A0-1D169A898E63";
paths = (
{
closed = 1;
nodes = (
"606.97 0 LINE",
"606.97 133.19 LINE",
"231.2 133.19 LINE",
"231.2 318.44 LINE",
"571.97 318.44 LINE",
"571.97 446.12 LINE",
"231.2 446.12 LINE",
"231.2 603.81 LINE",
"606.97 603.81 LINE",
"606.97 737 LINE",
"75 737 LINE",
"75 0 LINE"
);
},
{
closed = 1;
nodes = (
"165.97 876.76 LINE",
"62.91 1032.26 LINE",
"-97.4 1032.26 LINE",
"46.91 876.76 LINE"
);
},
{
closed = 1;
nodes = (
"271.35 794.62 LINE",
"340.41 864.69 LINE",
"408.97 794.62 LINE",
"530.54 794.62 LINE",
"421.79 942.12 LINE",
"259.04 942.12 LINE",
"150.28 794.62 LINE"
);
}
);
width = 657;
}
);
leftKerningGroup = B;
note = uni1EC0;
rightKerningGroup = AE;
unicode = 1EC0;
},
{
glyphname = uni1EC2;
lastChange = "2019-09-03 20:00:58 +0000";
layers = (
{
hints = (
{
horizontal = 1;
place = "{0, 133.19}";
type = Stem;
},
{
horizontal = 1;
place = "{318.44, 127.68}";
type = Stem;
},
{
horizontal = 1;
place = "{603.81, 133.19}";
type = Stem;
},
{
horizontal = 1;
place = "{794.62, 147.5}";
type = Stem;
},
{
horizontal = 1;
place = "{1003.89, 95.65}";
type = Stem;
},
{
place = "{75, 156.2}";
type = Stem;
},
{
place = "{498.49, 103.65}";
type = Stem;
},
{
place = "{431.04, 102.15}";
type = Stem;
},
{
place = "{568.44, 106.5}";
type = Stem;
}
);
layerId = "37B3F0A2-20CC-4AE3-B6A0-1D169A898E63";
paths = (
{
closed = 1;
nodes = (
"606.97 0 LINE",
"606.97 133.19 LINE",
"231.2 133.19 LINE",
"231.2 318.44 LINE",
"571.97 318.44 LINE",
"571.97 446.12 LINE",
"231.2 446.12 LINE",
"231.2 603.81 LINE",
"606.97 603.81 LINE",
"606.97 737 LINE",
"75 737 LINE",
"75 0 LINE"
);
},
{
closed = 1;
nodes = (
"271.35 794.62 LINE",
"340.41 864.69 LINE",
"408.97 794.62 LINE",
"530.54 794.62 LINE",
"421.79 942.12 LINE",
"259.04 942.12 LINE",
"150.28 794.62 LINE"
);
},
{
closed = 1;
nodes = (
"602.14 877.09 LINE",
"602.14 917.39 LINE",
"674.94 965.34 LINE",
"674.94 1054.79 LINE",
"628.14 1099.54 LINE",
"477.84 1099.54 LINE",
"431.04 1054.24 LINE",
"431.04 1003.89 LINE",
"533.19 1003.89 LINE",
"533.19 1028.84 LINE",
"568.44 1028.84 LINE",
"568.44 1002.24 LINE",
"498.49 953.39 LINE",
"498.49 877.09 LINE"
);
}
);
width = 657;
}
);
leftKerningGroup = B;
note = uni1EC2;
rightKerningGroup = AE;
unicode = 1EC2;
},
{
glyphname = uni1EC4;
lastChange = "2019-09-03 20:00:58 +0000";
layers = (
{
hints = (
{
horizontal = 1;
place = "{0, 133.19}";
type = Stem;
},
{
horizontal = 1;
place = "{318.44, 127.68}";
type = Stem;
},
{
horizontal = 1;
place = "{603.81, 133.19}";
type = Stem;
},
{
horizontal = 1;
place = "{794.62, 147.5}";
type = Stem;
},
{
horizontal = 1;
place = "{1037.44, 84.93}";
type = Stem;
},
{
place = "{135.66, 97.44}";
type = Stem;
},
{
horizontal = 1;
place = "{972.94, 86.93}";
type = Stem;
},
{
place = "{75, 156.2}";
type = Stem;
},
{
place = "{456.72, 97.69}";
type = Stem;
}
);
layerId = "37B3F0A2-20CC-4AE3-B6A0-1D169A898E63";
paths = (
{
closed = 1;
nodes = (
"606.97 0 LINE",
"606.97 133.19 LINE",
"231.2 133.19 LINE",
"231.2 318.44 LINE",
"571.97 318.44 LINE",
"571.97 446.12 LINE",
"231.2 446.12 LINE",
"231.2 603.81 LINE",
"606.97 603.81 LINE",
"606.97 737 LINE",
"75 737 LINE",
"75 0 LINE"
);
},
{
closed = 1;
nodes = (
"271.35 794.62 LINE",
"340.41 864.69 LINE",
"408.97 794.62 LINE",
"530.54 794.62 LINE",
"421.79 942.12 LINE",
"259.04 942.12 LINE",
"150.28 794.62 LINE"
);
},
{
closed = 1;
nodes = (
"486.91 972.94 LINE",
"553.91 1042.44 LINE",
"554.91 1117.69 LINE",
"456.72 1117.69 LINE",
"456.72 1091 LINE",
"432.16 1059.87 LINE",
"406.72 1059.87 LINE",
"348.6 1122.37 LINE",
"202.91 1122.37 LINE",
"136.41 1054.31 LINE",
"134.91 978.06 LINE",
"233.1 978.06 LINE",
"233.1 1003.75 LINE",
"257.66 1037.44 LINE",
"283.1 1037.44 LINE",
"341.22 972.94 LINE"
);
}
);
width = 657;
}
);
leftKerningGroup = B;
note = uni1EC4;
rightKerningGroup = AE;
unicode = 1EC4;
},
{
glyphname = uni0204;
lastChange = "2019-09-03 20:00:58 +0000";
layers = (
{
hints = (
{
horizontal = 1;
place = "{0, 133.19}";
type = Stem;
},
{
horizontal = 1;
place = "{318.44, 127.68}";
type = Stem;
},
{
horizontal = 1;
place = "{603.81, 133.19}";
type = Stem;
},
{
horizontal = 1;
place = "{794.62, 155.5}";
type = Stem;
},
{
place = "{75, 156.2}";
type = Stem;
}
);
layerId = "37B3F0A2-20CC-4AE3-B6A0-1D169A898E63";
paths = (
{
closed = 1;
nodes = (
"606.97 0 LINE",
"606.97 133.19 LINE",
"231.2 133.19 LINE",
"231.2 318.44 LINE",
"571.97 318.44 LINE",
"571.97 446.12 LINE",
"231.2 446.12 LINE",
"231.2 603.81 LINE",
"606.97 603.81 LINE",
"606.97 737 LINE",
"75 737 LINE",
"75 0 LINE"
);
},
{
closed = 1;
nodes = (
"299.41 794.62 LINE",
"196.29 950.12 LINE",
"41.47 950.12 LINE",
"185.79 794.62 LINE"
);
},
{
closed = 1;
nodes = (
"501.22 794.62 LINE",
"398.1 950.12 LINE",
"243.29 950.12 LINE",
"387.6 794.62 LINE"
);
}
);
width = 657;
}
);
leftKerningGroup = B;
note = uni0204;
rightKerningGroup = AE;
unicode = 0204;
},
{
glyphname = Edieresis;
lastChange = "2019-09-03 20:00:58 +0000";
layers = (
{
hints = (
{
horizontal = 1;
place = "{0, 133.19}";
type = Stem;
},
{
horizontal = 1;
place = "{318.44, 127.68}";
type = Stem;
},
{
horizontal = 1;
place = "{603.81, 133.19}";
type = Stem;
},
{
horizontal = 1;
place = "{794.62, 132.75}";
type = Stem;
},
{
place = "{128.91, 148}";
type = Stem;
},
{
place = "{403.91, 148}";
type = Stem;
},
{
place = "{75, 156.2}";
type = Stem;
}
);
layerId = "37B3F0A2-20CC-4AE3-B6A0-1D169A898E63";
paths = (
{
closed = 1;
nodes = (
"606.97 0 LINE",
"606.97 133.19 LINE",
"231.2 133.19 LINE",
"231.2 318.44 LINE",
"571.97 318.44 LINE",
"571.97 446.12 LINE",
"231.2 446.12 LINE",
"231.2 603.81 LINE",
"606.97 603.81 LINE",
"606.97 737 LINE",
"75 737 LINE",
"75 0 LINE"
);
},
{
closed = 1;
nodes = (
"276.91 794.62 LINE",
"276.91 927.37 LINE",
"128.91 927.37 LINE",
"128.91 794.62 LINE"
);
},
{
closed = 1;
nodes = (
"551.91 794.62 LINE",
"551.91 927.37 LINE",
"403.91 927.37 LINE",
"403.91 794.62 LINE"
);
}
);
width = 657;
}
);
leftKerningGroup = B;
note = Edieresis;
rightKerningGroup = AE;
unicode = 00CB;
},
{
glyphname = Edotaccent;
lastChange = "2019-09-03 20:00:58 +0000";
layers = (
{
hints = (
{
horizontal = 1;
place = "{0, 133.19}";
type = Stem;
},
{
horizontal = 1;
place = "{318.44, 127.68}";
type = Stem;
},
{
horizontal = 1;
place = "{603.81, 133.19}";
type = Stem;
},
{
horizontal = 1;
place = "{794.62, 132.69}";
type = Stem;
},
{
place = "{75, 156.2}";
type = Stem;
},
{
place = "{263.41, 154}";
type = Stem;
}
);
layerId = "37B3F0A2-20CC-4AE3-B6A0-1D169A898E63";
paths = (
{
closed = 1;
nodes = (
"606.97 0 LINE",
"606.97 133.19 LINE",
"231.2 133.19 LINE",
"231.2 318.44 LINE",
"571.97 318.44 LINE",
"571.97 446.12 LINE",
"231.2 446.12 LINE",
"231.2 603.81 LINE",
"606.97 603.81 LINE",
"606.97 737 LINE",
"75 737 LINE",
"75 0 LINE"
);
},
{
closed = 1;
nodes = (
"417.41 794.62 LINE",
"417.41 927.31 LINE",
"263.41 927.31 LINE",
"263.41 794.62 LINE"
);
}
);
width = 657;
}
);
leftKerningGroup = B;
note = Edotaccent;
rightKerningGroup = AE;
unicode = 0116;
},
{
glyphname = uni1EB8;
lastChange = "2019-09-03 20:00:58 +0000";
layers = (
{
hints = (
{
horizontal = 1;
place = "{-189.81, 132.68}";
type = Stem;
},
{
horizontal = 1;
place = "{0, 133.19}";
type = Stem;
},
{
horizontal = 1;
place = "{318.44, 127.68}";
type = Stem;
},
{
horizontal = 1;
place = "{603.81, 133.19}";
type = Stem;
},
{
place = "{75, 156.2}";
type = Stem;
},
{
place = "{263.41, 154}";
type = Stem;
}
);
layerId = "37B3F0A2-20CC-4AE3-B6A0-1D169A898E63";
paths = (
{
closed = 1;
nodes = (
"606.97 0 LINE",
"606.97 133.19 LINE",
"231.2 133.19 LINE",
"231.2 318.44 LINE",
"571.97 318.44 LINE",
"571.97 446.12 LINE",
"231.2 446.12 LINE",
"231.2 603.81 LINE",
"606.97 603.81 LINE",
"606.97 737 LINE",
"75 737 LINE",
"75 0 LINE"
);
},
{
closed = 1;
nodes = (
"417.41 -189.81 LINE",
"417.41 -57.13 LINE",
"263.41 -57.13 LINE",
"263.41 -189.81 LINE"
);
}
);
width = 657;
}
);
leftKerningGroup = B;
note = uni1EB8;
rightKerningGroup = AE;
unicode = 1EB8;
},
{
glyphname = Egrave;
lastChange = "2019-09-03 20:00:58 +0000";
layers = (
{
hints = (
{
horizontal = 1;
place = "{0, 133.19}";
type = Stem;
},
{
horizontal = 1;
place = "{318.44, 127.68}";
type = Stem;
},
{
horizontal = 1;
place = "{603.81, 133.19}";
type = Stem;
},
{
horizontal = 1;
place = "{794.62, 155.5}";
type = Stem;
},
{
place = "{75, 156.2}";
type = Stem;
}
);
layerId = "37B3F0A2-20CC-4AE3-B6A0-1D169A898E63";
paths = (
{
closed = 1;
nodes = (
"606.97 0 LINE",
"606.97 133.19 LINE",
"231.2 133.19 LINE",
"231.2 318.44 LINE",
"571.97 318.44 LINE",
"571.97 446.12 LINE",
"231.2 446.12 LINE",
"231.2 603.81 LINE",
"606.97 603.81 LINE",
"606.97 737 LINE",
"75 737 LINE",
"75 0 LINE"
);
},
{
closed = 1;
nodes = (
"394.91 794.62 LINE",
"291.85 950.12 LINE",
"131.54 950.12 LINE",
"275.85 794.62 LINE"
);
}
);
width = 657;
}
);
leftKerningGroup = B;
note = Egrave;
rightKerningGroup = AE;
unicode = 00C8;
},
{
glyphname = uni1EBA;
lastChange = "2019-09-03 20:00:58 +0000";
layers = (
{
hints = (
{
horizontal = 1;
place = "{0, 133.19}";
type = Stem;
},
{
horizontal = 1;
place = "{318.44, 127.68}";
type = Stem;
},
{
horizontal = 1;
place = "{603.81, 133.19}";
type = Stem;
},
{
horizontal = 1;
place = "{921.8, 95.65}";
type = Stem;
},
{
place = "{75, 156.2}";
type = Stem;
},
{
place = "{287.05, 103.65}";
type = Stem;
},
{
horizontal = 1;
place = "{795, 76.3}";
type = Stem;
},
{
place = "{357, 106.5}";
type = Stem;
},
{
place = "{219.6, 102.15}";
type = Stem;
}
);
layerId = "37B3F0A2-20CC-4AE3-B6A0-1D169A898E63";
paths = (
{
closed = 1;
nodes = (
"606.97 0 LINE",
"606.97 133.19 LINE",
"231.2 133.19 LINE",
"231.2 318.44 LINE",
"571.97 318.44 LINE",
"571.97 446.12 LINE",
"231.2 446.12 LINE",
"231.2 603.81 LINE",
"606.97 603.81 LINE",
"606.97 737 LINE",
"75 737 LINE",
"75 0 LINE"
);
},
{
closed = 1;
nodes = (
"390.7 795 LINE",
"390.7 835.3 LINE",
"463.5 883.25 LINE",
"463.5 972.7 LINE",
"416.7 1017.45 LINE",
"266.4 1017.45 LINE",
"219.6 972.15 LINE",
"219.6 921.8 LINE",
"321.75 921.8 LINE",
"321.75 946.75 LINE",
"357 946.75 LINE",
"357 920.15 LINE",
"287.05 871.3 LINE",
"287.05 795 LINE"
);
}
);
width = 657;
}
);
leftKerningGroup = B;
note = uni1EBA;
rightKerningGroup = AE;
unicode = 1EBA;
},
{
glyphname = uni0206;
lastChange = "2019-09-03 20:00:58 +0000";
layers = (
{
hints = (
{
horizontal = 1;
place = "{0, 133.19}";
type = Stem;
},
{
horizontal = 1;
place = "{318.44, 127.68}";
type = Stem;
},
{
horizontal = 1;
place = "{603.81, 133.19}";
type = Stem;
},
{
horizontal = 1;
place = "{856.44, 85.56}";
type = Stem;
},
{
place = "{168.28, 106.19}";
type = Stem;
},
{
place = "{406.35, 106.19}";
type = Stem;
},
{
horizontal = 1;
place = "{795, 73.31}";
type = Stem;
},
{
place = "{75, 156.2}";
type = Stem;
}
);
layerId = "37B3F0A2-20CC-4AE3-B6A0-1D169A898E63";
paths = (
{
closed = 1;
nodes = (
"606.97 0 LINE",
"606.97 133.19 LINE",
"231.2 133.19 LINE",
"231.2 318.44 LINE",
"571.97 318.44 LINE",
"571.97 446.12 LINE",
"231.2 446.12 LINE",
"231.2 603.81 LINE",
"606.97 603.81 LINE",
"606.97 737 LINE",
"75 737 LINE",
"75 0 LINE"
);
},
{
closed = 1;
nodes = (
"274.47 795 LINE",
"274.47 839.5 LINE",
"291.91 856.44 LINE",
"388.91 856.44 LINE",
"406.35 839.5 LINE",
"406.35 795 LINE",
"512.54 795 LINE",
"512.54 868.31 LINE",
"434.85 942 LINE",
"245.47 942 LINE",
"168.28 868.31 LINE",
"168.28 795 LINE"
);
}
);
width = 657;
}
);
leftKerningGroup = B;
note = uni0206;
rightKerningGroup = AE;
unicode = 0206;
},
{
glyphname = Emacron;
lastChange = "2019-09-03 20:00:58 +0000";
layers = (
{
hints = (
{
horizontal = 1;
place = "{0, 133.19}";
type = Stem;
},
{
horizontal = 1;
place = "{318.44, 127.68}";
type = Stem;
},
{
horizontal = 1;
place = "{603.81, 133.19}";
type = Stem;
},
{
horizontal = 1;
place = "{794.62, 104.07}";
type = Stem;
},
{
place = "{75, 156.2}";
type = Stem;
}
);
layerId = "37B3F0A2-20CC-4AE3-B6A0-1D169A898E63";
paths = (
{
closed = 1;
nodes = (
"606.97 0 LINE",
"606.97 133.19 LINE",
"231.2 133.19 LINE",
"231.2 318.44 LINE",
"571.97 318.44 LINE",
"571.97 446.12 LINE",
"231.2 446.12 LINE",
"231.2 603.81 LINE",
"606.97 603.81 LINE",
"606.97 737 LINE",
"75 737 LINE",
"75 0 LINE"
);
},
{
closed = 1;
nodes = (
"550.41 794.62 LINE",
"550.41 898.69 LINE",
"127.41 898.69 LINE",
"127.41 794.62 LINE"
);
}
);
width = 657;
}
);
leftKerningGroup = B;
note = Emacron;
rightKerningGroup = AE;
unicode = 0112;
},
{
glyphname = Eogonek;
lastChange = "2019-09-03 20:00:58 +0000";
layers = (
{
hints = (
{
horizontal = 1;
place = "{-175.81, 91.68}";
type = Stem;
},
{
horizontal = 1;
place = "{0, 133.19}";
type = Stem;
},
{
horizontal = 1;
place = "{318.44, 127.68}";
type = Stem;
},
{
horizontal = 1;
place = "{603.81, 133.19}";
type = Stem;
},
{
place = "{75, 156.2}";
type = Stem;
},
{
place = "{474.1, 132.87}";
type = Stem;
}
);
layerId = "37B3F0A2-20CC-4AE3-B6A0-1D169A898E63";
paths = (
{
closed = 1;
nodes = (
"606.97 -175.81 LINE",
"606.97 -84.13 LINE",
"583.54 -84.13 LINE",
"563.54 -64.63 LINE",
"563.54 -35.75 LINE",
"606.97 0 LINE",
"606.97 133.19 LINE",
"231.2 133.19 LINE",
"231.2 318.44 LINE",
"571.97 318.44 LINE",
"571.97 446.12 LINE",
"231.2 446.12 LINE",
"231.2 603.81 LINE",
"606.97 603.81 LINE",
"606.97 737 LINE",
"75 737 LINE",
"75 0 LINE",
"519.16 0 LINE",
"474.1 -33 LINE",
"474.1 -110.88 LINE",
"542.54 -175.81 LINE"
);
}
);
width = 657;
}
);
leftKerningGroup = B;
note = Eogonek;
rightKerningGroup = AE;
unicode = 0118;
},
{
glyphname = uni1EBC;
lastChange = "2019-09-03 20:00:58 +0000";
layers = (
{
hints = (
{
horizontal = 1;
place = "{0, 133.19}";
type = Stem;
},
{
horizontal = 1;
place = "{318.44, 127.68}";
type = Stem;
},
{
horizontal = 1;
place = "{603.81, 133.19}";
type = Stem;
},
{
horizontal = 1;
place = "{859.12, 84.94}";
type = Stem;
},
{
place = "{134.53, 97.44}";
type = Stem;
},
{
horizontal = 1;
place = "{794.62, 86.94}";
type = Stem;
},
{
place = "{75, 156.2}";
type = Stem;
},
{
place = "{455.6, 97.69}";
type = Stem;
}
);
layerId = "37B3F0A2-20CC-4AE3-B6A0-1D169A898E63";
paths = (
{
closed = 1;
nodes = (
"606.97 0 LINE",
"606.97 133.19 LINE",
"231.2 133.19 LINE",
"231.2 318.44 LINE",
"571.97 318.44 LINE",
"571.97 446.12 LINE",
"231.2 446.12 LINE",
"231.2 603.81 LINE",
"606.97 603.81 LINE",
"606.97 737 LINE",
"75 737 LINE",
"75 0 LINE"
);
},
{
closed = 1;
nodes = (
"485.79 794.62 LINE",
"552.79 864.12 LINE",
"553.79 939.37 LINE",
"455.6 939.37 LINE",
"455.6 912.69 LINE",
"431.04 881.56 LINE",
"405.6 881.56 LINE",
"347.47 944.06 LINE",
"201.78 944.06 LINE",
"135.28 876 LINE",
"133.78 799.75 LINE",
"231.97 799.75 LINE",
"231.97 825.44 LINE",
"256.54 859.12 LINE",
"281.97 859.12 LINE",
"340.1 794.62 LINE"
);
}
);
width = 657;
}
);
leftKerningGroup = B;
note = uni1EBC;
rightKerningGroup = AE;
unicode = 1EBC;
},
{
glyphname = F;
lastChange = "2019-09-03 20:00:58 +0000";
layers = (
{
hints = (
{
horizontal = 1;
place = "{301.87, 127.69}";
type = Stem;
},
{
horizontal = 1;
place = "{603.81, 133.19}";
type = Stem;
},
{
place = "{75, 156.2}";
type = Stem;
}
);
layerId = "37B3F0A2-20CC-4AE3-B6A0-1D169A898E63";
paths = (
{
closed = 1;
nodes = (
"231.2 0 LINE",
"231.2 301.87 LINE",
"553.47 301.87 LINE",
"553.47 429.56 LINE",
"231.2 429.56 LINE",
"231.2 603.81 LINE",
"598.47 603.81 LINE",
"598.47 737 LINE",
"75 737 LINE",
"75 0 LINE"
);
}
);
width = 611;
}
);
leftKerningGroup = B;
note = F;
rightKerningGroup = F;
unicode = 0046;
},
{
glyphname = G;
lastChange = "2019-09-03 20:00:58 +0000";
layers = (
{
hints = (
{
horizontal = 1;
place = "{0, 125.94}";
type = Stem;
},
{
horizontal = 1;
place = "{273.87, 126.5}";
type = Stem;
},
{
horizontal = 1;
place = "{610.94, 126.06}";
type = Stem;
},
{
place = "{55, 156.11}";
type = Stem;
},
{
place = "{536.44, 130.69}";
type = Stem;
}
);
layerId = "37B3F0A2-20CC-4AE3-B6A0-1D169A898E63";
paths = (
{
closed = 1;
nodes = (
"457.15 0 LINE",
"536.44 70.37 LINE",
"536.44 0 LINE",
"667.13 0 LINE",
"667.13 400.37 LINE",
"379.26 400.37 LINE",
"379.26 273.87 LINE",
"530.94 273.87 LINE",
"530.94 219.38 LINE",
"425.29 126 LINE",
"250.6 125.87 LINE",
"211.24 165.5 LINE",
"210.99 571.5 LINE",
"250.6 610.87 LINE",
"485.77 611 LINE",
"561.99 536.25 LINE",
"661.07 630.87 LINE",
"554.99 737 LINE",
"166.02 737 LINE",
"55 625.94 LINE",
"55 111.06 LINE",
"166.02 0 LINE"
);
}
);
width = 737;
}
);
leftKerningGroup = C;
note = G;
rightKerningGroup = G;
unicode = 0047;
},
{
glyphname = Gbreve;
lastChange = "2019-09-03 20:00:58 +0000";
layers = (
{
hints = (
{
horizontal = 1;
place = "{0, 125.94}";
type = Stem;
},
{
horizontal = 1;
place = "{273.87, 126.5}";
type = Stem;
},
{
horizontal = 1;
place = "{610.94, 126.06}";
type = Stem;
},
{
horizontal = 1;
place = "{794.62, 86}";
type = Stem;
},
{
place = "{55, 156.11}";
type = Stem;
},
{
place = "{426.3, 106.19}";
type = Stem;
},
{
horizontal = 1;
place = "{868.25, 73.87}";
type = Stem;
},
{
place = "{188.24, 106.19}";
type = Stem;
},
{
place = "{536.44, 130.69}";
type = Stem;
}
);
layerId = "37B3F0A2-20CC-4AE3-B6A0-1D169A898E63";
paths = (
{
closed = 1;
nodes = (
"457.15 0 LINE",
"536.44 70.37 LINE",
"536.44 0 LINE",
"667.13 0 LINE",
"667.13 400.37 LINE",
"379.26 400.37 LINE",
"379.26 273.87 LINE",
"530.94 273.87 LINE",
"530.94 219.38 LINE",
"425.29 126 LINE",
"250.6 125.87 LINE",
"211.24 165.5 LINE",
"210.99 571.5 LINE",
"250.6 610.87 LINE",
"485.77 611 LINE",
"561.99 536.25 LINE",
"661.07 630.87 LINE",
"554.99 737 LINE",
"166.02 737 LINE",
"55 625.94 LINE",
"55 111.06 LINE",
"166.02 0 LINE"
);
},
{
closed = 1;
nodes = (
"454.8 794.62 LINE",
"532.49 868.25 LINE",
"532.49 942.12 LINE",
"426.3 942.12 LINE",
"426.3 897.62 LINE",
"408.87 880.62 LINE",
"311.87 880.62 LINE",
"294.43 897.62 LINE",
"294.43 942.12 LINE",
"188.24 942.12 LINE",
"188.24 868.25 LINE",
"265.43 794.62 LINE"
);
}
);
width = 737;
}
);
leftKerningGroup = C;
note = Gbreve;
rightKerningGroup = G;
unicode = 011E;
},
{
glyphname = Gcaron;
lastChange = "2019-09-03 20:00:58 +0000";
layers = (
{
hints = (
{
horizontal = 1;
place = "{0, 125.94}";
type = Stem;
},
{
horizontal = 1;
place = "{273.87, 126.5}";
type = Stem;
},
{
horizontal = 1;
place = "{610.94, 126.06}";
type = Stem;
},
{
horizontal = 1;
place = "{794.62, 147.5}";
type = Stem;
},
{
place = "{55, 156.11}";
type = Stem;
},
{
place = "{536.44, 130.69}";
type = Stem;
}
);
layerId = "37B3F0A2-20CC-4AE3-B6A0-1D169A898E63";
paths = (
{
closed = 1;
nodes = (
"457.15 0 LINE",
"536.44 70.37 LINE",
"536.44 0 LINE",
"667.13 0 LINE",
"667.13 400.37 LINE",
"379.26 400.37 LINE",
"379.26 273.87 LINE",
"530.94 273.87 LINE",
"530.94 219.38 LINE",
"425.29 126 LINE",
"250.6 125.87 LINE",
"211.24 165.5 LINE",
"210.99 571.5 LINE",
"250.6 610.87 LINE",
"485.77 611 LINE",
"561.99 536.25 LINE",
"661.07 630.87 LINE",
"554.99 737 LINE",
"166.02 737 LINE",
"55 625.94 LINE",
"55 111.06 LINE",
"166.02 0 LINE"
);
},
{
closed = 1;
nodes = (
"441.74 794.62 LINE",
"550.49 942.12 LINE",
"428.93 942.12 LINE",
"360.37 872.06 LINE",
"291.3 942.12 LINE",
"170.24 942.12 LINE",
"278.99 794.62 LINE"
);
}
);
width = 737;
}
);
leftKerningGroup = C;
note = Gcaron;
rightKerningGroup = G;
unicode = 01E6;
},
{
glyphname = Gcircumflex;
lastChange = "2019-09-03 20:00:58 +0000";
layers = (
{
hints = (
{
horizontal = 1;
place = "{0, 125.94}";
type = Stem;
},
{
horizontal = 1;
place = "{273.87, 126.5}";
type = Stem;
},
{
horizontal = 1;
place = "{610.94, 126.06}";
type = Stem;
},
{
horizontal = 1;
place = "{794.62, 147.5}";
type = Stem;
},
{
place = "{55, 156.11}";
type = Stem;
},
{
place = "{536.44, 130.69}";
type = Stem;
}
);
layerId = "37B3F0A2-20CC-4AE3-B6A0-1D169A898E63";
paths = (
{
closed = 1;
nodes = (
"457.15 0 LINE",
"536.44 70.37 LINE",
"536.44 0 LINE",
"667.13 0 LINE",
"667.13 400.37 LINE",
"379.26 400.37 LINE",
"379.26 273.87 LINE",
"530.94 273.87 LINE",
"530.94 219.38 LINE",
"425.29 126 LINE",
"250.6 125.87 LINE",
"211.24 165.5 LINE",
"210.99 571.5 LINE",
"250.6 610.87 LINE",
"485.77 611 LINE",
"561.99 536.25 LINE",
"661.07 630.87 LINE",
"554.99 737 LINE",
"166.02 737 LINE",
"55 625.94 LINE",
"55 111.06 LINE",
"166.02 0 LINE"
);
},
{
closed = 1;
nodes = (
"291.3 794.62 LINE",
"360.37 864.69 LINE",
"428.93 794.62 LINE",
"550.49 794.62 LINE",
"441.74 942.12 LINE",
"278.99 942.12 LINE",
"170.24 794.62 LINE"
);
}
);
width = 737;
}
);
leftKerningGroup = C;
note = Gcircumflex;
rightKerningGroup = G;
unicode = 011C;
},
{
glyphname = uni0122;
lastChange = "2019-09-03 20:00:58 +0000";
layers = (
{
hints = (
{
horizontal = 1;
place = "{-239.88, 182.75}";
type = Stem;
},
{
horizontal = 1;
place = "{0, 125.94}";
type = Stem;
},
{
horizontal = 1;
place = "{273.87, 126.5}";
type = Stem;
},
{
horizontal = 1;
place = "{610.94, 126.06}";
type = Stem;
},
{
place = "{55, 156.11}";
type = Stem;
},
{
place = "{536.44, 130.69}";
type = Stem;
}
);
layerId = "37B3F0A2-20CC-4AE3-B6A0-1D169A898E63";
paths = (
{
closed = 1;
nodes = (
"457.15 0 LINE",
"536.44 70.37 LINE",
"536.44 0 LINE",
"667.13 0 LINE",
"667.13 400.37 LINE",
"379.26 400.37 LINE",
"379.26 273.87 LINE",
"530.94 273.87 LINE",
"530.94 219.38 LINE",
"425.29 126 LINE",
"250.6 125.87 LINE",
"211.24 165.5 LINE",
"210.99 571.5 LINE",
"250.6 610.87 LINE",
"485.77 611 LINE",
"561.99 536.25 LINE",
"661.07 630.87 LINE",
"554.99 737 LINE",
"166.02 737 LINE",
"55 625.94 LINE",
"55 111.06 LINE",
"166.02 0 LINE"
);
},
{
closed = 1;
nodes = (
"296.81 -239.88 LINE",
"399.5 -57.13 LINE",
"254.12 -57.13 LINE",
"210.31 -239.88 LINE"
);
}
);
width = 737;
}
);
leftKerningGroup = C;
note = uni0122;
rightKerningGroup = G;
unicode = 0122;
},
{
glyphname = Gdotaccent;
lastChange = "2019-09-03 20:00:58 +0000";
layers = (
{
hints = (
{
horizontal = 1;
place = "{0, 125.94}";
type = Stem;
},
{
horizontal = 1;
place = "{273.87, 126.5}";
type = Stem;
},
{
horizontal = 1;
place = "{610.94, 126.06}";
type = Stem;
},
{
horizontal = 1;
place = "{794.62, 132.69}";
type = Stem;
},
{
place = "{55, 156.11}";
type = Stem;
},
{
place = "{283.37, 154}";
type = Stem;
},
{
place = "{536.44, 130.69}";
type = Stem;
}
);
layerId = "37B3F0A2-20CC-4AE3-B6A0-1D169A898E63";
paths = (
{
closed = 1;
nodes = (
"457.15 0 LINE",
"536.44 70.37 LINE",
"536.44 0 LINE",
"667.13 0 LINE",
"667.13 400.37 LINE",
"379.26 400.37 LINE",
"379.26 273.87 LINE",
"530.94 273.87 LINE",
"530.94 219.38 LINE",
"425.29 126 LINE",
"250.6 125.87 LINE",
"211.24 165.5 LINE",
"210.99 571.5 LINE",
"250.6 610.87 LINE",
"485.77 611 LINE",
"561.99 536.25 LINE",
"661.07 630.87 LINE",
"554.99 737 LINE",
"166.02 737 LINE",
"55 625.94 LINE",
"55 111.06 LINE",
"166.02 0 LINE"
);
},
{
closed = 1;
nodes = (
"437.37 794.62 LINE",
"437.37 927.31 LINE",
"283.37 927.31 LINE",
"283.37 794.62 LINE"
);
}
);
width = 737;
}
);
leftKerningGroup = C;
note = Gdotaccent;
rightKerningGroup = G;
unicode = 0120;
},
{
glyphname = H;
lastChange = "2019-09-03 20:00:58 +0000";
layers = (
{
hints = (
{
horizontal = 1;
place = "{324.06, 128}";
type = Stem;
},
{
place = "{75, 156.2}";
type = Stem;
},
{
place = "{517.81, 156.2}";
type = Stem;
}
);
layerId = "37B3F0A2-20CC-4AE3-B6A0-1D169A898E63";
paths = (
{
closed = 1;
nodes = (
"231.2 0 LINE",
"231.2 324.06 LINE",
"517.81 324.06 LINE",
"517.81 0 LINE",
"674.01 0 LINE",
"674.01 737 LINE",
"517.81 737 LINE",
"517.81 452.06 LINE",
"231.2 452.06 LINE",
"231.2 737 LINE",
"75 737 LINE",
"75 0 LINE"
);
}
);
width = 749;
}
);
leftKerningGroup = B;
note = H;
rightKerningGroup = H;
unicode = 0048;
},
{
glyphname = Hbar;
lastChange = "2019-09-03 20:00:58 +0000";
layers = (
{
hints = (
{
horizontal = 1;
place = "{324.06, 128}";
type = Stem;
},
{
horizontal = 1;
place = "{535.37, 108}";
type = Stem;
},
{
place = "{75, 156.2}";
type = Stem;
},
{
place = "{517.81, 156.2}";
type = Stem;
}
);
layerId = "37B3F0A2-20CC-4AE3-B6A0-1D169A898E63";
paths = (
{
closed = 1;
nodes = (
"231.2 0 LINE",
"231.2 324.06 LINE",
"517.81 324.06 LINE",
"517.81 0 LINE",
"674.01 0 LINE",
"674.01 535.37 LINE",
"734.5 535.37 LINE",
"734.5 643.37 LINE",
"674.01 643.37 LINE",
"674.01 737 LINE",
"517.81 737 LINE",
"517.81 643.37 LINE",
"231.2 643.37 LINE",
"231.2 737 LINE",
"75 737 LINE",
"75 643.37 LINE",
"14 643.37 LINE",
"14 535.37 LINE",
"75 535.37 LINE",
"75 0 LINE"
);
},
{
closed = 1;
nodes = (
"231.2 535.37 LINE",
"517.81 535.37 LINE",
"517.81 452.06 LINE",
"231.2 452.06 LINE"
);
}
);
width = 749;
}
);
leftKerningGroup = B;
note = Hbar;
rightKerningGroup = H;
unicode = 0126;
},
{
glyphname = Hcircumflex;
lastChange = "2019-09-03 20:00:58 +0000";
layers = (
{
hints = (
{
horizontal = 1;
place = "{324.06, 128}";
type = Stem;
},
{
horizontal = 1;
place = "{794.62, 147.5}";
type = Stem;
},
{
place = "{75, 156.2}";
type = Stem;
},
{
place = "{517.81, 156.2}";
type = Stem;
}
);
layerId = "37B3F0A2-20CC-4AE3-B6A0-1D169A898E63";
paths = (
{
closed = 1;
nodes = (
"231.2 0 LINE",
"231.2 324.06 LINE",
"517.81 324.06 LINE",
"517.81 0 LINE",
"674.01 0 LINE",
"674.01 737 LINE",
"517.81 737 LINE",
"517.81 452.06 LINE",
"231.2 452.06 LINE",
"231.2 737 LINE",
"75 737 LINE",
"75 0 LINE"
);
},
{
closed = 1;
nodes = (
"308.5 794.62 LINE",
"377.56 864.69 LINE",
"446.12 794.62 LINE",
"567.69 794.62 LINE",
"458.94 942.12 LINE",
"296.19 942.12 LINE",
"187.44 794.62 LINE"
);
}
);
width = 749;
}
);
leftKerningGroup = B;
note = Hcircumflex;
rightKerningGroup = H;
unicode = 0124;
},
{
glyphname = I;
lastChange = "2019-09-03 20:00:58 +0000";
layers = (
{
hints = (
{
horizontal = 1;
place = "{0, 127.69}";
type = Stem;
},
{
horizontal = 1;
place = "{609.31, 127.69}";
type = Stem;
},
{
place = "{127.87, 151.2}";
type = Stem;
}
);
layerId = "37B3F0A2-20CC-4AE3-B6A0-1D169A898E63";
paths = (
{
closed = 1;
nodes = (
"357.5 0 LINE",
"357.5 127.69 LINE",
"278.42 127.69 LINE",
"279.73 609.31 LINE",
"357.5 609.31 LINE",
"357.5 737 LINE",
"50 737 LINE",
"50 609.31 LINE",
"127.55 609.31 LINE",
"128.2 127.69 LINE",
"50 127.69 LINE",
"50 0 LINE"
);
}
);
width = 408;
}
);
leftKerningGroup = B;
note = I;
rightKerningGroup = H;
unicode = 0049;
},
{
glyphname = Iacute;
lastChange = "2019-09-03 20:00:58 +0000";
layers = (
{
hints = (
{
horizontal = 1;
place = "{0, 127.69}";
type = Stem;
},
{
horizontal = 1;
place = "{609.31, 127.69}";
type = Stem;
},
{
horizontal = 1;
place = "{794.62, 155.5}";
type = Stem;
},
{
place = "{127.87, 151.2}";
type = Stem;
}
);
layerId = "37B3F0A2-20CC-4AE3-B6A0-1D169A898E63";
paths = (
{
closed = 1;
nodes = (
"357.5 0 LINE",
"357.5 127.69 LINE",
"278.42 127.69 LINE",
"279.73 609.31 LINE",
"357.5 609.31 LINE",
"357.5 737 LINE",
"50 737 LINE",
"50 609.31 LINE",
"127.55 609.31 LINE",
"128.2 127.69 LINE",
"50 127.69 LINE",
"50 0 LINE"
);
},
{
closed = 1;
nodes = (
"267 794.62 LINE",
"411.31 950.12 LINE",
"251 950.12 LINE",
"147.94 794.62 LINE"
);
}
);
width = 408;
}
);
leftKerningGroup = B;
note = Iacute;
rightKerningGroup = H;
unicode = 00CD;
},
{
glyphname = Ibreve;
lastChange = "2019-09-03 20:00:58 +0000";
layers = (
{
hints = (
{
horizontal = 1;
place = "{0, 127.69}";
type = Stem;
},
{
horizontal = 1;
place = "{609.31, 127.69}";
type = Stem;
},
{
horizontal = 1;
place = "{868.25, 73.87}";
type = Stem;
},
{
place = "{269.69, 106.18}";
type = Stem;
},
{
horizontal = 1;
place = "{794.62, 86}";
type = Stem;
},
{
place = "{31.62, 106.19}";
type = Stem;
},
{
place = "{127.87, 151.2}";
type = Stem;
}
);
layerId = "37B3F0A2-20CC-4AE3-B6A0-1D169A898E63";
paths = (
{
closed = 1;
nodes = (
"357.5 0 LINE",
"357.5 127.69 LINE",
"278.42 127.69 LINE",
"279.73 609.31 LINE",
"357.5 609.31 LINE",
"357.5 737 LINE",
"50 737 LINE",
"50 609.31 LINE",
"127.55 609.31 LINE",
"128.2 127.69 LINE",
"50 127.69 LINE",
"50 0 LINE"
);
},
{
closed = 1;
nodes = (
"298.19 794.62 LINE",
"375.87 868.25 LINE",
"375.87 942.12 LINE",
"269.69 942.12 LINE",
"269.69 897.62 LINE",
"252.25 880.62 LINE",
"155.25 880.62 LINE",
"137.81 897.62 LINE",
"137.81 942.12 LINE",
"31.62 942.12 LINE",
"31.62 868.25 LINE",
"108.81 794.62 LINE"
);
}
);
width = 408;
}
);
leftKerningGroup = B;
note = Ibreve;
rightKerningGroup = H;
unicode = 012C;
},
{
glyphname = Icircumflex;
lastChange = "2019-09-03 20:00:58 +0000";
layers = (
{
hints = (
{
horizontal = 1;
place = "{0, 127.69}";
type = Stem;
},
{
horizontal = 1;
place = "{609.31, 127.69}";
type = Stem;
},
{
horizontal = 1;
place = "{794.62, 147.5}";
type = Stem;
},
{
place = "{127.87, 151.2}";
type = Stem;
}
);
layerId = "37B3F0A2-20CC-4AE3-B6A0-1D169A898E63";
paths = (
{
closed = 1;
nodes = (
"357.5 0 LINE",
"357.5 127.69 LINE",
"278.42 127.69 LINE",
"279.73 609.31 LINE",
"357.5 609.31 LINE",
"357.5 737 LINE",
"50 737 LINE",
"50 609.31 LINE",
"127.55 609.31 LINE",
"128.2 127.69 LINE",
"50 127.69 LINE",
"50 0 LINE"
);
},
{
closed = 1;
nodes = (
"134.69 794.62 LINE",
"203.75 864.69 LINE",
"272.31 794.62 LINE",
"393.87 794.62 LINE",
"285.12 942.12 LINE",
"122.37 942.12 LINE",
"13.62 794.62 LINE"
);
}
);
width = 408;
}
);
leftKerningGroup = B;
note = Icircumflex;
rightKerningGroup = H;
unicode = 00CE;
},
{
glyphname = uni0208;
lastChange = "2019-09-03 20:00:58 +0000";
layers = (
{
hints = (
{
horizontal = 1;
place = "{0, 127.69}";
type = Stem;
},
{
horizontal = 1;
place = "{609.31, 127.69}";
type = Stem;
},
{
horizontal = 1;
place = "{794.62, 155.5}";
type = Stem;
},
{
place = "{127.87, 151.2}";
type = Stem;
}
);
layerId = "37B3F0A2-20CC-4AE3-B6A0-1D169A898E63";
paths = (
{
closed = 1;
nodes = (
"357.5 0 LINE",
"357.5 127.69 LINE",
"278.42 127.69 LINE",
"279.73 609.31 LINE",
"357.5 609.31 LINE",
"357.5 737 LINE",
"50 737 LINE",
"50 609.31 LINE",
"127.55 609.31 LINE",
"128.2 127.69 LINE",
"50 127.69 LINE",
"50 0 LINE"
);
},
{
closed = 1;
nodes = (
"162.75 794.62 LINE",
"59.62 950.12 LINE",
"-95.19 950.12 LINE",
"49.12 794.62 LINE"
);
},
{
closed = 1;
nodes = (
"364.56 794.62 LINE",
"261.44 950.12 LINE",
"106.62 950.12 LINE",
"250.94 794.62 LINE"
);
}
);
width = 408;
}
);
leftKerningGroup = B;
note = uni0208;
rightKerningGroup = H;
unicode = 0208;
},
{
glyphname = Idieresis;
lastChange = "2019-09-03 20:00:58 +0000";
layers = (
{
hints = (
{
horizontal = 1;
place = "{0, 127.69}";
type = Stem;
},
{
horizontal = 1;
place = "{609.31, 127.69}";
type = Stem;
},
{
horizontal = 1;
place = "{794.62, 132.75}";
type = Stem;
},
{
place = "{-7.75, 148}";
type = Stem;
},
{
place = "{267.25, 148}";
type = Stem;
},
{
place = "{127.87, 151.2}";
type = Stem;
}
);
layerId = "37B3F0A2-20CC-4AE3-B6A0-1D169A898E63";
paths = (
{
closed = 1;
nodes = (
"357.5 0 LINE",
"357.5 127.69 LINE",
"278.42 127.69 LINE",
"279.73 609.31 LINE",
"357.5 609.31 LINE",
"357.5 737 LINE",
"50 737 LINE",
"50 609.31 LINE",
"127.55 609.31 LINE",
"128.2 127.69 LINE",
"50 127.69 LINE",
"50 0 LINE"
);
},
{
closed = 1;
nodes = (
"140.25 794.62 LINE",
"140.25 927.37 LINE",
"-7.75 927.37 LINE",
"-7.75 794.62 LINE"
);
},
{
closed = 1;
nodes = (
"415.25 794.62 LINE",
"415.25 927.37 LINE",
"267.25 927.37 LINE",
"267.25 794.62 LINE"
);
}
);
width = 408;
}
);
leftKerningGroup = B;
note = Idieresis;
rightKerningGroup = H;
unicode = 00CF;
},
{
glyphname = Idotaccent;
lastChange = "2019-09-03 20:00:58 +0000";
layers = (
{
hints = (
{
horizontal = 1;
place = "{0, 127.69}";
type = Stem;
},
{
horizontal = 1;
place = "{609.31, 127.69}";
type = Stem;
},
{
horizontal = 1;
place = "{794.62, 132.69}";
type = Stem;
},
{
place = "{127.87, 151.2}";
type = Stem;
}
);
layerId = "37B3F0A2-20CC-4AE3-B6A0-1D169A898E63";
paths = (
{
closed = 1;
nodes = (
"357.5 0 LINE",
"357.5 127.69 LINE",
"278.42 127.69 LINE",
"279.73 609.31 LINE",
"357.5 609.31 LINE",
"357.5 737 LINE",
"50 737 LINE",
"50 609.31 LINE",
"127.55 609.31 LINE",
"128.2 127.69 LINE",
"50 127.69 LINE",
"50 0 LINE"
);
},
{
closed = 1;
nodes = (
"280.75 794.62 LINE",
"280.75 927.31 LINE",
"126.75 927.31 LINE",
"126.75 794.62 LINE"
);
}
);
width = 408;
}
);
leftKerningGroup = B;
note = Idotaccent;
rightKerningGroup = H;
unicode = 0130;
},
{
glyphname = uni1ECA;
lastChange = "2019-09-03 20:00:58 +0000";
layers = (
{
hints = (
{
horizontal = 1;
place = "{-189.81, 132.68}";
type = Stem;
},
{
horizontal = 1;
place = "{0, 127.69}";
type = Stem;
},
{
horizontal = 1;
place = "{609.31, 127.69}";
type = Stem;
},
{
place = "{127.87, 151.2}";
type = Stem;
}
);
layerId = "37B3F0A2-20CC-4AE3-B6A0-1D169A898E63";
paths = (
{
closed = 1;
nodes = (
"357.5 0 LINE",
"357.5 127.69 LINE",
"278.42 127.69 LINE",
"279.73 609.31 LINE",
"357.5 609.31 LINE",
"357.5 737 LINE",
"50 737 LINE",
"50 609.31 LINE",
"127.55 609.31 LINE",
"128.2 127.69 LINE",
"50 127.69 LINE",
"50 0 LINE"
);
},
{
closed = 1;
nodes = (
"280.75 -189.81 LINE",
"280.75 -57.13 LINE",
"126.75 -57.13 LINE",
"126.75 -189.81 LINE"
);
}
);
width = 408;
}
);
leftKerningGroup = B;
note = uni1ECA;
rightKerningGroup = H;
unicode = 1ECA;
},
{
glyphname = Igrave;
lastChange = "2019-09-03 20:00:58 +0000";
layers = (
{
hints = (
{
horizontal = 1;
place = "{0, 127.69}";
type = Stem;
},
{
horizontal = 1;
place = "{609.31, 127.69}";
type = Stem;
},
{
horizontal = 1;
place = "{794.62, 155.5}";
type = Stem;
},
{
place = "{127.87, 151.2}";
type = Stem;
}
);
layerId = "37B3F0A2-20CC-4AE3-B6A0-1D169A898E63";
paths = (
{
closed = 1;
nodes = (
"357.5 0 LINE",
"357.5 127.69 LINE",
"278.42 127.69 LINE",
"279.73 609.31 LINE",
"357.5 609.31 LINE",
"357.5 737 LINE",
"50 737 LINE",
"50 609.31 LINE",
"127.55 609.31 LINE",
"128.2 127.69 LINE",
"50 127.69 LINE",
"50 0 LINE"
);
},
{
closed = 1;
nodes = (
"258.25 794.62 LINE",
"155.19 950.12 LINE",
"-5.13 950.12 LINE",
"139.19 794.62 LINE"
);
}
);
width = 408;
}
);
leftKerningGroup = B;
note = Igrave;
rightKerningGroup = H;
unicode = 00CC;
},
{
glyphname = uni1EC8;
lastChange = "2019-09-03 20:00:58 +0000";
layers = (
{
hints = (
{
horizontal = 1;
place = "{0, 127.69}";
type = Stem;
},
{
horizontal = 1;
place = "{609.31, 127.69}";
type = Stem;
},
{
horizontal = 1;
place = "{921.8, 95.65}";
type = Stem;
},
{
place = "{150.39, 103.65}";
type = Stem;
},
{
horizontal = 1;
place = "{795, 76.3}";
type = Stem;
},
{
place = "{220.34, 106.5}";
type = Stem;
},
{
place = "{82.94, 102.15}";
type = Stem;
},
{
place = "{127.87, 151.2}";
type = Stem;
}
);
layerId = "37B3F0A2-20CC-4AE3-B6A0-1D169A898E63";
paths = (
{
closed = 1;
nodes = (
"357.5 0 LINE",
"357.5 127.69 LINE",
"278.42 127.69 LINE",
"279.73 609.31 LINE",
"357.5 609.31 LINE",
"357.5 737 LINE",
"50 737 LINE",
"50 609.31 LINE",
"127.55 609.31 LINE",
"128.2 127.69 LINE",
"50 127.69 LINE",
"50 0 LINE"
);
},
{
closed = 1;
nodes = (
"254.04 795 LINE",
"254.04 835.3 LINE",
"326.84 883.25 LINE",
"326.84 972.7 LINE",
"280.04 1017.45 LINE",
"129.74 1017.45 LINE",
"82.94 972.15 LINE",
"82.94 921.8 LINE",
"185.09 921.8 LINE",
"185.09 946.75 LINE",
"220.34 946.75 LINE",
"220.34 920.15 LINE",
"150.39 871.3 LINE",
"150.39 795 LINE"
);
}
);
width = 408;
}
);
leftKerningGroup = B;
note = uni1EC8;
rightKerningGroup = H;
unicode = 1EC8;
},
{
glyphname = uni020A;
lastChange = "2019-09-03 20:00:58 +0000";
layers = (
{
hints = (
{
horizontal = 1;
place = "{0, 127.69}";
type = Stem;
},
{
horizontal = 1;
place = "{609.31, 127.69}";
type = Stem;
},
{
horizontal = 1;
place = "{856.44, 85.56}";
type = Stem;
},
{
place = "{127.87, 151.2}";
type = Stem;
},
{
place = "{31.62, 106.19}";
type = Stem;
},
{
horizontal = 1;
place = "{795, 73.31}";
type = Stem;
},
{
place = "{269.69, 106.18}";
type = Stem;
}
);
layerId = "37B3F0A2-20CC-4AE3-B6A0-1D169A898E63";
paths = (
{
closed = 1;
nodes = (
"357.5 0 LINE",
"357.5 127.69 LINE",
"278.42 127.69 LINE",
"279.73 609.31 LINE",
"357.5 609.31 LINE",
"357.5 737 LINE",
"50 737 LINE",
"50 609.31 LINE",
"127.55 609.31 LINE",
"128.2 127.69 LINE",
"50 127.69 LINE",
"50 0 LINE"
);
},
{
closed = 1;
nodes = (
"137.81 795 LINE",
"137.81 839.5 LINE",
"155.25 856.44 LINE",
"252.25 856.44 LINE",
"269.69 839.5 LINE",
"269.69 795 LINE",
"375.87 795 LINE",
"375.87 868.31 LINE",
"298.19 942 LINE",
"108.81 942 LINE",
"31.62 868.31 LINE",
"31.62 795 LINE"
);
}
);
width = 408;
}
);
leftKerningGroup = B;
note = uni020A;
rightKerningGroup = H;
unicode = 020A;
},
{
glyphname = Imacron;
lastChange = "2019-09-03 20:00:58 +0000";
layers = (
{
hints = (
{
horizontal = 1;
place = "{0, 127.69}";
type = Stem;
},
{
horizontal = 1;
place = "{609.31, 127.69}";
type = Stem;
},
{
horizontal = 1;
place = "{794.62, 104.07}";
type = Stem;
},
{
place = "{127.87, 151.2}";
type = Stem;
}
);
layerId = "37B3F0A2-20CC-4AE3-B6A0-1D169A898E63";
paths = (
{
closed = 1;
nodes = (
"357.5 0 LINE",
"357.5 127.69 LINE",
"278.42 127.69 LINE",
"279.73 609.31 LINE",
"357.5 609.31 LINE",
"357.5 737 LINE",
"50 737 LINE",
"50 609.31 LINE",
"127.55 609.31 LINE",
"128.2 127.69 LINE",
"50 127.69 LINE",
"50 0 LINE"
);
},
{
closed = 1;
nodes = (
"415.25 794.62 LINE",
"415.25 898.69 LINE",
"-7.75 898.69 LINE",
"-7.75 794.62 LINE"
);
}
);
width = 408;
}
);
leftKerningGroup = B;
note = Imacron;
rightKerningGroup = H;
unicode = 012A;
},
{
glyphname = Iogonek;
lastChange = "2019-09-03 20:00:58 +0000";
layers = (
{
hints = (
{
horizontal = 1;
place = "{-175.81, 91.68}";
type = Stem;
},
{
horizontal = 1;
place = "{0, 127.69}";
type = Stem;
},
{
horizontal = 1;
place = "{609.31, 127.69}";
type = Stem;
},
{
place = "{127.87, 151.2}";
type = Stem;
},
{
place = "{224.62, 132.88}";
type = Stem;
}
);
layerId = "37B3F0A2-20CC-4AE3-B6A0-1D169A898E63";
paths = (
{
closed = 1;
nodes = (
"357.5 -175.81 LINE",
"357.5 -84.13 LINE",
"334.06 -84.13 LINE",
"314.06 -64.63 LINE",
"314.06 -35.75 LINE",
"357.5 0 LINE",
"357.5 127.69 LINE",
"278.42 127.69 LINE",
"279.73 609.31 LINE",
"357.5 609.31 LINE",
"357.5 737 LINE",
"50 737 LINE",
"50 609.31 LINE",
"127.55 609.31 LINE",
"128.2 127.69 LINE",
"50 127.69 LINE",
"50 0 LINE",
"269.69 0 LINE",
"224.62 -33 LINE",
"224.62 -110.88 LINE",
"292.56 -175.81 LINE"
);
}
);
width = 408;
}
);
leftKerningGroup = B;
note = Iogonek;
rightKerningGroup = H;
unicode = 012E;
},
{
glyphname = Itilde;
lastChange = "2019-09-03 20:00:58 +0000";
layers = (
{
hints = (
{
horizontal = 1;
place = "{0, 127.69}";
type = Stem;
},
{
horizontal = 1;
place = "{609.31, 127.69}";
type = Stem;
},
{
horizontal = 1;
place = "{794.62, 86.94}";
type = Stem;
},
{
place = "{127.87, 151.2}";
type = Stem;
},
{
place = "{318.94, 97.68}";
type = Stem;
},
{
horizontal = 1;
place = "{859.12, 84.94}";
type = Stem;
},
{
place = "{-2.13, 97.44}";
type = Stem;
}
);
layerId = "37B3F0A2-20CC-4AE3-B6A0-1D169A898E63";
paths = (
{
closed = 1;
nodes = (
"357.5 0 LINE",
"357.5 127.69 LINE",
"278.42 127.69 LINE",
"279.73 609.31 LINE",
"357.5 609.31 LINE",
"357.5 737 LINE",
"50 737 LINE",
"50 609.31 LINE",
"127.55 609.31 LINE",
"128.2 127.69 LINE",
"50 127.69 LINE",
"50 0 LINE"
);
},
{
closed = 1;
nodes = (
"349.12 794.62 LINE",
"416.12 864.12 LINE",
"417.12 939.37 LINE",
"318.94 939.37 LINE",
"318.94 912.69 LINE",
"294.37 881.56 LINE",
"268.94 881.56 LINE",
"210.81 944.06 LINE",
"65.12 944.06 LINE",
"-1.38 876 LINE",
"-2.88 799.75 LINE",
"95.31 799.75 LINE",
"95.31 825.44 LINE",
"119.87 859.12 LINE",
"145.31 859.12 LINE",
"203.44 794.62 LINE"
);
}
);
width = 408;
}
);
leftKerningGroup = B;
note = Itilde;
rightKerningGroup = H;
unicode = 0128;
},
{
glyphname = J;
lastChange = "2019-09-03 20:00:58 +0000";
layers = (
{
hints = (
{
horizontal = 1;
place = "{0, 125.97}";
type = Stem;
},
{
place = "{35, 156.25}";
type = Stem;
},
{
place = "{403.62, 156.13}";
type = Stem;
}
);
layerId = "37B3F0A2-20CC-4AE3-B6A0-1D169A898E63";
paths = (
{
closed = 1;
nodes = (
"448.75 0 LINE",
"559.75 111.06 LINE",
"559.75 737 LINE",
"403.56 737 LINE",
"403.69 165.5 LINE",
"364.06 126.06 LINE",
"230.69 125.87 LINE",
"191.31 165.5 LINE",
"191.19 297.75 LINE",
"35 297.75 LINE",
"35 111.06 LINE",
"146 0 LINE"
);
}
);
width = 635;
}
);
leftKerningGroup = J;
note = J;
unicode = 004A;
},
{
glyphname = Jcircumflex;
lastChange = "2019-09-03 20:00:58 +0000";
layers = (
{
hints = (
{
horizontal = 1;
place = "{0, 125.97}";
type = Stem;
},
{
horizontal = 1;
place = "{794.62, 147.5}";
type = Stem;
},
{
place = "{35, 156.25}";
type = Stem;
},
{
place = "{403.62, 156.13}";
type = Stem;
}
);
layerId = "37B3F0A2-20CC-4AE3-B6A0-1D169A898E63";
paths = (
{
closed = 1;
nodes = (
"448.75 0 LINE",
"559.75 111.06 LINE",
"559.75 737 LINE",
"403.56 737 LINE",
"403.69 165.5 LINE",
"364.06 126.06 LINE",
"230.69 125.87 LINE",
"191.31 165.5 LINE",
"191.19 297.75 LINE",
"35 297.75 LINE",
"35 111.06 LINE",
"146 0 LINE"
);
},
{
closed = 1;
nodes = (
"412.87 794.62 LINE",
"481.94 864.69 LINE",
"550.5 794.62 LINE",
"672.06 794.62 LINE",
"563.31 942.12 LINE",
"400.56 942.12 LINE",
"291.81 794.62 LINE"
);
}
);
width = 635;
}
);
note = Jcircumflex;
unicode = 0134;
},
{
glyphname = K;
lastChange = "2019-09-30 12:17:11 +0000";
layers = (
{
hints = (
{
horizontal = 1;
place = "{0, 737}";
type = Stem;
},
{
place = "{75, 156.2}";
type = Stem;
}
);
layerId = "37B3F0A2-20CC-4AE3-B6A0-1D169A898E63";
paths = (
{
closed = 1;
nodes = (
"231.2 0 LINE",
"231.2 196.2 LINE",
"321.4 304.15 LINE",
"507.72 0 LINE",
"683.1 0 LINE",
"417.43 419.07 LINE",
"683.1 737 LINE",
"505.91 737 LINE",
"231 406 LINE",
"231.2 737 LINE",
"75 737 LINE",
"75 0 LINE"
);
}
);
width = 686;
}
);
leftKerningGroup = B;
note = K;
rightKerningGroup = K;
unicode = 004B;
},
{
glyphname = uni0136;
lastChange = "2019-09-30 12:17:17 +0000";
layers = (
{
hints = (
{
horizontal = 1;
place = "{-239.88, 182.75}";
type = Stem;
},
{
place = "{75, 156.2}";
type = Stem;
}
);
layerId = "37B3F0A2-20CC-4AE3-B6A0-1D169A898E63";
paths = (
{
closed = 1;
nodes = (
"327.89 -239.88 LINE",
"430.57 -57.13 LINE",
"285.2 -57.13 LINE",
"241.39 -239.88 LINE"
);
},
{
closed = 1;
nodes = (
"231.2 0 LINE",
"231.2 196.2 LINE",
"321.4 304.15 LINE",
"507.72 0 LINE",
"683.1 0 LINE",
"417.43 419.07 LINE",
"683.1 737 LINE",
"505.91 737 LINE",
"231 406 LINE",
"231.2 737 LINE",
"75 737 LINE",
"75 0 LINE"
);
}
);
width = 686;
}
);
leftKerningGroup = B;
note = uni0136;
rightKerningGroup = K;
unicode = 0136;
},
{
glyphname = L;
lastChange = "2019-09-03 20:00:58 +0000";
layers = (
{
hints = (
{
horizontal = 1;
place = "{0, 133.19}";
type = Stem;
},
{
place = "{75, 156.2}";
type = Stem;
}
);
layerId = "37B3F0A2-20CC-4AE3-B6A0-1D169A898E63";
paths = (
{
closed = 1;
nodes = (
"578.47 0 LINE",
"578.47 133.19 LINE",
"231.2 133.19 LINE",
"231.2 737 LINE",
"75 737 LINE",
"75 0 LINE"
);
}
);
width = 591;
}
);
leftKerningGroup = B;
note = L;
rightKerningGroup = L;
unicode = 004C;
},
{
glyphname = uni01C7;
lastChange = "2019-09-03 20:00:58 +0000";
layers = (
{
hints = (
{
horizontal = 1;
place = "{0, 133.19}";
type = Stem;
},
{
place = "{75, 156.2}";
type = Stem;
},
{
place = "{642.62, 156.25}";
type = Stem;
},
{
place = "{1011.25, 156.12}";
type = Stem;
}
);
layerId = "37B3F0A2-20CC-4AE3-B6A0-1D169A898E63";
paths = (
{
closed = 1;
nodes = (
"1056.37 0 LINE",
"1167.37 111.06 LINE",
"1167.37 737 LINE",
"1011.19 737 LINE",
"1011.31 165.5 LINE",
"971.69 126.06 LINE",
"838.31 125.87 LINE",
"798.94 165.5 LINE",
"798.81 297.75 LINE",
"642.62 297.75 LINE",
"642.62 111.06 LINE",
"753.62 0 LINE"
);
},
{
closed = 1;
nodes = (
"578.47 0 LINE",
"578.47 133.19 LINE",
"231.2 133.19 LINE",
"231.2 737 LINE",
"75 737 LINE",
"75 0 LINE"
);
}
);
width = 1242;
}
);
leftKerningGroup = B;
note = uni01C7;
unicode = 01C7;
},
{
glyphname = Lacute;
lastChange = "2019-09-03 20:00:58 +0000";
layers = (
{
hints = (
{
horizontal = 1;
place = "{0, 133.19}";
type = Stem;
},
{
horizontal = 1;
place = "{794.62, 155.5}";
type = Stem;
},
{
place = "{75, 156.2}";
type = Stem;
}
);
layerId = "37B3F0A2-20CC-4AE3-B6A0-1D169A898E63";
paths = (
{
closed = 1;
nodes = (
"578.47 0 LINE",
"578.47 133.19 LINE",
"231.2 133.19 LINE",
"231.2 737 LINE",
"75 737 LINE",
"75 0 LINE"
);
},
{
closed = 1;
nodes = (
"216.16 794.62 LINE",
"360.47 950.12 LINE",
"200.16 950.12 LINE",
"97.1 794.62 LINE"
);
}
);
width = 591;
}
);
leftKerningGroup = B;
note = Lacute;
rightKerningGroup = L;
unicode = 0139;
},
{
glyphname = Lcaron;
lastChange = "2019-09-03 20:00:58 +0000";
layers = (
{
hints = (
{
horizontal = 1;
place = "{0, 133.19}";
type = Stem;
},
{
horizontal = 1;
place = "{554.25, 182.75}";
type = Stem;
},
{
place = "{75, 156.2}";
type = Stem;
}
);
layerId = "37B3F0A2-20CC-4AE3-B6A0-1D169A898E63";
paths = (
{
closed = 1;
nodes = (
"578.47 0 LINE",
"578.47 133.19 LINE",
"231.2 133.19 LINE",
"231.2 737 LINE",
"75 737 LINE",
"75 0 LINE"
);
},
{
closed = 1;
nodes = (
"424.35 554.25 LINE",
"527.04 737 LINE",
"381.66 737 LINE",
"337.85 554.25 LINE"
);
}
);
width = 591;
}
);
leftKerningGroup = B;
note = Lcaron;
rightKerningGroup = L;
unicode = 013D;
},
{
glyphname = uni013B;
lastChange = "2019-09-03 20:00:58 +0000";
layers = (
{
hints = (
{
horizontal = 1;
place = "{-239.88, 182.75}";
type = Stem;
},
{
horizontal = 1;
place = "{0, 133.19}";
type = Stem;
},
{
place = "{75, 156.2}";
type = Stem;
}
);
layerId = "37B3F0A2-20CC-4AE3-B6A0-1D169A898E63";
paths = (
{
closed = 1;
nodes = (
"578.47 0 LINE",
"578.47 133.19 LINE",
"231.2 133.19 LINE",
"231.2 737 LINE",
"75 737 LINE",
"75 0 LINE"
);
},
{
closed = 1;
nodes = (
"291.89 -239.88 LINE",
"394.57 -57.13 LINE",
"249.2 -57.13 LINE",
"205.39 -239.88 LINE"
);
}
);
width = 591;
}
);
leftKerningGroup = B;
note = uni013B;
rightKerningGroup = L;
unicode = 013B;
},
{
glyphname = Ldot;
lastChange = "2019-09-03 20:00:58 +0000";
layers = (
{
hints = (
{
horizontal = 1;
place = "{0, 133.19}";
type = Stem;
},
{
horizontal = 1;
place = "{331.14, 141.19}";
type = Stem;
},
{
place = "{75, 156.2}";
type = Stem;
},
{
place = "{371.16, 145}";
type = Stem;
}
);
layerId = "37B3F0A2-20CC-4AE3-B6A0-1D169A898E63";
paths = (
{
closed = 1;
nodes = (
"578.47 0 LINE",
"578.47 133.19 LINE",
"231.2 133.19 LINE",
"231.2 737 LINE",
"75 737 LINE",
"75 0 LINE"
);
},
{
closed = 1;
nodes = (
"516.16 331.14 LINE",
"516.16 472.33 LINE",
"371.16 472.33 LINE",
"371.16 331.14 LINE"
);
}
);
width = 591;
}
);
leftKerningGroup = B;
note = Ldot;
rightKerningGroup = L;
unicode = 013F;
},
{
glyphname = uni01C8;
lastChange = "2019-09-30 13:23:29 +0000";
layers = (
{
hints = (
{
horizontal = 1;
place = "{-187, 109.5}";
type = Stem;
},
{
horizontal = 1;
place = "{0, 133.19}";
type = Stem;
},
{
horizontal = 1;
place = "{579.87, 132.69}";
type = Stem;
},
{
place = "{75, 156.2}";
type = Stem;
},
{
place = "{684, 153.75}";
type = Stem;
}
);
layerId = "37B3F0A2-20CC-4AE3-B6A0-1D169A898E63";
paths = (
{
closed = 1;
nodes = (
"578.47 0 LINE",
"578.47 133.19 LINE",
"231.2 133.19 LINE",
"231.2 737 LINE",
"75 737 LINE",
"75 0 LINE"
);
},
{
closed = 1;
nodes = (
"734.75 -187 LINE",
"838 -89 LINE",
"838 522.25 LINE",
"684 522.25 LINE",
"684 -42.56 LINE",
"649.62 -77.5 LINE",
"574.25 -77.5 LINE",
"574.25 -187 LINE"
);
},
{
closed = 1;
nodes = (
"838 579.87 LINE",
"838 712.56 LINE",
"684 712.56 LINE",
"684 579.87 LINE"
);
}
);
width = 908;
}
);
leftKerningGroup = B;
note = uni01C8;
rightKerningGroup = uni01C8;
unicode = 01C8;
},
{
glyphname = Lslash;
lastChange = "2019-09-03 20:00:58 +0000";
layers = (
{
hints = (
{
horizontal = 1;
place = "{0, 133.19}";
type = Stem;
},
{
place = "{88.81, 156.2}";
type = Stem;
}
);
layerId = "37B3F0A2-20CC-4AE3-B6A0-1D169A898E63";
paths = (
{
closed = 1;
nodes = (
"592.28 0 LINE",
"592.28 133.19 LINE",
"245 133.19 LINE",
"245 341.23 LINE",
"395.36 407.19 LINE",
"395.36 533.87 LINE",
"245 467.92 LINE",
"245 737 LINE",
"88.8 737 LINE",
"88.8 399.4 LINE",
"17.49 368.12 LINE",
"17.49 241.44 LINE",
"88.8 272.72 LINE",
"88.8 0 LINE"
);
}
);
width = 605;
}
);
leftKerningGroup = B;
note = Lslash;
rightKerningGroup = L;
unicode = 0141;
},
{
glyphname = M;
lastChange = "2019-09-03 20:00:58 +0000";
layers = (
{
hints = (
{
horizontal = 1;
place = "{0, 737}";
type = Stem;
},
{
place = "{74.48, 150.73}";
type = Stem;
},
{
place = "{666.92, 150.73}";
type = Stem;
}
);
layerId = "37B3F0A2-20CC-4AE3-B6A0-1D169A898E63";
paths = (
{
closed = 1;
nodes = (
"225.21 0 LINE",
"225.21 458.5 LINE",
"406.44 16 LINE",
"485.69 16 LINE",
"666.92 458.48 LINE",
"666.92 0 LINE",
"817.65 0 LINE",
"817.65 737 LINE",
"646.69 737 LINE",
"446.07 245.69 LINE",
"245.44 737 LINE",
"74.48 737 LINE",
"74.48 0 LINE"
);
}
);
width = 892;
}
);
leftKerningGroup = B;
note = M;
rightKerningGroup = H;
unicode = 004D;
},
{
glyphname = N;
lastChange = "2019-09-03 20:00:58 +0000";
layers = (
{
hints = (
{
horizontal = 1;
place = "{0, 737}";
type = Stem;
},
{
place = "{74.48, 150.73}";
type = Stem;
},
{
place = "{527.04, 150.74}";
type = Stem;
},
{
horizontal = 1;
place = "{473.37, 263.63}";
type = Stem;
}
);
layerId = "37B3F0A2-20CC-4AE3-B6A0-1D169A898E63";
paths = (
{
closed = 1;
nodes = (
"225.21 0 LINE",
"225.21 473.37 LINE",
"254.51 473.37 LINE",
"521.82 0 LINE",
"677.78 0 LINE",
"677.78 737 LINE",
"527.04 737 LINE",
"527.04 259.5 LINE",
"257.01 737 LINE",
"74.48 737 LINE",
"74.48 0 LINE"
);
}
);
width = 752;
}
);
leftKerningGroup = B;
note = N;
rightKerningGroup = H;
unicode = 004E;
},
{
glyphname = uni01CA;
lastChange = "2019-09-03 20:00:58 +0000";
layers = (
{
hints = (
{
horizontal = 1;
place = "{0, 125.97}";
type = Stem;
},
{
horizontal = 1;
place = "{473.37, 263.63}";
type = Stem;
},
{
place = "{74.48, 150.73}";
type = Stem;
},
{
place = "{527.04, 150.74}";
type = Stem;
},
{
place = "{806.81, 156.25}";
type = Stem;
},
{
place = "{1175.43, 156.13}";
type = Stem;
}
);
layerId = "37B3F0A2-20CC-4AE3-B6A0-1D169A898E63";
paths = (
{
closed = 1;
nodes = (
"225.21 0 LINE",
"225.21 473.37 LINE",
"254.51 473.37 LINE",
"521.82 0 LINE",
"677.78 0 LINE",
"677.78 737 LINE",
"527.04 737 LINE",
"527.04 259.5 LINE",
"257.01 737 LINE",
"74.48 737 LINE",
"74.48 0 LINE"
);
},
{
closed = 1;
nodes = (
"1220.56 0 LINE",
"1331.56 111.06 LINE",
"1331.56 737 LINE",
"1175.37 737 LINE",
"1175.5 165.5 LINE",
"1135.87 126.06 LINE",
"1002.5 125.87 LINE",
"963.12 165.5 LINE",
"963 297.75 LINE",
"806.81 297.75 LINE",
"806.81 111.06 LINE",
"917.81 0 LINE"
);
}
);
width = 1407;
}
);
leftKerningGroup = B;
note = uni01CA;
unicode = 01CA;
},
{
glyphname = Nacute;
lastChange = "2019-09-03 20:00:58 +0000";
layers = (
{
hints = (
{
horizontal = 1;
place = "{473.37, 263.63}";
type = Stem;
},
{
horizontal = 1;
place = "{794.62, 155.5}";
type = Stem;
},
{
place = "{74.48, 150.73}";
type = Stem;
},
{
place = "{527.04, 150.74}";
type = Stem;
}
);
layerId = "37B3F0A2-20CC-4AE3-B6A0-1D169A898E63";
paths = (
{
closed = 1;
nodes = (
"225.21 0 LINE",
"225.21 473.37 LINE",
"254.51 473.37 LINE",
"521.82 0 LINE",
"677.78 0 LINE",
"677.78 737 LINE",
"527.04 737 LINE",
"527.04 259.5 LINE",
"257.01 737 LINE",
"74.48 737 LINE",
"74.48 0 LINE"
);
},
{
closed = 1;
nodes = (
"433.57 794.62 LINE",
"577.88 950.12 LINE",
"417.57 950.12 LINE",
"314.51 794.62 LINE"
);
}
);
width = 752;
}
);
leftKerningGroup = B;
note = Nacute;
rightKerningGroup = H;
unicode = 0143;
},
{
glyphname = Ncaron;
lastChange = "2019-09-03 20:00:58 +0000";
layers = (
{
hints = (
{
horizontal = 1;
place = "{473.37, 263.63}";
type = Stem;
},
{
horizontal = 1;
place = "{794.62, 147.5}";
type = Stem;
},
{
place = "{74.48, 150.73}";
type = Stem;
},
{
place = "{527.04, 150.74}";
type = Stem;
}
);
layerId = "37B3F0A2-20CC-4AE3-B6A0-1D169A898E63";
paths = (
{
closed = 1;
nodes = (
"225.21 0 LINE",
"225.21 473.37 LINE",
"254.51 473.37 LINE",
"521.82 0 LINE",
"677.78 0 LINE",
"677.78 737 LINE",
"527.04 737 LINE",
"527.04 259.5 LINE",
"257.01 737 LINE",
"74.48 737 LINE",
"74.48 0 LINE"
);
},
{
closed = 1;
nodes = (
"451.69 794.62 LINE",
"560.44 942.12 LINE",
"438.88 942.12 LINE",
"370.32 872.06 LINE",
"301.26 942.12 LINE",
"180.19 942.12 LINE",
"288.94 794.62 LINE"
);
}
);
width = 752;
}
);
leftKerningGroup = B;
note = Ncaron;
rightKerningGroup = H;
unicode = 0147;
},
{
glyphname = uni0145;
lastChange = "2019-09-03 20:00:58 +0000";
layers = (
{
hints = (
{
horizontal = 1;
place = "{-239.88, 182.75}";
type = Stem;
},
{
horizontal = 1;
place = "{473.37, 263.63}";
type = Stem;
},
{
place = "{74.48, 150.73}";
type = Stem;
},
{
place = "{527.04, 150.74}";
type = Stem;
}
);
layerId = "37B3F0A2-20CC-4AE3-B6A0-1D169A898E63";
paths = (
{
closed = 1;
nodes = (
"225.21 0 LINE",
"225.21 473.37 LINE",
"254.51 473.37 LINE",
"521.82 0 LINE",
"677.78 0 LINE",
"677.78 737 LINE",
"527.04 737 LINE",
"527.04 259.5 LINE",
"257.01 737 LINE",
"74.48 737 LINE",
"74.48 0 LINE"
);
},
{
closed = 1;
nodes = (
"334.05 -239.88 LINE",
"436.74 -57.13 LINE",
"291.36 -57.13 LINE",
"247.55 -239.88 LINE"
);
}
);
width = 752;
}
);
leftKerningGroup = B;
note = uni0145;
rightKerningGroup = H;
unicode = 0145;
},
{
glyphname = Eng;
lastChange = "2019-09-03 20:02:22 +0000";
layers = (
{
hints = (
{
horizontal = 1;
place = "{-187, 104}";
type = Stem;
},
{
horizontal = 1;
place = "{473.37, 263.63}";
type = Stem;
},
{
place = "{74.48, 150.73}";
type = Stem;
},
{
place = "{527.04, 150.73}";
type = Stem;
}
);
layerId = "37B3F0A2-20CC-4AE3-B6A0-1D169A898E63";
paths = (
{
closed = 1;
nodes = (
"574.14 -187 LINE",
"678 -89 LINE",
"677.77 737 LINE",
"527.04 737 LINE",
"527.04 259.5 LINE",
"257 737 LINE",
"74.48 737 LINE",
"74.48 0 LINE",
"225.21 0 LINE",
"225.21 473.37 LINE",
"254.5 473.37 LINE",
"521.82 0 LINE",
"522.01 -48.06 LINE",
"488.7 -83 LINE",
"423.7 -83 LINE",
"423.7 -187 LINE"
);
}
);
width = 752;
}
);
leftKerningGroup = B;
note = Eng;
rightKerningGroup = H;
unicode = 014A;
},
{
glyphname = uni01CB;
lastChange = "2019-09-30 13:23:44 +0000";
layers = (
{
hints = (
{
horizontal = 1;
place = "{-187, 109.5}";
type = Stem;
},
{
horizontal = 1;
place = "{579.87, 132.69}";
type = Stem;
},
{
place = "{74.48, 150.73}";
type = Stem;
},
{
place = "{527.04, 150.74}";
type = Stem;
},
{
place = "{849.19, 153.75}";
type = Stem;
},
{
horizontal = 1;
place = "{473.37, 263.63}";
type = Stem;
}
);
layerId = "37B3F0A2-20CC-4AE3-B6A0-1D169A898E63";
paths = (
{
closed = 1;
nodes = (
"225.21 0 LINE",
"225.21 473.37 LINE",
"254.51 473.37 LINE",
"521.82 0 LINE",
"677.78 0 LINE",
"677.78 737 LINE",
"527.04 737 LINE",
"527.04 259.5 LINE",
"257.01 737 LINE",
"74.48 737 LINE",
"74.48 0 LINE"
);
},
{
closed = 1;
nodes = (
"899.94 -187 LINE",
"1003.19 -89 LINE",
"1003.19 522.25 LINE",
"849.19 522.25 LINE",
"849.19 -42.56 LINE",
"814.81 -77.5 LINE",
"739.44 -77.5 LINE",
"739.44 -187 LINE"
);
},
{
closed = 1;
nodes = (
"1003.19 579.87 LINE",
"1003.19 712.56 LINE",
"849.19 712.56 LINE",
"849.19 579.87 LINE"
);
}
);
width = 1073;
}
);
leftKerningGroup = B;
note = uni01CB;
rightKerningGroup = uni01C8;
unicode = 01CB;
},
{
glyphname = Ntilde;
lastChange = "2019-09-03 20:00:58 +0000";
layers = (
{
hints = (
{
horizontal = 1;
place = "{859.12, 84.94}";
type = Stem;
},
{
place = "{164.44, 97.44}";
type = Stem;
},
{
place = "{527.04, 150.74}";
type = Stem;
},
{
horizontal = 1;
place = "{794.62, 86.94}";
type = Stem;
},
{
place = "{74.48, 150.73}";
type = Stem;
},
{
place = "{485.51, 97.68}";
type = Stem;
},
{
horizontal = 1;
place = "{473.37, 263.63}";
type = Stem;
}
);
layerId = "37B3F0A2-20CC-4AE3-B6A0-1D169A898E63";
paths = (
{
closed = 1;
nodes = (
"225.21 0 LINE",
"225.21 473.37 LINE",
"254.51 473.37 LINE",
"521.82 0 LINE",
"677.78 0 LINE",
"677.78 737 LINE",
"527.04 737 LINE",
"527.04 259.5 LINE",
"257.01 737 LINE",
"74.48 737 LINE",
"74.48 0 LINE"
);
},
{
closed = 1;
nodes = (
"515.69 794.62 LINE",
"582.69 864.12 LINE",
"583.69 939.37 LINE",
"485.51 939.37 LINE",
"485.51 912.69 LINE",
"460.94 881.56 LINE",
"435.51 881.56 LINE",
"377.38 944.06 LINE",
"231.69 944.06 LINE",
"165.19 876 LINE",
"163.69 799.75 LINE",
"261.88 799.75 LINE",
"261.88 825.44 LINE",
"286.44 859.12 LINE",
"311.88 859.12 LINE",
"370.01 794.62 LINE"
);
}
);
width = 752;
}
);
leftKerningGroup = B;
note = Ntilde;
rightKerningGroup = H;
unicode = 00D1;
},
{
glyphname = O;
lastChange = "2019-09-03 20:00:58 +0000";
layers = (
{
hints = (
{
horizontal = 1;
place = "{0, 126.03}";
type = Stem;
},
{
horizontal = 1;
place = "{610.97, 126.03}";
type = Stem;
},
{
place = "{55, 156.18}";
type = Stem;
},
{
place = "{517.78, 155.72}";
type = Stem;
}
);
layerId = "37B3F0A2-20CC-4AE3-B6A0-1D169A898E63";
paths = (
{
closed = 1;
nodes = (
"562.44 0 LINE",
"673.5 111.06 LINE",
"673.5 625.94 LINE",
"562.44 737 LINE",
"166.06 737 LINE",
"55 625.94 LINE",
"55 111.06 LINE",
"166.06 0 LINE"
);
},
{
closed = 1;
nodes = (
"211.31 165.5 LINE",
"211.06 571.5 LINE",
"251.19 610.87 LINE",
"477.25 611.06 LINE",
"517.69 571.5 LINE",
"517.87 165.56 LINE",
"478.31 126.12 LINE",
"251.25 125.94 LINE"
);
}
);
width = 729;
}
);
leftKerningGroup = C;
note = O;
rightKerningGroup = O;
unicode = 004F;
},
{
glyphname = Oacute;
lastChange = "2019-09-03 20:00:58 +0000";
layers = (
{
hints = (
{
horizontal = 1;
place = "{0, 126.03}";
type = Stem;
},
{
horizontal = 1;
place = "{610.97, 126.03}";
type = Stem;
},
{
horizontal = 1;
place = "{794.62, 155.5}";
type = Stem;
},
{
place = "{55, 156.18}";
type = Stem;
},
{
place = "{517.78, 155.72}";
type = Stem;
}
);
layerId = "37B3F0A2-20CC-4AE3-B6A0-1D169A898E63";
paths = (
{
closed = 1;
nodes = (
"562.44 0 LINE",
"673.5 111.06 LINE",
"673.5 625.94 LINE",
"562.44 737 LINE",
"166.06 737 LINE",
"55 625.94 LINE",
"55 111.06 LINE",
"166.06 0 LINE"
);
},
{
closed = 1;
nodes = (
"211.31 165.5 LINE",
"211.06 571.5 LINE",
"251.19 610.87 LINE",
"477.25 611.06 LINE",
"517.69 571.5 LINE",
"517.87 165.56 LINE",
"478.31 126.12 LINE",
"251.25 125.94 LINE"
);
},
{
closed = 1;
nodes = (
"427.5 794.62 LINE",
"571.81 950.12 LINE",
"411.5 950.12 LINE",
"308.44 794.62 LINE"
);
}
);
width = 729;
}
);
leftKerningGroup = C;
note = Oacute;
rightKerningGroup = O;
unicode = 00D3;
},
{
glyphname = Obreve;
lastChange = "2019-09-03 20:00:58 +0000";
layers = (
{
hints = (
{
horizontal = 1;
place = "{0, 126.03}";
type = Stem;
},
{
horizontal = 1;
place = "{610.97, 126.03}";
type = Stem;
},
{
horizontal = 1;
place = "{794.62, 86}";
type = Stem;
},
{
place = "{55, 156.18}";
type = Stem;
},
{
place = "{517.78, 155.72}";
type = Stem;
},
{
place = "{430.19, 106.18}";
type = Stem;
},
{
horizontal = 1;
place = "{868.25, 73.87}";
type = Stem;
},
{
place = "{192.12, 106.19}";
type = Stem;
}
);
layerId = "37B3F0A2-20CC-4AE3-B6A0-1D169A898E63";
paths = (
{
closed = 1;
nodes = (
"562.44 0 LINE",
"673.5 111.06 LINE",
"673.5 625.94 LINE",
"562.44 737 LINE",
"166.06 737 LINE",
"55 625.94 LINE",
"55 111.06 LINE",
"166.06 0 LINE"
);
},
{
closed = 1;
nodes = (
"211.31 165.5 LINE",
"211.06 571.5 LINE",
"251.19 610.87 LINE",
"477.25 611.06 LINE",
"517.69 571.5 LINE",
"517.87 165.56 LINE",
"478.31 126.12 LINE",
"251.25 125.94 LINE"
);
},
{
closed = 1;
nodes = (
"458.69 794.62 LINE",
"536.37 868.25 LINE",
"536.37 942.12 LINE",
"430.19 942.12 LINE",
"430.19 897.62 LINE",
"412.75 880.62 LINE",
"315.75 880.62 LINE",
"298.31 897.62 LINE",
"298.31 942.12 LINE",
"192.12 942.12 LINE",
"192.12 868.25 LINE",
"269.31 794.62 LINE"
);
}
);
width = 729;
}
);
leftKerningGroup = C;
note = Obreve;
rightKerningGroup = O;
unicode = 014E;
},
{
glyphname = Ocircumflex;
lastChange = "2019-09-03 20:00:58 +0000";
layers = (
{
hints = (
{
horizontal = 1;
place = "{0, 126.03}";
type = Stem;
},
{
horizontal = 1;
place = "{610.97, 126.03}";
type = Stem;
},
{
horizontal = 1;
place = "{794.62, 147.5}";
type = Stem;
},
{
place = "{55, 156.18}";
type = Stem;
},
{
place = "{517.78, 155.72}";
type = Stem;
}
);
layerId = "37B3F0A2-20CC-4AE3-B6A0-1D169A898E63";
paths = (
{
closed = 1;
nodes = (
"562.44 0 LINE",
"673.5 111.06 LINE",
"673.5 625.94 LINE",
"562.44 737 LINE",
"166.06 737 LINE",
"55 625.94 LINE",
"55 111.06 LINE",
"166.06 0 LINE"
);
},
{
closed = 1;
nodes = (
"211.31 165.5 LINE",
"211.06 571.5 LINE",
"251.19 610.87 LINE",
"477.25 611.06 LINE",
"517.69 571.5 LINE",
"517.87 165.56 LINE",
"478.31 126.12 LINE",
"251.25 125.94 LINE"
);
},
{
closed = 1;
nodes = (
"295.19 794.62 LINE",
"364.25 864.69 LINE",
"432.81 794.62 LINE",
"554.37 794.62 LINE",
"445.62 942.12 LINE",
"282.87 942.12 LINE",
"174.12 794.62 LINE"
);
}
);
width = 729;
}
);
leftKerningGroup = C;
note = Ocircumflex;
rightKerningGroup = O;
unicode = 00D4;
},
{
glyphname = uni1ED0;
lastChange = "2019-09-03 20:00:58 +0000";
layers = (
{
hints = (
{
horizontal = 1;
place = "{0, 126.03}";
type = Stem;
},
{
horizontal = 1;
place = "{610.97, 126.03}";
type = Stem;
},
{
horizontal = 1;
place = "{876.74, 155.5}";
type = Stem;
},
{
place = "{55, 156.18}";
type = Stem;
},
{
place = "{517.78, 155.72}";
type = Stem;
},
{
horizontal = 1;
place = "{794.62, 147.5}";
type = Stem;
}
);
layerId = "37B3F0A2-20CC-4AE3-B6A0-1D169A898E63";
paths = (
{
closed = 1;
nodes = (
"562.44 0 LINE",
"673.5 111.06 LINE",
"673.5 625.94 LINE",
"562.44 737 LINE",
"166.06 737 LINE",
"55 625.94 LINE",
"55 111.06 LINE",
"166.06 0 LINE"
);
},
{
closed = 1;
nodes = (
"211.31 165.5 LINE",
"211.06 571.5 LINE",
"251.19 610.87 LINE",
"477.25 611.06 LINE",
"517.69 571.5 LINE",
"517.87 165.56 LINE",
"478.31 126.12 LINE",
"251.25 125.94 LINE"
);
},
{
closed = 1;
nodes = (
"295.69 794.62 LINE",
"364.25 864.69 LINE",
"433.31 794.62 LINE",
"554.37 794.62 LINE",
"445.62 942.12 LINE",
"282.87 942.12 LINE",
"174.12 794.62 LINE"
);
},
{
closed = 1;
nodes = (
"657.75 876.74 LINE",
"802.06 1032.24 LINE",
"641.75 1032.24 LINE",
"538.69 876.74 LINE"
);
}
);
width = 729;
}
);
leftKerningGroup = C;
note = uni1ED0;
rightKerningGroup = O;
unicode = 1ED0;
},
{
glyphname = uni1ED8;
lastChange = "2019-09-03 20:00:58 +0000";
layers = (
{
hints = (
{
horizontal = 1;
place = "{-189.81, 132.68}";
type = Stem;
},
{
horizontal = 1;
place = "{0, 126.03}";
type = Stem;
},
{
horizontal = 1;
place = "{610.97, 126.03}";
type = Stem;
},
{
horizontal = 1;
place = "{794.62, 147.5}";
type = Stem;
},
{
place = "{55, 156.18}";
type = Stem;
},
{
place = "{287.25, 154}";
type = Stem;
},
{
place = "{517.78, 155.72}";
type = Stem;
}
);
layerId = "37B3F0A2-20CC-4AE3-B6A0-1D169A898E63";
paths = (
{
closed = 1;
nodes = (
"562.44 0 LINE",
"673.5 111.06 LINE",
"673.5 625.94 LINE",
"562.44 737 LINE",
"166.06 737 LINE",
"55 625.94 LINE",
"55 111.06 LINE",
"166.06 0 LINE"
);
},
{
closed = 1;
nodes = (
"441.25 -189.81 LINE",
"441.25 -57.13 LINE",
"287.25 -57.13 LINE",
"287.25 -189.81 LINE"
);
},
{
closed = 1;
nodes = (
"211.31 165.5 LINE",
"211.06 571.5 LINE",
"251.19 610.87 LINE",
"477.25 611.06 LINE",
"517.69 571.5 LINE",
"517.87 165.56 LINE",
"478.31 126.12 LINE",
"251.25 125.94 LINE"
);
},
{
closed = 1;
nodes = (
"295.19 794.62 LINE",
"364.25 864.69 LINE",
"432.81 794.62 LINE",
"554.37 794.62 LINE",
"445.62 942.12 LINE",
"282.87 942.12 LINE",
"174.12 794.62 LINE"
);
}
);
width = 729;
}
);
leftKerningGroup = C;
note = uni1ED8;
rightKerningGroup = O;
unicode = 1ED8;
},
{
glyphname = uni1ED2;
lastChange = "2019-09-03 20:00:58 +0000";
layers = (
{
hints = (
{
horizontal = 1;
place = "{0, 126.03}";
type = Stem;
},
{
horizontal = 1;
place = "{610.97, 126.03}";
type = Stem;
},
{
horizontal = 1;
place = "{876.76, 155.5}";
type = Stem;
},
{
place = "{55, 156.18}";
type = Stem;
},
{
place = "{517.78, 155.72}";
type = Stem;
},
{
horizontal = 1;
place = "{794.62, 147.5}";
type = Stem;
}
);
layerId = "37B3F0A2-20CC-4AE3-B6A0-1D169A898E63";
paths = (
{
closed = 1;
nodes = (
"562.44 0 LINE",
"673.5 111.06 LINE",
"673.5 625.94 LINE",
"562.44 737 LINE",
"166.06 737 LINE",
"55 625.94 LINE",
"55 111.06 LINE",
"166.06 0 LINE"
);
},
{
closed = 1;
nodes = (
"211.31 165.5 LINE",
"211.06 571.5 LINE",
"251.19 610.87 LINE",
"477.25 611.06 LINE",
"517.69 571.5 LINE",
"517.87 165.56 LINE",
"478.31 126.12 LINE",
"251.25 125.94 LINE"
);
},
{
closed = 1;
nodes = (
"189.81 876.76 LINE",
"86.75 1032.26 LINE",
"-73.56 1032.26 LINE",
"70.75 876.76 LINE"
);
},
{
closed = 1;
nodes = (
"295.19 794.62 LINE",
"364.25 864.69 LINE",
"432.81 794.62 LINE",
"554.37 794.62 LINE",
"445.62 942.12 LINE",
"282.87 942.12 LINE",
"174.12 794.62 LINE"
);
}
);
width = 729;
}
);
leftKerningGroup = C;
note = uni1ED2;
rightKerningGroup = O;
unicode = 1ED2;
},
{
glyphname = uni1ED4;
lastChange = "2019-09-03 20:00:58 +0000";
layers = (
{
hints = (
{
horizontal = 1;
place = "{0, 126.03}";
type = Stem;
},
{
horizontal = 1;
place = "{610.97, 126.03}";
type = Stem;
},
{
horizontal = 1;
place = "{794.62, 147.5}";
type = Stem;
},
{
horizontal = 1;
place = "{1003.89, 95.65}";
type = Stem;
},
{
place = "{55, 156.18}";
type = Stem;
},
{
place = "{522.33, 103.65}";
type = Stem;
},
{
place = "{454.88, 102.15}";
type = Stem;
},
{
place = "{592.28, 106.5}";
type = Stem;
},
{
place = "{517.78, 155.72}";
type = Stem;
}
);
layerId = "37B3F0A2-20CC-4AE3-B6A0-1D169A898E63";
paths = (
{
closed = 1;
nodes = (
"562.44 0 LINE",
"673.5 111.06 LINE",
"673.5 625.94 LINE",
"562.44 737 LINE",
"166.06 737 LINE",
"55 625.94 LINE",
"55 111.06 LINE",
"166.06 0 LINE"
);
},
{
closed = 1;
nodes = (
"211.31 165.5 LINE",
"211.06 571.5 LINE",
"251.19 610.87 LINE",
"477.25 611.06 LINE",
"517.69 571.5 LINE",
"517.87 165.56 LINE",
"478.31 126.12 LINE",
"251.25 125.94 LINE"
);
},
{
closed = 1;
nodes = (
"295.19 794.62 LINE",
"364.25 864.69 LINE",
"432.81 794.62 LINE",
"554.37 794.62 LINE",
"445.62 942.12 LINE",
"282.87 942.12 LINE",
"174.12 794.62 LINE"
);
},
{
closed = 1;
nodes = (
"625.98 877.09 LINE",
"625.98 917.39 LINE",
"698.78 965.34 LINE",
"698.78 1054.79 LINE",
"651.98 1099.54 LINE",
"501.68 1099.54 LINE",
"454.88 1054.24 LINE",
"454.88 1003.89 LINE",
"557.03 1003.89 LINE",
"557.03 1028.84 LINE",
"592.28 1028.84 LINE",
"592.28 1002.24 LINE",
"522.33 953.39 LINE",
"522.33 877.09 LINE"
);
}
);
width = 729;
}
);
leftKerningGroup = C;
note = uni1ED4;
rightKerningGroup = O;
unicode = 1ED4;
},
{
glyphname = uni1ED6;
lastChange = "2019-09-03 20:00:58 +0000";
layers = (
{
hints = (
{
horizontal = 1;
place = "{0, 126.03}";
type = Stem;
},
{
horizontal = 1;
place = "{610.97, 126.03}";
type = Stem;
},
{
horizontal = 1;
place = "{794.62, 147.5}";
type = Stem;
},
{
horizontal = 1;
place = "{1037.44, 84.93}";
type = Stem;
},
{
place = "{159.5, 97.44}";
type = Stem;
},
{
place = "{517.78, 155.72}";
type = Stem;
},
{
horizontal = 1;
place = "{972.94, 86.93}";
type = Stem;
},
{
place = "{55, 156.18}";
type = Stem;
},
{
place = "{480.56, 97.69}";
type = Stem;
}
);
layerId = "37B3F0A2-20CC-4AE3-B6A0-1D169A898E63";
paths = (
{
closed = 1;
nodes = (
"562.44 0 LINE",
"673.5 111.06 LINE",
"673.5 625.94 LINE",
"562.44 737 LINE",
"166.06 737 LINE",
"55 625.94 LINE",
"55 111.06 LINE",
"166.06 0 LINE"
);
},
{
closed = 1;
nodes = (
"211.31 165.5 LINE",
"211.06 571.5 LINE",
"251.19 610.87 LINE",
"477.25 611.06 LINE",
"517.69 571.5 LINE",
"517.87 165.56 LINE",
"478.31 126.12 LINE",
"251.25 125.94 LINE"
);
},
{
closed = 1;
nodes = (
"295.19 794.62 LINE",
"364.25 864.69 LINE",
"432.81 794.62 LINE",
"554.37 794.62 LINE",
"445.62 942.12 LINE",
"282.87 942.12 LINE",
"174.12 794.62 LINE"
);
},
{
closed = 1;
nodes = (
"510.75 972.94 LINE",
"577.75 1042.44 LINE",
"578.75 1117.69 LINE",
"480.56 1117.69 LINE",
"480.56 1091 LINE",
"456 1059.87 LINE",
"430.56 1059.87 LINE",
"372.44 1122.37 LINE",
"226.75 1122.37 LINE",
"160.25 1054.31 LINE",
"158.75 978.06 LINE",
"256.94 978.06 LINE",
"256.94 1003.75 LINE",
"281.5 1037.44 LINE",
"306.94 1037.44 LINE",
"365.06 972.94 LINE"
);
}
);
width = 729;
}
);
leftKerningGroup = C;
note = uni1ED6;
rightKerningGroup = O;
unicode = 1ED6;
},
{
glyphname = uni020C;
lastChange = "2019-09-03 20:00:58 +0000";
layers = (
{
hints = (
{
horizontal = 1;
place = "{0, 126.03}";
type = Stem;
},
{
horizontal = 1;
place = "{610.97, 126.03}";
type = Stem;
},
{
horizontal = 1;
place = "{794.62, 155.5}";
type = Stem;
},
{
place = "{55, 156.18}";
type = Stem;
},
{
place = "{517.78, 155.72}";
type = Stem;
}
);
layerId = "37B3F0A2-20CC-4AE3-B6A0-1D169A898E63";
paths = (
{
closed = 1;
nodes = (
"562.44 0 LINE",
"673.5 111.06 LINE",
"673.5 625.94 LINE",
"562.44 737 LINE",
"166.06 737 LINE",
"55 625.94 LINE",
"55 111.06 LINE",
"166.06 0 LINE"
);
},
{
closed = 1;
nodes = (
"211.31 165.5 LINE",
"211.06 571.5 LINE",
"251.19 610.87 LINE",
"477.25 611.06 LINE",
"517.69 571.5 LINE",
"517.87 165.56 LINE",
"478.31 126.12 LINE",
"251.25 125.94 LINE"
);
},
{
closed = 1;
nodes = (
"323.25 794.62 LINE",
"220.12 950.12 LINE",
"65.31 950.12 LINE",
"209.62 794.62 LINE"
);
},
{
closed = 1;
nodes = (
"525.06 794.62 LINE",
"421.94 950.12 LINE",
"267.12 950.12 LINE",
"411.44 794.62 LINE"
);
}
);
width = 729;
}
);
leftKerningGroup = C;
note = uni020C;
rightKerningGroup = O;
unicode = 020C;
},
{
glyphname = Odieresis;
lastChange = "2019-09-03 20:00:58 +0000";
layers = (
{
hints = (
{
horizontal = 1;
place = "{0, 126.03}";
type = Stem;
},
{
horizontal = 1;
place = "{610.97, 126.03}";
type = Stem;
},
{
horizontal = 1;
place = "{794.62, 132.75}";
type = Stem;
},
{
place = "{152.75, 148}";
type = Stem;
},
{
place = "{427.75, 148}";
type = Stem;
},
{
place = "{55, 156.18}";
type = Stem;
},
{
place = "{517.78, 155.72}";
type = Stem;
}
);
layerId = "37B3F0A2-20CC-4AE3-B6A0-1D169A898E63";
paths = (
{
closed = 1;
nodes = (
"562.44 0 LINE",
"673.5 111.06 LINE",
"673.5 625.94 LINE",
"562.44 737 LINE",
"166.06 737 LINE",
"55 625.94 LINE",
"55 111.06 LINE",
"166.06 0 LINE"
);
},
{
closed = 1;
nodes = (
"211.31 165.5 LINE",
"211.06 571.5 LINE",
"251.19 610.87 LINE",
"477.25 611.06 LINE",
"517.69 571.5 LINE",
"517.87 165.56 LINE",
"478.31 126.12 LINE",
"251.25 125.94 LINE"
);
},
{
closed = 1;
nodes = (
"300.75 794.62 LINE",
"300.75 927.37 LINE",
"152.75 927.37 LINE",
"152.75 794.62 LINE"
);
},
{
closed = 1;
nodes = (
"575.75 794.62 LINE",
"575.75 927.37 LINE",
"427.75 927.37 LINE",
"427.75 794.62 LINE"
);
}
);
width = 729;
}
);
leftKerningGroup = C;
note = Odieresis;
rightKerningGroup = O;
unicode = 00D6;
},
{
glyphname = uni022A;
lastChange = "2019-09-03 20:00:58 +0000";
layers = (
{
hints = (
{
horizontal = 1;
place = "{0, 126.03}";
type = Stem;
},
{
horizontal = 1;
place = "{610.97, 126.03}";
type = Stem;
},
{
horizontal = 1;
place = "{794.62, 132.75}";
type = Stem;
},
{
horizontal = 1;
place = "{967.12, 104.07}";
type = Stem;
},
{
place = "{152.75, 148}";
type = Stem;
},
{
place = "{427.75, 148}";
type = Stem;
},
{
place = "{55, 156.18}";
type = Stem;
},
{
place = "{517.78, 155.72}";
type = Stem;
}
);
layerId = "37B3F0A2-20CC-4AE3-B6A0-1D169A898E63";
paths = (
{
closed = 1;
nodes = (
"562.44 0 LINE",
"673.5 111.06 LINE",
"673.5 625.94 LINE",
"562.44 737 LINE",
"166.06 737 LINE",
"55 625.94 LINE",
"55 111.06 LINE",
"166.06 0 LINE"
);
},
{
closed = 1;
nodes = (
"211.31 165.5 LINE",
"211.06 571.5 LINE",
"251.19 610.87 LINE",
"477.25 611.06 LINE",
"517.69 571.5 LINE",
"517.87 165.56 LINE",
"478.31 126.12 LINE",
"251.25 125.94 LINE"
);
},
{
closed = 1;
nodes = (
"300.75 794.62 LINE",
"300.75 927.37 LINE",
"152.75 927.37 LINE",
"152.75 794.62 LINE"
);
},
{
closed = 1;
nodes = (
"575.75 794.62 LINE",
"575.75 927.37 LINE",
"427.75 927.37 LINE",
"427.75 794.62 LINE"
);
},
{
closed = 1;
nodes = (
"575.75 967.12 LINE",
"575.75 1071.19 LINE",
"152.75 1071.19 LINE",
"152.75 967.12 LINE"
);
}
);
width = 729;
}
);
leftKerningGroup = C;
note = uni022A;
rightKerningGroup = O;
unicode = 022A;
},
{
glyphname = uni0230;
lastChange = "2019-09-03 20:00:58 +0000";
layers = (
{
hints = (
{
horizontal = 1;
place = "{0, 126.03}";
type = Stem;
},
{
horizontal = 1;
place = "{610.97, 126.03}";
type = Stem;
},
{
horizontal = 1;
place = "{794.62, 132.69}";
type = Stem;
},
{
horizontal = 1;
place = "{967.12, 104.07}";
type = Stem;
},
{
place = "{55, 156.18}";
type = Stem;
},
{
place = "{287.25, 154}";
type = Stem;
},
{
place = "{517.78, 155.72}";
type = Stem;
}
);
layerId = "37B3F0A2-20CC-4AE3-B6A0-1D169A898E63";
paths = (
{
closed = 1;
nodes = (
"562.44 0 LINE",
"673.5 111.06 LINE",
"673.5 625.94 LINE",
"562.44 737 LINE",
"166.06 737 LINE",
"55 625.94 LINE",
"55 111.06 LINE",
"166.06 0 LINE"
);
},
{
closed = 1;
nodes = (
"211.31 165.5 LINE",
"211.06 571.5 LINE",
"251.19 610.87 LINE",
"477.25 611.06 LINE",
"517.69 571.5 LINE",
"517.87 165.56 LINE",
"478.31 126.12 LINE",
"251.25 125.94 LINE"
);
},
{
closed = 1;
nodes = (
"441.25 794.62 LINE",
"441.25 927.31 LINE",
"287.25 927.31 LINE",
"287.25 794.62 LINE"
);
},
{
closed = 1;
nodes = (
"575.75 967.12 LINE",
"575.75 1071.19 LINE",
"152.75 1071.19 LINE",
"152.75 967.12 LINE"
);
}
);
width = 729;
}
);
leftKerningGroup = C;
note = uni0230;
rightKerningGroup = O;
unicode = 0230;
},
{
glyphname = uni1ECC;
lastChange = "2019-09-03 20:00:58 +0000";
layers = (
{
hints = (
{
horizontal = 1;
place = "{-189.81, 132.68}";
type = Stem;
},
{
horizontal = 1;
place = "{0, 126.03}";
type = Stem;
},
{
horizontal = 1;
place = "{610.97, 126.03}";
type = Stem;
},
{
place = "{55, 156.18}";
type = Stem;
},
{
place = "{287.25, 154}";
type = Stem;
},
{
place = "{517.78, 155.72}";
type = Stem;
}
);
layerId = "37B3F0A2-20CC-4AE3-B6A0-1D169A898E63";
paths = (
{
closed = 1;
nodes = (
"562.44 0 LINE",
"673.5 111.06 LINE",
"673.5 625.94 LINE",
"562.44 737 LINE",
"166.06 737 LINE",
"55 625.94 LINE",
"55 111.06 LINE",
"166.06 0 LINE"
);
},
{
closed = 1;
nodes = (
"441.25 -189.81 LINE",
"441.25 -57.13 LINE",
"287.25 -57.13 LINE",
"287.25 -189.81 LINE"
);
},
{
closed = 1;
nodes = (
"211.31 165.5 LINE",
"211.06 571.5 LINE",
"251.19 610.87 LINE",
"477.25 611.06 LINE",
"517.69 571.5 LINE",
"517.87 165.56 LINE",
"478.31 126.12 LINE",
"251.25 125.94 LINE"
);
}
);
width = 729;
}
);
leftKerningGroup = C;
note = uni1ECC;
rightKerningGroup = O;
unicode = 1ECC;
},
{
glyphname = Ograve;
lastChange = "2019-09-03 20:00:58 +0000";
layers = (
{
hints = (
{
horizontal = 1;
place = "{0, 126.03}";
type = Stem;
},
{
horizontal = 1;
place = "{610.97, 126.03}";
type = Stem;
},
{
horizontal = 1;
place = "{794.62, 155.5}";
type = Stem;
},
{
place = "{55, 156.18}";
type = Stem;
},
{
place = "{517.78, 155.72}";
type = Stem;
}
);
layerId = "37B3F0A2-20CC-4AE3-B6A0-1D169A898E63";
paths = (
{
closed = 1;
nodes = (
"562.44 0 LINE",
"673.5 111.06 LINE",
"673.5 625.94 LINE",
"562.44 737 LINE",
"166.06 737 LINE",
"55 625.94 LINE",
"55 111.06 LINE",
"166.06 0 LINE"
);
},
{
closed = 1;
nodes = (
"211.31 165.5 LINE",
"211.06 571.5 LINE",
"251.19 610.87 LINE",
"477.25 611.06 LINE",
"517.69 571.5 LINE",
"517.87 165.56 LINE",
"478.31 126.12 LINE",
"251.25 125.94 LINE"
);
},
{
closed = 1;
nodes = (
"418.75 794.62 LINE",
"315.69 950.12 LINE",
"155.37 950.12 LINE",
"299.69 794.62 LINE"
);
}
);
width = 729;
}
);
leftKerningGroup = C;
note = Ograve;
rightKerningGroup = O;
unicode = 00D2;
},
{
glyphname = uni1ECE;
lastChange = "2019-09-03 20:00:58 +0000";
layers = (
{
hints = (
{
horizontal = 1;
place = "{0, 126.03}";
type = Stem;
},
{
horizontal = 1;
place = "{610.97, 126.03}";
type = Stem;
},
{
horizontal = 1;
place = "{795, 76.3}";
type = Stem;
},
{
horizontal = 1;
place = "{921.8, 95.65}";
type = Stem;
},
{
place = "{55, 156.18}";
type = Stem;
},
{
place = "{310.89, 103.65}";
type = Stem;
},
{
place = "{517.78, 155.72}";
type = Stem;
},
{
place = "{243.44, 102.15}";
type = Stem;
},
{
place = "{380.84, 106.5}";
type = Stem;
}
);
layerId = "37B3F0A2-20CC-4AE3-B6A0-1D169A898E63";
paths = (
{
closed = 1;
nodes = (
"562.44 0 LINE",
"673.5 111.06 LINE",
"673.5 625.94 LINE",
"562.44 737 LINE",
"166.06 737 LINE",
"55 625.94 LINE",
"55 111.06 LINE",
"166.06 0 LINE"
);
},
{
closed = 1;
nodes = (
"211.31 165.5 LINE",
"211.06 571.5 LINE",
"251.19 610.87 LINE",
"477.25 611.06 LINE",
"517.69 571.5 LINE",
"517.87 165.56 LINE",
"478.31 126.12 LINE",
"251.25 125.94 LINE"
);
},
{
closed = 1;
nodes = (
"414.54 795 LINE",
"414.54 835.3 LINE",
"487.34 883.25 LINE",
"487.34 972.7 LINE",
"440.54 1017.45 LINE",
"290.24 1017.45 LINE",
"243.44 972.15 LINE",
"243.44 921.8 LINE",
"345.59 921.8 LINE",
"345.59 946.75 LINE",
"380.84 946.75 LINE",
"380.84 920.15 LINE",
"310.89 871.3 LINE",
"310.89 795 LINE"
);
}
);
width = 729;
}
);
leftKerningGroup = C;
note = uni1ECE;
rightKerningGroup = O;
unicode = 1ECE;
},
{
glyphname = Ohorn;
lastChange = "2019-09-03 20:00:58 +0000";
layers = (
{
hints = (
{
horizontal = 1;
place = "{0, 126.03}";
type = Stem;
},
{
horizontal = 1;
place = "{601.06, 82.44}";
type = Stem;
},
{
place = "{55, 156.18}";
type = Stem;
},
{
place = "{517.78, 155.72}";
type = Stem;
},
{
horizontal = 1;
place = "{610.97, 126.03}";
type = Stem;
}
);
layerId = "37B3F0A2-20CC-4AE3-B6A0-1D169A898E63";
paths = (
{
closed = 1;
nodes = (
"562.44 0 LINE",
"673.5 111.06 LINE",
"673.5 601.06 LINE",
"756.62 601.06 LINE",
"844.87 801.81 LINE",
"691.25 801.81 LINE",
"674.06 683.5 LINE",
"615.94 683.5 LINE",
"562.44 737 LINE",
"166.06 737 LINE",
"55 625.94 LINE",
"55 111.06 LINE",
"166.06 0 LINE"
);
},
{
closed = 1;
nodes = (
"211.31 165.5 LINE",
"211.06 571.5 LINE",
"251.19 610.87 LINE",
"477.25 611.06 LINE",
"517.69 571.5 LINE",
"517.87 165.56 LINE",
"478.31 126.12 LINE",
"251.25 125.94 LINE"
);
}
);
width = 729;
}
);
leftKerningGroup = C;
note = Ohorn;
rightKerningGroup = O;
unicode = 01A0;
},
{
glyphname = uni1EDA;
lastChange = "2019-09-03 20:00:58 +0000";
layers = (
{
hints = (
{
horizontal = 1;
place = "{0, 126.03}";
type = Stem;
},
{
horizontal = 1;
place = "{610.97, 126.03}";
type = Stem;
},
{
horizontal = 1;
place = "{794.62, 155.5}";
type = Stem;
},
{
place = "{55, 156.18}";
type = Stem;
},
{
place = "{517.78, 155.72}";
type = Stem;
},
{
horizontal = 1;
place = "{601.06, 82.44}";
type = Stem;
}
);
layerId = "37B3F0A2-20CC-4AE3-B6A0-1D169A898E63";
paths = (
{
closed = 1;
nodes = (
"562.44 0 LINE",
"673.5 111.06 LINE",
"673.5 601.06 LINE",
"756.62 601.06 LINE",
"844.87 801.81 LINE",
"691.25 801.81 LINE",
"674.06 683.5 LINE",
"615.94 683.5 LINE",
"562.44 737 LINE",
"166.06 737 LINE",
"55 625.94 LINE",
"55 111.06 LINE",
"166.06 0 LINE"
);
},
{
closed = 1;
nodes = (
"211.31 165.5 LINE",
"211.06 571.5 LINE",
"251.19 610.87 LINE",
"477.25 611.06 LINE",
"517.69 571.5 LINE",
"517.87 165.56 LINE",
"478.31 126.12 LINE",
"251.25 125.94 LINE"
);
},
{
closed = 1;
nodes = (
"427.5 794.62 LINE",
"571.81 950.12 LINE",
"411.5 950.12 LINE",
"308.44 794.62 LINE"
);
}
);
width = 729;
}
);
leftKerningGroup = C;
note = uni1EDA;
rightKerningGroup = O;
unicode = 1EDA;
},
{
glyphname = uni1EE2;
lastChange = "2019-09-03 20:00:58 +0000";
layers = (
{
hints = (
{
horizontal = 1;
place = "{-189.81, 132.68}";
type = Stem;
},
{
horizontal = 1;
place = "{0, 126.03}";
type = Stem;
},
{
horizontal = 1;
place = "{601.06, 82.44}";
type = Stem;
},
{
place = "{55, 156.18}";
type = Stem;
},
{
place = "{287.25, 154}";
type = Stem;
},
{
place = "{517.78, 155.72}";
type = Stem;
},
{
horizontal = 1;
place = "{610.97, 126.03}";
type = Stem;
}
);
layerId = "37B3F0A2-20CC-4AE3-B6A0-1D169A898E63";
paths = (
{
closed = 1;
nodes = (
"562.44 0 LINE",
"673.5 111.06 LINE",
"673.5 601.06 LINE",
"756.62 601.06 LINE",
"844.87 801.81 LINE",
"691.25 801.81 LINE",
"674.06 683.5 LINE",
"615.94 683.5 LINE",
"562.44 737 LINE",
"166.06 737 LINE",
"55 625.94 LINE",
"55 111.06 LINE",
"166.06 0 LINE"
);
},
{
closed = 1;
nodes = (
"441.25 -189.81 LINE",
"441.25 -57.13 LINE",
"287.25 -57.13 LINE",
"287.25 -189.81 LINE"
);
},
{
closed = 1;
nodes = (
"211.31 165.5 LINE",
"211.06 571.5 LINE",
"251.19 610.87 LINE",
"477.25 611.06 LINE",
"517.69 571.5 LINE",
"517.87 165.56 LINE",
"478.31 126.12 LINE",
"251.25 125.94 LINE"
);
}
);
width = 729;
}
);
leftKerningGroup = C;
note = uni1EE2;
rightKerningGroup = O;
unicode = 1EE2;
},
{
glyphname = uni1EDC;
lastChange = "2019-09-03 20:00:58 +0000";
layers = (
{
hints = (
{
horizontal = 1;
place = "{0, 126.03}";
type = Stem;
},
{
horizontal = 1;
place = "{610.97, 126.03}";
type = Stem;
},
{
horizontal = 1;
place = "{794.62, 155.5}";
type = Stem;
},
{
place = "{55, 156.18}";
type = Stem;
},
{
place = "{517.78, 155.72}";
type = Stem;
},
{
horizontal = 1;
place = "{601.06, 82.44}";
type = Stem;
}
);
layerId = "37B3F0A2-20CC-4AE3-B6A0-1D169A898E63";
paths = (
{
closed = 1;
nodes = (
"562.44 0 LINE",
"673.5 111.06 LINE",
"673.5 601.06 LINE",
"756.62 601.06 LINE",
"844.87 801.81 LINE",
"691.25 801.81 LINE",
"674.06 683.5 LINE",
"615.94 683.5 LINE",
"562.44 737 LINE",
"166.06 737 LINE",
"55 625.94 LINE",
"55 111.06 LINE",
"166.06 0 LINE"
);
},
{
closed = 1;
nodes = (
"211.31 165.5 LINE",
"211.06 571.5 LINE",
"251.19 610.87 LINE",
"477.25 611.06 LINE",
"517.69 571.5 LINE",
"517.87 165.56 LINE",
"478.31 126.12 LINE",
"251.25 125.94 LINE"
);
},
{
closed = 1;
nodes = (
"418.75 794.62 LINE",
"315.69 950.12 LINE",
"155.37 950.12 LINE",
"299.69 794.62 LINE"
);
}
);
width = 729;
}
);
leftKerningGroup = C;
note = uni1EDC;
rightKerningGroup = O;
unicode = 1EDC;
},
{
glyphname = uni1EDE;
lastChange = "2019-09-03 20:00:58 +0000";
layers = (
{
hints = (
{
horizontal = 1;
place = "{0, 126.03}";
type = Stem;
},
{
horizontal = 1;
place = "{610.97, 126.03}";
type = Stem;
},
{
horizontal = 1;
place = "{921.8, 95.65}";
type = Stem;
},
{
place = "{55, 156.18}";
type = Stem;
},
{
place = "{310.89, 103.65}";
type = Stem;
},
{
place = "{517.78, 155.72}";
type = Stem;
},
{
horizontal = 1;
place = "{795, 76.3}";
type = Stem;
},
{
place = "{380.84, 106.5}";
type = Stem;
},
{
place = "{243.44, 102.15}";
type = Stem;
},
{
horizontal = 1;
place = "{601.06, 82.44}";
type = Stem;
}
);
layerId = "37B3F0A2-20CC-4AE3-B6A0-1D169A898E63";
paths = (
{
closed = 1;
nodes = (
"562.44 0 LINE",
"673.5 111.06 LINE",
"673.5 601.06 LINE",
"756.62 601.06 LINE",
"844.87 801.81 LINE",
"691.25 801.81 LINE",
"674.06 683.5 LINE",
"615.94 683.5 LINE",
"562.44 737 LINE",
"166.06 737 LINE",
"55 625.94 LINE",
"55 111.06 LINE",
"166.06 0 LINE"
);
},
{
closed = 1;
nodes = (
"211.31 165.5 LINE",
"211.06 571.5 LINE",
"251.19 610.87 LINE",
"477.25 611.06 LINE",
"517.69 571.5 LINE",
"517.87 165.56 LINE",
"478.31 126.12 LINE",
"251.25 125.94 LINE"
);
},
{
closed = 1;
nodes = (
"414.54 795 LINE",
"414.54 835.3 LINE",
"487.34 883.25 LINE",
"487.34 972.7 LINE",
"440.54 1017.45 LINE",
"290.24 1017.45 LINE",
"243.44 972.15 LINE",
"243.44 921.8 LINE",
"345.59 921.8 LINE",
"345.59 946.75 LINE",
"380.84 946.75 LINE",
"380.84 920.15 LINE",
"310.89 871.3 LINE",
"310.89 795 LINE"
);
}
);
width = 729;
}
);
leftKerningGroup = C;
note = uni1EDE;
rightKerningGroup = O;
unicode = 1EDE;
},
{
glyphname = uni1EE0;
lastChange = "2019-09-03 20:00:58 +0000";
layers = (
{
hints = (
{
horizontal = 1;
place = "{0, 126.03}";
type = Stem;
},
{
horizontal = 1;
place = "{610.97, 126.03}";
type = Stem;
},
{
horizontal = 1;
place = "{859.12, 84.94}";
type = Stem;
},
{
place = "{158.37, 97.44}";
type = Stem;
},
{
place = "{517.78, 155.72}";
type = Stem;
},
{
horizontal = 1;
place = "{794.62, 86.94}";
type = Stem;
},
{
place = "{55, 156.18}";
type = Stem;
},
{
place = "{479.44, 97.68}";
type = Stem;
},
{
horizontal = 1;
place = "{601.06, 82.44}";
type = Stem;
}
);
layerId = "37B3F0A2-20CC-4AE3-B6A0-1D169A898E63";
paths = (
{
closed = 1;
nodes = (
"562.44 0 LINE",
"673.5 111.06 LINE",
"673.5 601.06 LINE",
"756.62 601.06 LINE",
"844.87 801.81 LINE",
"691.25 801.81 LINE",
"674.06 683.5 LINE",
"615.94 683.5 LINE",
"562.44 737 LINE",
"166.06 737 LINE",
"55 625.94 LINE",
"55 111.06 LINE",
"166.06 0 LINE"
);
},
{
closed = 1;
nodes = (
"211.31 165.5 LINE",
"211.06 571.5 LINE",
"251.19 610.87 LINE",
"477.25 611.06 LINE",
"517.69 571.5 LINE",
"517.87 165.56 LINE",
"478.31 126.12 LINE",
"251.25 125.94 LINE"
);
},
{
closed = 1;
nodes = (
"509.62 794.62 LINE",
"576.62 864.12 LINE",
"577.62 939.37 LINE",
"479.44 939.37 LINE",
"479.44 912.69 LINE",
"454.87 881.56 LINE",
"429.44 881.56 LINE",
"371.31 944.06 LINE",
"225.62 944.06 LINE",
"159.12 876 LINE",
"157.62 799.75 LINE",
"255.81 799.75 LINE",
"255.81 825.44 LINE",
"280.37 859.12 LINE",
"305.81 859.12 LINE",
"363.94 794.62 LINE"
);
}
);
width = 729;
}
);
leftKerningGroup = C;
note = uni1EE0;
rightKerningGroup = O;
unicode = 1EE0;
},
{
glyphname = Ohungarumlaut;
lastChange = "2019-09-03 20:00:58 +0000";
layers = (
{
hints = (
{
horizontal = 1;
place = "{0, 126.03}";
type = Stem;
},
{
horizontal = 1;
place = "{610.97, 126.03}";
type = Stem;
},
{
horizontal = 1;
place = "{794.62, 155.5}";
type = Stem;
},
{
place = "{55, 156.18}";
type = Stem;
},
{
place = "{517.78, 155.72}";
type = Stem;
}
);
layerId = "37B3F0A2-20CC-4AE3-B6A0-1D169A898E63";
paths = (
{
closed = 1;
nodes = (
"562.44 0 LINE",
"673.5 111.06 LINE",
"673.5 625.94 LINE",
"562.44 737 LINE",
"166.06 737 LINE",
"55 625.94 LINE",
"55 111.06 LINE",
"166.06 0 LINE"
);
},
{
closed = 1;
nodes = (
"211.31 165.5 LINE",
"211.06 571.5 LINE",
"251.19 610.87 LINE",
"477.25 611.06 LINE",
"517.69 571.5 LINE",
"517.87 165.56 LINE",
"478.31 126.12 LINE",
"251.25 125.94 LINE"
);
},
{
closed = 1;
nodes = (
"329.75 794.62 LINE",
"474.06 950.12 LINE",
"319.25 950.12 LINE",
"216.12 794.62 LINE"
);
},
{
closed = 1;
nodes = (
"531.56 794.62 LINE",
"675.87 950.12 LINE",
"521.06 950.12 LINE",
"417.94 794.62 LINE"
);
}
);
width = 729;
}
);
leftKerningGroup = C;
note = Ohungarumlaut;
rightKerningGroup = O;
unicode = 0150;
},
{
glyphname = uni020E;
lastChange = "2019-09-03 20:00:58 +0000";
layers = (
{
hints = (
{
horizontal = 1;
place = "{0, 126.03}";
type = Stem;
},
{
horizontal = 1;
place = "{610.97, 126.03}";
type = Stem;
},
{
horizontal = 1;
place = "{795, 73.31}";
type = Stem;
},
{
place = "{192.12, 106.19}";
type = Stem;
},
{
place = "{517.78, 155.72}";
type = Stem;
},
{
horizontal = 1;
place = "{856.44, 85.56}";
type = Stem;
},
{
place = "{430.19, 106.18}";
type = Stem;
},
{
place = "{55, 156.18}";
type = Stem;
}
);
layerId = "37B3F0A2-20CC-4AE3-B6A0-1D169A898E63";
paths = (
{
closed = 1;
nodes = (
"562.44 0 LINE",
"673.5 111.06 LINE",
"673.5 625.94 LINE",
"562.44 737 LINE",
"166.06 737 LINE",
"55 625.94 LINE",
"55 111.06 LINE",
"166.06 0 LINE"
);
},
{
closed = 1;
nodes = (
"211.31 165.5 LINE",
"211.06 571.5 LINE",
"251.19 610.87 LINE",
"477.25 611.06 LINE",
"517.69 571.5 LINE",
"517.87 165.56 LINE",
"478.31 126.12 LINE",
"251.25 125.94 LINE"
);
},
{
closed = 1;
nodes = (
"298.31 795 LINE",
"298.31 839.5 LINE",
"315.75 856.44 LINE",
"412.75 856.44 LINE",
"430.19 839.5 LINE",
"430.19 795 LINE",
"536.37 795 LINE",
"536.37 868.31 LINE",
"458.69 942 LINE",
"269.31 942 LINE",
"192.12 868.31 LINE",
"192.12 795 LINE"
);
}
);
width = 729;
}
);
leftKerningGroup = C;
note = uni020E;
rightKerningGroup = O;
unicode = 020E;
},
{
glyphname = Omacron;
lastChange = "2019-09-03 20:00:58 +0000";
layers = (
{
hints = (
{
horizontal = 1;
place = "{0, 126.03}";
type = Stem;
},
{
horizontal = 1;
place = "{610.97, 126.03}";
type = Stem;
},
{
horizontal = 1;
place = "{794.62, 104.07}";
type = Stem;
},
{
place = "{55, 156.18}";
type = Stem;
},
{
place = "{517.78, 155.72}";
type = Stem;
}
);
layerId = "37B3F0A2-20CC-4AE3-B6A0-1D169A898E63";
paths = (
{
closed = 1;
nodes = (
"562.44 0 LINE",
"673.5 111.06 LINE",
"673.5 625.94 LINE",
"562.44 737 LINE",
"166.06 737 LINE",
"55 625.94 LINE",
"55 111.06 LINE",
"166.06 0 LINE"
);
},
{
closed = 1;
nodes = (
"211.31 165.5 LINE",
"211.06 571.5 LINE",
"251.19 610.87 LINE",
"477.25 611.06 LINE",
"517.69 571.5 LINE",
"517.87 165.56 LINE",
"478.31 126.12 LINE",
"251.25 125.94 LINE"
);
},
{
closed = 1;
nodes = (
"575.75 794.62 LINE",
"575.75 898.69 LINE",
"152.75 898.69 LINE",
"152.75 794.62 LINE"
);
}
);
width = 729;
}
);
leftKerningGroup = C;
note = Omacron;
rightKerningGroup = O;
unicode = 014C;
},
{
glyphname = uni01EA;
lastChange = "2019-09-03 20:02:30 +0000";
layers = (
{
hints = (
{
horizontal = 1;
place = "{-175.81, 91.68}";
type = Stem;
},
{
horizontal = 1;
place = "{0, 126.03}";
type = Stem;
},
{
horizontal = 1;
place = "{610.97, 126.03}";
type = Stem;
},
{
place = "{55, 156.18}";
type = Stem;
},
{
place = "{517.78, 155.72}";
type = Stem;
},
{
place = "{436.69, 89.43}";
type = Stem;
}
);
layerId = "37B3F0A2-20CC-4AE3-B6A0-1D169A898E63";
paths = (
{
closed = 1;
nodes = (
"575.5 -175.81 LINE",
"575.5 -84.13 LINE",
"546.06 -84.13 LINE",
"526.12 -64.63 LINE",
"526.12 -35.75 LINE",
"673.5 111.06 LINE",
"673.5 625.94 LINE",
"562.44 737 LINE",
"166.06 737 LINE",
"55 625.94 LINE",
"55 111.06 LINE",
"166.06 0 LINE",
"479.69 0 LINE",
"436.69 -33 LINE",
"436.69 -110.88 LINE",
"504.56 -175.81 LINE"
);
},
{
closed = 1;
nodes = (
"211.31 165.5 LINE",
"211.06 571.5 LINE",
"251.19 610.87 LINE",
"477.25 611.06 LINE",
"517.69 571.5 LINE",
"517.87 165.56 LINE",
"478.31 126.12 LINE",
"251.25 125.94 LINE"
);
}
);
width = 729;
}
);
leftKerningGroup = C;
note = uni01EA;
rightKerningGroup = O;
unicode = 01EA;
},
{
glyphname = Oslash;
lastChange = "2019-09-03 20:00:58 +0000";
layers = (
{
hints = (
{
horizontal = 1;
place = "{0, 126.04}";
type = Stem;
},
{
horizontal = 1;
place = "{610.96, 126.04}";
type = Stem;
},
{
place = "{55, 156.16}";
type = Stem;
},
{
place = "{517.79, 155.71}";
type = Stem;
}
);
layerId = "37B3F0A2-20CC-4AE3-B6A0-1D169A898E63";
paths = (
{
closed = 1;
nodes = (
"562.44 0 LINE",
"673.5 111.06 LINE",
"673.5 625.94 LINE",
"562.44 737 LINE",
"166.06 737 LINE",
"55 625.94 LINE",
"55 111.06 LINE",
"166.06 0 LINE"
);
},
{
closed = 1;
nodes = (
"517.72 507.03 LINE",
"517.87 165.56 LINE",
"478.31 126.12 LINE",
"270.23 125.95 LINE"
);
},
{
closed = 1;
nodes = (
"211.06 571.5 LINE",
"251.19 610.87 LINE",
"458.26 611.04 LINE",
"211.27 230.71 LINE"
);
}
);
width = 729;
}
);
leftKerningGroup = C;
note = Oslash;
rightKerningGroup = O;
unicode = 00D8;
},
{
glyphname = Oslashacute;
lastChange = "2019-09-03 20:00:58 +0000";
layers = (
{
hints = (
{
horizontal = 1;
place = "{0, 126.04}";
type = Stem;
},
{
horizontal = 1;
place = "{610.96, 126.04}";
type = Stem;
},
{
horizontal = 1;
place = "{794.62, 155.5}";
type = Stem;
},
{
place = "{55, 156.16}";
type = Stem;
},
{
place = "{517.79, 155.71}";
type = Stem;
}
);
layerId = "37B3F0A2-20CC-4AE3-B6A0-1D169A898E63";
paths = (
{
closed = 1;
nodes = (
"562.44 0 LINE",
"673.5 111.06 LINE",
"673.5 625.94 LINE",
"562.44 737 LINE",
"166.06 737 LINE",
"55 625.94 LINE",
"55 111.06 LINE",
"166.06 0 LINE"
);
},
{
closed = 1;
nodes = (
"517.72 507.03 LINE",
"517.87 165.56 LINE",
"478.31 126.12 LINE",
"270.23 125.95 LINE"
);
},
{
closed = 1;
nodes = (
"211.06 571.5 LINE",
"251.19 610.87 LINE",
"458.26 611.04 LINE",
"211.27 230.71 LINE"
);
},
{
closed = 1;
nodes = (
"427.5 794.62 LINE",
"571.81 950.12 LINE",
"411.5 950.12 LINE",
"308.44 794.62 LINE"
);
}
);
width = 729;
}
);
leftKerningGroup = C;
note = Oslashacute;
rightKerningGroup = O;
unicode = 01FE;
},
{
glyphname = Otilde;
lastChange = "2019-09-03 20:00:58 +0000";
layers = (
{
hints = (
{
horizontal = 1;
place = "{0, 126.03}";
type = Stem;
},
{
horizontal = 1;
place = "{610.97, 126.03}";
type = Stem;
},
{
horizontal = 1;
place = "{859.12, 84.94}";
type = Stem;
},
{
place = "{158.37, 97.44}";
type = Stem;
},
{
place = "{517.78, 155.72}";
type = Stem;
},
{
horizontal = 1;
place = "{794.62, 86.94}";
type = Stem;
},
{
place = "{55, 156.18}";
type = Stem;
},
{
place = "{479.44, 97.68}";
type = Stem;
}
);
layerId = "37B3F0A2-20CC-4AE3-B6A0-1D169A898E63";
paths = (
{
closed = 1;
nodes = (
"562.44 0 LINE",
"673.5 111.06 LINE",
"673.5 625.94 LINE",
"562.44 737 LINE",
"166.06 737 LINE",
"55 625.94 LINE",
"55 111.06 LINE",
"166.06 0 LINE"
);
},
{
closed = 1;
nodes = (
"211.31 165.5 LINE",
"211.06 571.5 LINE",
"251.19 610.87 LINE",
"477.25 611.06 LINE",
"517.69 571.5 LINE",
"517.87 165.56 LINE",
"478.31 126.12 LINE",
"251.25 125.94 LINE"
);
},
{
closed = 1;
nodes = (
"509.62 794.62 LINE",
"576.62 864.12 LINE",
"577.62 939.37 LINE",
"479.44 939.37 LINE",
"479.44 912.69 LINE",
"454.87 881.56 LINE",
"429.44 881.56 LINE",
"371.31 944.06 LINE",
"225.62 944.06 LINE",
"159.12 876 LINE",
"157.62 799.75 LINE",
"255.81 799.75 LINE",
"255.81 825.44 LINE",
"280.37 859.12 LINE",
"305.81 859.12 LINE",
"363.94 794.62 LINE"
);
}
);
width = 729;
}
);
leftKerningGroup = C;
note = Otilde;
rightKerningGroup = O;
unicode = 00D5;
},
{
glyphname = uni022C;
lastChange = "2019-09-28 19:20:34 +0000";
layers = (
{
hints = (
{
horizontal = 1;
place = "{0, 126.03}";
type = Stem;
},
{
horizontal = 1;
place = "{610.97, 126.03}";
type = Stem;
},
{
horizontal = 1;
place = "{859.12, 84.94}";
type = Stem;
},
{
horizontal = 1;
place = "{984.19, 104.06}";
type = Stem;
},
{
place = "{55, 156.18}";
type = Stem;
},
{
place = "{517.78, 155.72}";
type = Stem;
},
{
place = "{158.37, 97.44}";
type = Stem;
},
{
place = "{479.44, 97.68}";
type = Stem;
},
{
horizontal = 1;
place = "{794.62, 86.94}";
type = Stem;
}
);
layerId = "37B3F0A2-20CC-4AE3-B6A0-1D169A898E63";
paths = (
{
closed = 1;
nodes = (
"562 0 LINE",
"673 111 LINE",
"673 626 LINE",
"562 737 LINE",
"166 737 LINE",
"55 626 LINE",
"55 111 LINE",
"166 0 LINE"
);
},
{
closed = 1;
nodes = (
"211 166 LINE",
"211 572 LINE",
"251 611 LINE",
"477 611 LINE",
"517 572 LINE",
"518 166 LINE",
"478 126 LINE",
"251 126 LINE"
);
},
{
closed = 1;
nodes = (
"506 795 LINE",
"573 864 LINE",
"574 939 LINE",
"476 939 LINE",
"476 913 LINE",
"451 882 LINE",
"426 882 LINE",
"368 944 LINE",
"222 944 LINE",
"155 876 LINE",
"154 800 LINE",
"252 800 LINE",
"252 825 LINE",
"277 859 LINE",
"302 859 LINE",
"360 795 LINE"
);
},
{
closed = 1;
nodes = (
"576 984 LINE",
"576 1088 LINE",
"153 1088 LINE",
"153 984 LINE"
);
}
);
width = 729;
}
);
leftKerningGroup = C;
note = uni022C;
rightKerningGroup = O;
unicode = 022C;
},
{
glyphname = OE;
lastChange = "2019-09-03 20:03:24 +0000";
layers = (
{
hints = (
{
horizontal = 1;
place = "{0, 133.19}";
type = Stem;
},
{
horizontal = 1;
place = "{318.44, 127.68}";
type = Stem;
},
{
horizontal = 1;
place = "{603.81, 133.19}";
type = Stem;
},
{
place = "{55, 156.18}";
type = Stem;
},
{
place = "{517.78, 161.14}";
type = Stem;
}
);
layerId = "37B3F0A2-20CC-4AE3-B6A0-1D169A898E63";
paths = (
{
closed = 1;
nodes = (
"1055 0 LINE",
"1055 133.19 LINE",
"678.92 133.19 LINE",
"678.92 318.44 LINE",
"1020 318.44 LINE",
"1020 446.12 LINE",
"678.92 446.12 LINE",
"678.92 603.81 LINE",
"1055 603.81 LINE",
"1055 737 LINE",
"166.06 737 LINE",
"55 625.94 LINE",
"55 111.06 LINE",
"166.06 0 LINE"
);
},
{
closed = 1;
nodes = (
"211.31 165.5 LINE",
"211.06 571.5 LINE",
"251.19 610.87 LINE",
"477.25 611.06 LINE",
"517.69 571.5 LINE",
"517.87 165.56 LINE",
"478.31 126.12 LINE",
"251.25 125.94 LINE"
);
}
);
width = 1105;
}
);
leftKerningGroup = C;
note = OE;
rightKerningGroup = AE;
unicode = 0152;
},
{
glyphname = P;
lastChange = "2019-09-03 20:00:58 +0000";
layers = (
{
hints = (
{
horizontal = 1;
place = "{242.56, 126.08}";
type = Stem;
},
{
horizontal = 1;
place = "{611.07, 125.93}";
type = Stem;
},
{
place = "{75, 156.2}";
type = Stem;
},
{
place = "{486.75, 153.22}";
type = Stem;
}
);
layerId = "37B3F0A2-20CC-4AE3-B6A0-1D169A898E63";
paths = (
{
closed = 1;
nodes = (
"231.2 0 LINE",
"231.2 242.56 LINE",
"528.91 242.56 LINE",
"639.97 353.62 LINE",
"639.97 625.94 LINE",
"528.91 737 LINE",
"75 737 LINE",
"75 0 LINE"
);
},
{
closed = 1;
nodes = (
"231.2 611.01 LINE",
"447.29 611.12 LINE",
"486.66 571.5 LINE",
"486.85 408.12 LINE",
"447.29 368.69 LINE",
"231.2 368.58 LINE"
);
}
);
width = 657;
}
);
leftKerningGroup = B;
note = P;
rightKerningGroup = P;
unicode = 0050;
},
{
glyphname = Thorn;
lastChange = "2019-09-03 20:00:58 +0000";
layers = (
{
hints = (
{
horizontal = 1;
place = "{130.69, 126.07}";
type = Stem;
},
{
horizontal = 1;
place = "{499.23, 125.89}";
type = Stem;
},
{
place = "{75, 156.2}";
type = Stem;
},
{
place = "{483.75, 156.22}";
type = Stem;
}
);
layerId = "37B3F0A2-20CC-4AE3-B6A0-1D169A898E63";
paths = (
{
closed = 1;
nodes = (
"231.2 -1.63 LINE",
"231.2 130.69 LINE",
"528.91 130.69 LINE",
"639.97 241.75 LINE",
"639.97 514.12 LINE",
"528.91 625.12 LINE",
"231.2 625.12 LINE",
"231.2 735.37 LINE",
"75 735.37 LINE",
"75 -1.63 LINE"
);
},
{
closed = 1;
nodes = (
"231.2 499.15 LINE",
"444.29 499.31 LINE",
"483.66 459.62 LINE",
"483.85 296.25 LINE",
"444.29 256.81 LINE",
"231.2 256.7 LINE"
);
}
);
width = 657;
}
);
leftKerningGroup = B;
note = Thorn;
rightKerningGroup = Thorn;
unicode = 00DE;
},
{
glyphname = Q;
lastChange = "2019-09-25 14:03:29 +0000";
layers = (
{
hints = (
{
horizontal = 1;
place = "{0, 125.96}";
type = Stem;
},
{
horizontal = 1;
place = "{610.97, 126.03}";
type = Stem;
},
{
place = "{55, 156.18}";
type = Stem;
},
{
place = "{309.81, 118.88}";
type = Stem;
},
{
place = "{517.78, 155.72}";
type = Stem;
}
);
layerId = "37B3F0A2-20CC-4AE3-B6A0-1D169A898E63";
paths = (
{
closed = 1;
nodes = (
"426 -89 LINE",
"426 0 LINE",
"562.44 0 LINE",
"673.5 111.06 LINE",
"673.5 625.94 LINE",
"562.44 737 LINE",
"166.06 737 LINE",
"55 625.94 LINE",
"55 111.06 LINE",
"166.06 0 LINE",
"303 0 LINE",
"303 -89 LINE"
);
},
{
closed = 1;
nodes = (
"211.31 165.5 LINE",
"211.06 571.5 LINE",
"251.19 610.87 LINE",
"477.25 611.06 LINE",
"517.69 571.5 LINE",
"517.87 165.56 LINE",
"478.31 126.12 LINE",
"424 126 LINE",
"424 215 LINE",
"305 215 LINE",
"305 126 LINE",
"251.25 125.94 LINE"
);
}
);
width = 729;
}
);
leftKerningGroup = C;
note = Q;
rightKerningGroup = O;
unicode = 0051;
},
{
glyphname = R;
lastChange = "2019-09-03 20:00:58 +0000";
layers = (
{
hints = (
{
horizontal = 1;
place = "{260.81, 126.08}";
type = Stem;
},
{
horizontal = 1;
place = "{611.07, 125.93}";
type = Stem;
},
{
place = "{75, 156.2}";
type = Stem;
},
{
place = "{498.47, 153.69}";
type = Stem;
}
);
layerId = "37B3F0A2-20CC-4AE3-B6A0-1D169A898E63";
paths = (
{
closed = 1;
nodes = (
"231.2 0 LINE",
"231.2 260.81 LINE",
"406.87 260.81 LINE",
"513.29 0 LINE",
"678.22 0 LINE",
"559.47 279.6 LINE",
"652.16 371.87 LINE",
"652.16 625.94 LINE",
"540.6 737 LINE",
"75 737 LINE",
"75 0 LINE"
);
},
{
closed = 1;
nodes = (
"231.2 611.01 LINE",
"458.91 611.12 LINE",
"498.35 571.5 LINE",
"498.6 426.31 LINE",
"458.91 386.94 LINE",
"231.2 386.83 LINE"
);
}
);
width = 718;
}
);
leftKerningGroup = B;
note = R;
rightKerningGroup = R;
unicode = 0052;
},
{
glyphname = Racute;
lastChange = "2019-09-03 20:00:58 +0000";
layers = (
{
hints = (
{
horizontal = 1;
place = "{260.81, 126.08}";
type = Stem;
},
{
horizontal = 1;
place = "{611.07, 125.93}";
type = Stem;
},
{
horizontal = 1;
place = "{794.62, 155.5}";
type = Stem;
},
{
place = "{75, 156.2}";
type = Stem;
},
{
place = "{498.47, 153.69}";
type = Stem;
}
);
layerId = "37B3F0A2-20CC-4AE3-B6A0-1D169A898E63";
paths = (
{
closed = 1;
nodes = (
"231.2 0 LINE",
"231.2 260.81 LINE",
"406.87 260.81 LINE",
"513.29 0 LINE",
"678.22 0 LINE",
"559.47 279.6 LINE",
"652.16 371.87 LINE",
"652.16 625.94 LINE",
"540.6 737 LINE",
"75 737 LINE",
"75 0 LINE"
);
},
{
closed = 1;
nodes = (
"231.2 611.01 LINE",
"458.91 611.12 LINE",
"498.35 571.5 LINE",
"498.6 426.31 LINE",
"458.91 386.94 LINE",
"231.2 386.83 LINE"
);
},
{
closed = 1;
nodes = (
"400.47 794.62 LINE",
"544.79 950.12 LINE",
"384.47 950.12 LINE",
"281.41 794.62 LINE"
);
}
);
width = 718;
}
);
leftKerningGroup = B;
note = Racute;
rightKerningGroup = R;
unicode = 0154;
},
{
glyphname = Rcaron;
lastChange = "2019-09-03 20:00:58 +0000";
layers = (
{
hints = (
{
horizontal = 1;
place = "{260.81, 126.08}";
type = Stem;
},
{
horizontal = 1;
place = "{611.07, 125.93}";
type = Stem;
},
{
horizontal = 1;
place = "{794.62, 147.5}";
type = Stem;
},
{
place = "{75, 156.2}";
type = Stem;
},
{
place = "{498.47, 153.69}";
type = Stem;
}
);
layerId = "37B3F0A2-20CC-4AE3-B6A0-1D169A898E63";
paths = (
{
closed = 1;
nodes = (
"231.2 0 LINE",
"231.2 260.81 LINE",
"406.87 260.81 LINE",
"513.29 0 LINE",
"678.22 0 LINE",
"559.47 279.6 LINE",
"652.16 371.87 LINE",
"652.16 625.94 LINE",
"540.6 737 LINE",
"75 737 LINE",
"75 0 LINE"
);
},
{
closed = 1;
nodes = (
"231.2 611.01 LINE",
"458.91 611.12 LINE",
"498.35 571.5 LINE",
"498.6 426.31 LINE",
"458.91 386.94 LINE",
"231.2 386.83 LINE"
);
},
{
closed = 1;
nodes = (
"418.6 794.62 LINE",
"527.35 942.12 LINE",
"405.79 942.12 LINE",
"337.22 872.06 LINE",
"268.16 942.12 LINE",
"147.1 942.12 LINE",
"255.85 794.62 LINE"
);
}
);
width = 718;
}
);
leftKerningGroup = B;
note = Rcaron;
rightKerningGroup = R;
unicode = 0158;
},
{
glyphname = uni0156;
lastChange = "2019-09-03 20:00:58 +0000";
layers = (
{
hints = (
{
horizontal = 1;
place = "{-239.88, 182.75}";
type = Stem;
},
{
horizontal = 1;
place = "{260.81, 126.08}";
type = Stem;
},
{
horizontal = 1;
place = "{611.07, 125.93}";
type = Stem;
},
{
place = "{75, 156.2}";
type = Stem;
},
{
place = "{498.47, 153.69}";
type = Stem;
}
);
layerId = "37B3F0A2-20CC-4AE3-B6A0-1D169A898E63";
paths = (
{
closed = 1;
nodes = (
"231.2 0 LINE",
"231.2 260.81 LINE",
"406.87 260.81 LINE",
"513.29 0 LINE",
"678.22 0 LINE",
"559.47 279.6 LINE",
"652.16 371.87 LINE",
"652.16 625.94 LINE",
"540.6 737 LINE",
"75 737 LINE",
"75 0 LINE"
);
},
{
closed = 1;
nodes = (
"332.26 -239.88 LINE",
"434.95 -57.13 LINE",
"289.57 -57.13 LINE",
"245.76 -239.88 LINE"
);
},
{
closed = 1;
nodes = (
"231.2 611.01 LINE",
"458.91 611.12 LINE",
"498.35 571.5 LINE",
"498.6 426.31 LINE",
"458.91 386.94 LINE",
"231.2 386.83 LINE"
);
}
);
width = 718;
}
);
leftKerningGroup = B;
note = uni0156;
rightKerningGroup = R;
unicode = 0156;
},
{
glyphname = uni0210;
lastChange = "2019-09-03 20:00:58 +0000";
layers = (
{
hints = (
{
horizontal = 1;
place = "{260.81, 126.08}";
type = Stem;
},
{
horizontal = 1;
place = "{611.07, 125.93}";
type = Stem;
},
{
horizontal = 1;
place = "{794.62, 155.5}";
type = Stem;
},
{
place = "{75, 156.2}";
type = Stem;
},
{
place = "{498.47, 153.69}";
type = Stem;
}
);
layerId = "37B3F0A2-20CC-4AE3-B6A0-1D169A898E63";
paths = (
{
closed = 1;
nodes = (
"231.2 0 LINE",
"231.2 260.81 LINE",
"406.87 260.81 LINE",
"513.29 0 LINE",
"678.22 0 LINE",
"559.47 279.6 LINE",
"652.16 371.87 LINE",
"652.16 625.94 LINE",
"540.6 737 LINE",
"75 737 LINE",
"75 0 LINE"
);
},
{
closed = 1;
nodes = (
"231.2 611.01 LINE",
"458.91 611.12 LINE",
"498.35 571.5 LINE",
"498.6 426.31 LINE",
"458.91 386.94 LINE",
"231.2 386.83 LINE"
);
},
{
closed = 1;
nodes = (
"296.22 794.62 LINE",
"193.1 950.12 LINE",
"38.29 950.12 LINE",
"182.6 794.62 LINE"
);
},
{
closed = 1;
nodes = (
"498.04 794.62 LINE",
"394.91 950.12 LINE",
"240.1 950.12 LINE",
"384.41 794.62 LINE"
);
}
);
width = 718;
}
);
leftKerningGroup = B;
note = uni0210;
rightKerningGroup = R;
unicode = 0210;
},
{
glyphname = uni0212;
lastChange = "2019-09-03 20:00:58 +0000";
layers = (
{
hints = (
{
horizontal = 1;
place = "{260.81, 126.08}";
type = Stem;
},
{
horizontal = 1;
place = "{611.07, 125.93}";
type = Stem;
},
{
horizontal = 1;
place = "{856.44, 85.56}";
type = Stem;
},
{
place = "{165.1, 106.19}";
type = Stem;
},
{
place = "{403.16, 106.19}";
type = Stem;
},
{
horizontal = 1;
place = "{795, 73.31}";
type = Stem;
},
{
place = "{75, 156.2}";
type = Stem;
},
{
place = "{498.47, 153.69}";
type = Stem;
}
);
layerId = "37B3F0A2-20CC-4AE3-B6A0-1D169A898E63";
paths = (
{
closed = 1;
nodes = (
"231.2 0 LINE",
"231.2 260.81 LINE",
"406.87 260.81 LINE",
"513.29 0 LINE",
"678.22 0 LINE",
"559.47 279.6 LINE",
"652.16 371.87 LINE",
"652.16 625.94 LINE",
"540.6 737 LINE",
"75 737 LINE",
"75 0 LINE"
);
},
{
closed = 1;
nodes = (
"231.2 611.01 LINE",
"458.91 611.12 LINE",
"498.35 571.5 LINE",
"498.6 426.31 LINE",
"458.91 386.94 LINE",
"231.2 386.83 LINE"
);
},
{
closed = 1;
nodes = (
"271.29 795 LINE",
"271.29 839.5 LINE",
"288.72 856.44 LINE",
"385.72 856.44 LINE",
"403.16 839.5 LINE",
"403.16 795 LINE",
"509.35 795 LINE",
"509.35 868.31 LINE",
"431.66 942 LINE",
"242.28 942 LINE",
"165.1 868.31 LINE",
"165.1 795 LINE"
);
}
);
width = 718;
}
);
leftKerningGroup = B;
note = uni0212;
rightKerningGroup = R;
unicode = 0212;
},
{
glyphname = S;
lastChange = "2019-09-03 20:00:58 +0000";
layers = (
{
hints = (
{
horizontal = 1;
place = "{0, 132.25}";
type = Stem;
},
{
horizontal = 1;
place = "{314.44, 129.78}";
type = Stem;
},
{
horizontal = 1;
place = "{604.75, 132.25}";
type = Stem;
},
{
place = "{50, 154.68}";
type = Stem;
},
{
place = "{491.21, 154.79}";
type = Stem;
}
);
layerId = "37B3F0A2-20CC-4AE3-B6A0-1D169A898E63";
paths = (
{
closed = 1;
nodes = (
"534.94 0 LINE",
"646 111.06 LINE",
"646 333.25 LINE",
"534.94 444.25 LINE",
"244.25 444.19 LINE",
"204.81 483.87 LINE",
"204.56 565.31 LINE",
"244.25 604.69 LINE",
"606.12 604.81 LINE",
"606.12 737 LINE",
"161.06 737 LINE",
"50 625.94 LINE",
"50 425.87 LINE",
"161.06 314.37 LINE",
"451.75 314.5 LINE",
"491.12 274.87 LINE",
"491.31 171.75 LINE",
"451.75 132.31 LINE",
"77.19 132.19 LINE",
"77.19 0 LINE"
);
}
);
width = 696;
}
);
leftKerningGroup = S;
note = S;
rightKerningGroup = S;
unicode = 0053;
},
{
glyphname = Sacute;
lastChange = "2019-09-03 20:00:58 +0000";
layers = (
{
hints = (
{
horizontal = 1;
place = "{0, 132.25}";
type = Stem;
},
{
horizontal = 1;
place = "{314.44, 129.78}";
type = Stem;
},
{
horizontal = 1;
place = "{604.75, 132.25}";
type = Stem;
},
{
horizontal = 1;
place = "{794.62, 155.5}";
type = Stem;
},
{
place = "{50, 154.68}";
type = Stem;
},
{
place = "{491.21, 154.79}";
type = Stem;
}
);
layerId = "37B3F0A2-20CC-4AE3-B6A0-1D169A898E63";
paths = (
{
closed = 1;
nodes = (
"534.94 0 LINE",
"646 111.06 LINE",
"646 333.25 LINE",
"534.94 444.25 LINE",
"244.25 444.19 LINE",
"204.81 483.87 LINE",
"204.56 565.31 LINE",
"244.25 604.69 LINE",
"606.12 604.81 LINE",
"606.12 737 LINE",
"161.06 737 LINE",
"50 625.94 LINE",
"50 425.87 LINE",
"161.06 314.37 LINE",
"451.75 314.5 LINE",
"491.12 274.87 LINE",
"491.31 171.75 LINE",
"451.75 132.31 LINE",
"77.19 132.19 LINE",
"77.19 0 LINE"
);
},
{
closed = 1;
nodes = (
"408.37 794.62 LINE",
"552.69 950.12 LINE",
"392.37 950.12 LINE",
"289.31 794.62 LINE"
);
}
);
width = 696;
}
);
leftKerningGroup = S;
note = Sacute;
rightKerningGroup = S;
unicode = 015A;
},
{
glyphname = Scaron;
lastChange = "2019-09-03 20:00:58 +0000";
layers = (
{
hints = (
{
horizontal = 1;
place = "{0, 132.25}";
type = Stem;
},
{
horizontal = 1;
place = "{314.44, 129.78}";
type = Stem;
},
{
horizontal = 1;
place = "{604.75, 132.25}";
type = Stem;
},
{
horizontal = 1;
place = "{794.62, 147.5}";
type = Stem;
},
{
place = "{50, 154.68}";
type = Stem;
},
{
place = "{491.21, 154.79}";
type = Stem;
}
);
layerId = "37B3F0A2-20CC-4AE3-B6A0-1D169A898E63";
paths = (
{
closed = 1;
nodes = (
"534.94 0 LINE",
"646 111.06 LINE",
"646 333.25 LINE",
"534.94 444.25 LINE",
"244.25 444.19 LINE",
"204.81 483.87 LINE",
"204.56 565.31 LINE",
"244.25 604.69 LINE",
"606.12 604.81 LINE",
"606.12 737 LINE",
"161.06 737 LINE",
"50 625.94 LINE",
"50 425.87 LINE",
"161.06 314.37 LINE",
"451.75 314.5 LINE",
"491.12 274.87 LINE",
"491.31 171.75 LINE",
"451.75 132.31 LINE",
"77.19 132.19 LINE",
"77.19 0 LINE"
);
},
{
closed = 1;
nodes = (
"426.5 794.62 LINE",
"535.25 942.12 LINE",
"413.69 942.12 LINE",
"345.12 872.06 LINE",
"276.06 942.12 LINE",
"155 942.12 LINE",
"263.75 794.62 LINE"
);
}
);
width = 696;
}
);
leftKerningGroup = S;
note = Scaron;
rightKerningGroup = S;
unicode = 0160;
},
{
glyphname = Scedilla;
lastChange = "2019-09-03 20:00:58 +0000";
layers = (
{
hints = (
{
horizontal = 1;
place = "{0, 132.25}";
type = Stem;
},
{
horizontal = 1;
place = "{314.44, 129.78}";
type = Stem;
},
{
horizontal = 1;
place = "{604.75, 132.25}";
type = Stem;
},
{
place = "{50, 154.68}";
type = Stem;
},
{
place = "{491.21, 154.79}";
type = Stem;
}
);
layerId = "37B3F0A2-20CC-4AE3-B6A0-1D169A898E63";
paths = (
{
closed = 1;
nodes = (
"367.25 -125.19 LINE",
"411.5 0 LINE",
"534.94 0 LINE",
"646 111.06 LINE",
"646 333.25 LINE",
"534.94 444.25 LINE",
"244.25 444.19 LINE",
"204.81 483.87 LINE",
"204.56 565.31 LINE",
"244.25 604.69 LINE",
"606.12 604.81 LINE",
"606.12 737 LINE",
"161.06 737 LINE",
"50 625.94 LINE",
"50 425.87 LINE",
"161.06 314.37 LINE",
"451.75 314.5 LINE",
"491.12 274.87 LINE",
"491.31 171.75 LINE",
"451.75 132.31 LINE",
"77.19 132.19 LINE",
"77.19 0 LINE",
"284.31 0 LINE",
"264.37 -125.19 LINE"
);
}
);
width = 696;
}
);
leftKerningGroup = S;
note = Scedilla;
rightKerningGroup = S;
unicode = 015E;
},
{
glyphname = Scircumflex;
lastChange = "2019-09-03 20:00:58 +0000";
layers = (
{
hints = (
{
horizontal = 1;
place = "{0, 132.25}";
type = Stem;
},
{
horizontal = 1;
place = "{314.44, 129.78}";
type = Stem;
},
{
horizontal = 1;
place = "{604.75, 132.25}";
type = Stem;
},
{
horizontal = 1;
place = "{794.62, 147.5}";
type = Stem;
},
{
place = "{50, 154.68}";
type = Stem;
},
{
place = "{491.21, 154.79}";
type = Stem;
}
);
layerId = "37B3F0A2-20CC-4AE3-B6A0-1D169A898E63";
paths = (
{
closed = 1;
nodes = (
"534.94 0 LINE",
"646 111.06 LINE",
"646 333.25 LINE",
"534.94 444.25 LINE",
"244.25 444.19 LINE",
"204.81 483.87 LINE",
"204.56 565.31 LINE",
"244.25 604.69 LINE",
"606.12 604.81 LINE",
"606.12 737 LINE",
"161.06 737 LINE",
"50 625.94 LINE",
"50 425.87 LINE",
"161.06 314.37 LINE",
"451.75 314.5 LINE",
"491.12 274.87 LINE",
"491.31 171.75 LINE",
"451.75 132.31 LINE",
"77.19 132.19 LINE",
"77.19 0 LINE"
);
},
{
closed = 1;
nodes = (
"276.06 794.62 LINE",
"345.12 864.69 LINE",
"413.69 794.62 LINE",
"535.25 794.62 LINE",
"426.5 942.12 LINE",
"263.75 942.12 LINE",
"155 794.62 LINE"
);
}
);
width = 696;
}
);
leftKerningGroup = S;
note = Scircumflex;
rightKerningGroup = S;
unicode = 015C;
},
{
glyphname = uni0218;
lastChange = "2019-09-03 20:00:58 +0000";
layers = (
{
hints = (
{
horizontal = 1;
place = "{-239.88, 182.75}";
type = Stem;
},
{
horizontal = 1;
place = "{0, 132.25}";
type = Stem;
},
{
horizontal = 1;
place = "{314.44, 129.78}";
type = Stem;
},
{
horizontal = 1;
place = "{604.75, 132.25}";
type = Stem;
},
{
place = "{50, 154.68}";
type = Stem;
},
{
place = "{491.21, 154.79}";
type = Stem;
}
);
layerId = "37B3F0A2-20CC-4AE3-B6A0-1D169A898E63";
paths = (
{
closed = 1;
nodes = (
"534.94 0 LINE",
"646 111.06 LINE",
"646 333.25 LINE",
"534.94 444.25 LINE",
"244.25 444.19 LINE",
"204.81 483.87 LINE",
"204.56 565.31 LINE",
"244.25 604.69 LINE",
"606.12 604.81 LINE",
"606.12 737 LINE",
"161.06 737 LINE",
"50 625.94 LINE",
"50 425.87 LINE",
"161.06 314.37 LINE",
"451.75 314.5 LINE",
"491.12 274.87 LINE",
"491.31 171.75 LINE",
"451.75 132.31 LINE",
"77.19 132.19 LINE",
"77.19 0 LINE"
);
},
{
closed = 1;
nodes = (
"312.79 -239.88 LINE",
"415.48 -57.13 LINE",
"270.1 -57.13 LINE",
"226.29 -239.88 LINE"
);
}
);
width = 696;
}
);
leftKerningGroup = S;
note = uni0218;
rightKerningGroup = S;
unicode = 0218;
},
{
glyphname = uni1E9E;
lastChange = "2019-09-03 20:00:58 +0000";
layers = (
{
hints = (
{
horizontal = 1;
place = "{0, 120.57}";
type = Stem;
},
{
horizontal = 1;
place = "{325.02, 110.43}";
type = Stem;
},
{
horizontal = 1;
place = "{616.47, 120.53}";
type = Stem;
},
{
place = "{75, 165.09}";
type = Stem;
},
{
place = "{498.88, 167.1}";
type = Stem;
}
);
layerId = "37B3F0A2-20CC-4AE3-B6A0-1D169A898E63";
paths = (
{
closed = 1;
nodes = (
"240.13 0 LINE",
"240.06 577 LINE",
"279.7 616.36 LINE",
"397.5 616.57 LINE",
"442.43 571.5 LINE",
"310.4 424.95 LINE",
"310.4 324.95 LINE",
"453.78 325.08 LINE",
"498.85 279.95 LINE",
"498.91 161 LINE",
"459.28 120.64 LINE",
"293.35 120.5 LINE",
"293.35 0 LINE",
"558.43 0 LINE",
"665.98 104.55 LINE",
"665.98 310.4 LINE",
"535.43 435.45 LINE",
"501.53 435.45 LINE",
"592.56 535.48 LINE",
"592.77 632.45 LINE",
"485.22 737 LINE",
"183.05 737 LINE",
"75 632.45 LINE",
"75 0 LINE"
);
}
);
width = 718;
}
);
leftKerningGroup = B;
note = uni1E9E;
rightKerningGroup = B;
unicode = 1E9E;
},
{
glyphname = uni018F;
lastChange = "2019-09-03 20:00:58 +0000";
layers = (
{
hints = (
{
horizontal = 1;
place = "{0, 131.53}";
type = Stem;
},
{
horizontal = 1;
place = "{315.31, 123.81}";
type = Stem;
},
{
horizontal = 1;
place = "{605.47, 131.53}";
type = Stem;
},
{
place = "{55, 156.25}";
type = Stem;
},
{
place = "{550.33, 156.17}";
type = Stem;
}
);
layerId = "37B3F0A2-20CC-4AE3-B6A0-1D169A898E63";
paths = (
{
closed = 1;
nodes = (
"595.44 0 LINE",
"706.5 111.06 LINE",
"706.5 625.94 LINE",
"595.44 737 LINE",
"66.12 737 LINE",
"66.12 605.37 LINE",
"510.25 605.56 LINE",
"550.19 566 LINE",
"550.25 439.12 LINE",
"55 439.12 LINE",
"55 111.06 LINE",
"166.06 0 LINE"
);
},
{
closed = 1;
nodes = (
"211.31 171 LINE",
"211.19 315.31 LINE",
"550.3 315.31 LINE",
"550.37 171.06 LINE",
"510.31 131.62 LINE",
"251.25 131.44 LINE"
);
}
);
width = 762;
}
);
leftKerningGroup = C;
note = uni018F;
rightKerningGroup = O;
unicode = 018F;
},
{
glyphname = T;
lastChange = "2019-09-03 20:00:58 +0000";
layers = (
{
hints = (
{
horizontal = 1;
place = "{603.81, 133.19}";
type = Stem;
},
{
place = "{215.25, 156.2}";
type = Stem;
}
);
layerId = "37B3F0A2-20CC-4AE3-B6A0-1D169A898E63";
paths = (
{
closed = 1;
nodes = (
"371.45 0 LINE",
"371.45 603.81 LINE",
"576.75 603.81 LINE",
"576.75 737 LINE",
"10 737 LINE",
"10 603.81 LINE",
"215.25 603.81 LINE",
"215.25 0 LINE"
);
}
);
width = 587;
}
);
leftKerningGroup = T;
note = T;
rightKerningGroup = T;
unicode = 0054;
},
{
glyphname = Tbar;
lastChange = "2019-09-03 20:00:58 +0000";
layers = (
{
hints = (
{
horizontal = 1;
place = "{302, 104.19}";
type = Stem;
},
{
horizontal = 1;
place = "{603.81, 133.19}";
type = Stem;
},
{
place = "{215.25, 156.2}";
type = Stem;
}
);
layerId = "37B3F0A2-20CC-4AE3-B6A0-1D169A898E63";
paths = (
{
closed = 1;
nodes = (
"371.45 0 LINE",
"371.45 302 LINE",
"528.87 302 LINE",
"528.87 406.19 LINE",
"371.45 406.19 LINE",
"371.45 603.81 LINE",
"576.75 603.81 LINE",
"576.75 737 LINE",
"10 737 LINE",
"10 603.81 LINE",
"215.25 603.81 LINE",
"215.25 406.19 LINE",
"57.87 406.19 LINE",
"57.87 302 LINE",
"215.25 302 LINE",
"215.25 0 LINE"
);
}
);
width = 587;
}
);
leftKerningGroup = T;
note = Tbar;
rightKerningGroup = T;
unicode = 0166;
},
{
glyphname = Tcaron;
lastChange = "2019-09-03 20:00:58 +0000";
layers = (
{
hints = (
{
horizontal = 1;
place = "{603.81, 133.19}";
type = Stem;
},
{
horizontal = 1;
place = "{794.62, 147.5}";
type = Stem;
},
{
place = "{215.25, 156.2}";
type = Stem;
}
);
layerId = "37B3F0A2-20CC-4AE3-B6A0-1D169A898E63";
paths = (
{
closed = 1;
nodes = (
"371.45 0 LINE",
"371.45 603.81 LINE",
"576.75 603.81 LINE",
"576.75 737 LINE",
"10 737 LINE",
"10 603.81 LINE",
"215.25 603.81 LINE",
"215.25 0 LINE"
);
},
{
closed = 1;
nodes = (
"374.19 794.62 LINE",
"482.94 942.12 LINE",
"361.37 942.12 LINE",
"292.81 872.06 LINE",
"223.75 942.12 LINE",
"102.69 942.12 LINE",
"211.44 794.62 LINE"
);
}
);
width = 587;
}
);
leftKerningGroup = T;
note = Tcaron;
rightKerningGroup = T;
unicode = 0164;
},
{
glyphname = uni0162;
lastChange = "2019-09-28 19:26:30 +0000";
layers = (
{
hints = (
{
horizontal = 1;
place = "{603.81, 133.19}";
type = Stem;
},
{
place = "{215.25, 156.2}";
type = Stem;
}
);
layerId = "37B3F0A2-20CC-4AE3-B6A0-1D169A898E63";
paths = (
{
closed = 1;
nodes = (
"327.08 -125.19 LINE",
"371.45 0 LINE",
"371.45 603.81 LINE",
"576.75 603.81 LINE",
"576.75 737 LINE",
"10 737 LINE",
"10 603.81 LINE",
"215.25 603.81 LINE",
"215.25 0 LINE",
"244.15 0 LINE",
"224.27 -125.19 LINE"
);
}
);
width = 587;
}
);
leftKerningGroup = T;
note = uni0162;
rightKerningGroup = T;
unicode = 0162;
},
{
glyphname = uni021A;
lastChange = "2019-09-03 20:00:58 +0000";
layers = (
{
hints = (
{
horizontal = 1;
place = "{-239.88, 182.75}";
type = Stem;
},
{
horizontal = 1;
place = "{603.81, 133.19}";
type = Stem;
},
{
place = "{215.25, 156.2}";
type = Stem;
}
);
layerId = "37B3F0A2-20CC-4AE3-B6A0-1D169A898E63";
paths = (
{
closed = 1;
nodes = (
"371.45 0 LINE",
"371.45 603.81 LINE",
"576.75 603.81 LINE",
"576.75 737 LINE",
"10 737 LINE",
"10 603.81 LINE",
"215.25 603.81 LINE",
"215.25 0 LINE"
);
},
{
closed = 1;
nodes = (
"262.91 -239.88 LINE",
"365.6 -57.13 LINE",
"220.23 -57.13 LINE",
"176.41 -239.88 LINE"
);
}
);
width = 587;
}
);
leftKerningGroup = T;
note = uni021A;
rightKerningGroup = T;
unicode = 021A;
},
{
glyphname = U;
lastChange = "2019-09-03 20:00:58 +0000";
layers = (
{
hints = (
{
horizontal = 1;
place = "{0, 126.03}";
type = Stem;
},
{
place = "{65, 156.12}";
type = Stem;
},
{
place = "{523.75, 156.25}";
type = Stem;
}
);
layerId = "37B3F0A2-20CC-4AE3-B6A0-1D169A898E63";
paths = (
{
closed = 1;
nodes = (
"568.94 0 LINE",
"680 111.06 LINE",
"680 737 LINE",
"523.81 737 LINE",
"523.69 165.37 LINE",
"484.19 125.94 LINE",
"260.62 126.12 LINE",
"221.06 165.62 LINE",
"221.19 737 LINE",
"65 737 LINE",
"65 111.06 LINE",
"174.92 0 LINE"
);
}
);
width = 745;
}
);
leftKerningGroup = U;
note = U;
unicode = 0055;
},
{
glyphname = Uacute;
lastChange = "2019-09-03 20:00:58 +0000";
layers = (
{
hints = (
{
horizontal = 1;
place = "{0, 126.03}";
type = Stem;
},
{
horizontal = 1;
place = "{794.62, 155.5}";
type = Stem;
},
{
place = "{65, 156.12}";
type = Stem;
},
{
place = "{523.75, 156.25}";
type = Stem;
}
);
layerId = "37B3F0A2-20CC-4AE3-B6A0-1D169A898E63";
paths = (
{
closed = 1;
nodes = (
"568.94 0 LINE",
"680 111.06 LINE",
"680 737 LINE",
"523.81 737 LINE",
"523.69 165.37 LINE",
"484.19 125.94 LINE",
"260.62 126.12 LINE",
"221.06 165.62 LINE",
"221.19 737 LINE",
"65 737 LINE",
"65 111.06 LINE",
"174.92 0 LINE"
);
},
{
closed = 1;
nodes = (
"435.75 794.62 LINE",
"580.06 950.12 LINE",
"419.75 950.12 LINE",
"316.69 794.62 LINE"
);
}
);
width = 745;
}
);
leftKerningGroup = U;
note = Uacute;
unicode = 00DA;
},
{
glyphname = Ubreve;
lastChange = "2019-09-03 20:00:58 +0000";
layers = (
{
hints = (
{
horizontal = 1;
place = "{0, 126.03}";
type = Stem;
},
{
horizontal = 1;
place = "{794.62, 86}";
type = Stem;
},
{
place = "{65, 156.12}";
type = Stem;
},
{
place = "{523.75, 156.25}";
type = Stem;
},
{
place = "{438.44, 106.18}";
type = Stem;
},
{
horizontal = 1;
place = "{868.25, 73.87}";
type = Stem;
},
{
place = "{200.37, 106.19}";
type = Stem;
}
);
layerId = "37B3F0A2-20CC-4AE3-B6A0-1D169A898E63";
paths = (
{
closed = 1;
nodes = (
"568.94 0 LINE",
"680 111.06 LINE",
"680 737 LINE",
"523.81 737 LINE",
"523.69 165.37 LINE",
"484.19 125.94 LINE",
"260.62 126.12 LINE",
"221.06 165.62 LINE",
"221.19 737 LINE",
"65 737 LINE",
"65 111.06 LINE",
"174.92 0 LINE"
);
},
{
closed = 1;
nodes = (
"466.94 794.62 LINE",
"544.62 868.25 LINE",
"544.62 942.12 LINE",
"438.44 942.12 LINE",
"438.44 897.62 LINE",
"421 880.62 LINE",
"324 880.62 LINE",
"306.56 897.62 LINE",
"306.56 942.12 LINE",
"200.37 942.12 LINE",
"200.37 868.25 LINE",
"277.56 794.62 LINE"
);
}
);
width = 745;
}
);
leftKerningGroup = U;
note = Ubreve;
unicode = 016C;
},
{
glyphname = Ucircumflex;
lastChange = "2019-09-03 20:00:58 +0000";
layers = (
{
hints = (
{
horizontal = 1;
place = "{0, 126.03}";
type = Stem;
},
{
horizontal = 1;
place = "{794.62, 147.5}";
type = Stem;
},
{
place = "{65, 156.12}";
type = Stem;
},
{
place = "{523.75, 156.25}";
type = Stem;
}
);
layerId = "37B3F0A2-20CC-4AE3-B6A0-1D169A898E63";
paths = (
{
closed = 1;
nodes = (
"568.94 0 LINE",
"680 111.06 LINE",
"680 737 LINE",
"523.81 737 LINE",
"523.69 165.37 LINE",
"484.19 125.94 LINE",
"260.62 126.12 LINE",
"221.06 165.62 LINE",
"221.19 737 LINE",
"65 737 LINE",
"65 111.06 LINE",
"174.92 0 LINE"
);
},
{
closed = 1;
nodes = (
"303.44 794.62 LINE",
"372.5 864.69 LINE",
"441.06 794.62 LINE",
"562.62 794.62 LINE",
"453.87 942.12 LINE",
"291.12 942.12 LINE",
"182.37 794.62 LINE"
);
}
);
width = 745;
}
);
leftKerningGroup = U;
note = Ucircumflex;
unicode = 00DB;
},
{
glyphname = uni0214;
lastChange = "2019-09-03 20:00:58 +0000";
layers = (
{
hints = (
{
horizontal = 1;
place = "{0, 126.03}";
type = Stem;
},
{
horizontal = 1;
place = "{794.62, 155.5}";
type = Stem;
},
{
place = "{65, 156.12}";
type = Stem;
},
{
place = "{523.75, 156.25}";
type = Stem;
}
);
layerId = "37B3F0A2-20CC-4AE3-B6A0-1D169A898E63";
paths = (
{
closed = 1;
nodes = (
"568.94 0 LINE",
"680 111.06 LINE",
"680 737 LINE",
"523.81 737 LINE",
"523.69 165.37 LINE",
"484.19 125.94 LINE",
"260.62 126.12 LINE",
"221.06 165.62 LINE",
"221.19 737 LINE",
"65 737 LINE",
"65 111.06 LINE",
"174.92 0 LINE"
);
},
{
closed = 1;
nodes = (
"331.5 794.62 LINE",
"228.37 950.12 LINE",
"73.56 950.12 LINE",
"217.87 794.62 LINE"
);
},
{
closed = 1;
nodes = (
"533.31 794.62 LINE",
"430.19 950.12 LINE",
"275.37 950.12 LINE",
"419.69 794.62 LINE"
);
}
);
width = 745;
}
);
leftKerningGroup = U;
note = uni0214;
unicode = 0214;
},
{
glyphname = Udieresis;
lastChange = "2019-09-03 20:00:58 +0000";
layers = (
{
hints = (
{
horizontal = 1;
place = "{0, 126.03}";
type = Stem;
},
{
horizontal = 1;
place = "{794.62, 132.75}";
type = Stem;
},
{
place = "{65, 156.12}";
type = Stem;
},
{
place = "{523.75, 156.25}";
type = Stem;
},
{
place = "{161, 148}";
type = Stem;
},
{
place = "{436, 148}";
type = Stem;
}
);
layerId = "37B3F0A2-20CC-4AE3-B6A0-1D169A898E63";
paths = (
{
closed = 1;
nodes = (
"568.94 0 LINE",
"680 111.06 LINE",
"680 737 LINE",
"523.81 737 LINE",
"523.69 165.37 LINE",
"484.19 125.94 LINE",
"260.62 126.12 LINE",
"221.06 165.62 LINE",
"221.19 737 LINE",
"65 737 LINE",
"65 111.06 LINE",
"174.92 0 LINE"
);
},
{
closed = 1;
nodes = (
"309 794.62 LINE",
"309 927.37 LINE",
"161 927.37 LINE",
"161 794.62 LINE"
);
},
{
closed = 1;
nodes = (
"584 794.62 LINE",
"584 927.37 LINE",
"436 927.37 LINE",
"436 794.62 LINE"
);
}
);
width = 745;
}
);
leftKerningGroup = U;
note = Udieresis;
unicode = 00DC;
},
{
glyphname = uni1EE4;
lastChange = "2019-09-03 20:00:58 +0000";
layers = (
{
hints = (
{
horizontal = 1;
place = "{-189.81, 132.68}";
type = Stem;
},
{
horizontal = 1;
place = "{0, 126.03}";
type = Stem;
},
{
place = "{65, 156.12}";
type = Stem;
},
{
place = "{294.67, 154}";
type = Stem;
},
{
place = "{523.75, 156.25}";
type = Stem;
}
);
layerId = "37B3F0A2-20CC-4AE3-B6A0-1D169A898E63";
paths = (
{
closed = 1;
nodes = (
"568.94 0 LINE",
"680 111.06 LINE",
"680 737 LINE",
"523.81 737 LINE",
"523.69 165.37 LINE",
"484.19 125.94 LINE",
"260.62 126.12 LINE",
"221.06 165.62 LINE",
"221.19 737 LINE",
"65 737 LINE",
"65 111.06 LINE",
"174.92 0 LINE"
);
},
{
closed = 1;
nodes = (
"448.67 -189.81 LINE",
"448.67 -57.13 LINE",
"294.67 -57.13 LINE",
"294.67 -189.81 LINE"
);
}
);
width = 745;
}
);
leftKerningGroup = U;
note = uni1EE4;
unicode = 1EE4;
},
{
glyphname = Ugrave;
lastChange = "2019-09-03 20:00:58 +0000";
layers = (
{
hints = (
{
horizontal = 1;
place = "{0, 126.03}";
type = Stem;
},
{
horizontal = 1;
place = "{794.62, 155.5}";
type = Stem;
},
{
place = "{65, 156.12}";
type = Stem;
},
{
place = "{523.75, 156.25}";
type = Stem;
}
);
layerId = "37B3F0A2-20CC-4AE3-B6A0-1D169A898E63";
paths = (
{
closed = 1;
nodes = (
"568.94 0 LINE",
"680 111.06 LINE",
"680 737 LINE",
"523.81 737 LINE",
"523.69 165.37 LINE",
"484.19 125.94 LINE",
"260.62 126.12 LINE",
"221.06 165.62 LINE",
"221.19 737 LINE",
"65 737 LINE",
"65 111.06 LINE",
"174.92 0 LINE"
);
},
{
closed = 1;
nodes = (
"427 794.62 LINE",
"323.94 950.12 LINE",
"163.62 950.12 LINE",
"307.94 794.62 LINE"
);
}
);
width = 745;
}
);
leftKerningGroup = U;
note = Ugrave;
unicode = 00D9;
},
{
glyphname = uni1EE6;
lastChange = "2019-09-03 20:00:58 +0000";
layers = (
{
hints = (
{
horizontal = 1;
place = "{0, 126.03}";
type = Stem;
},
{
horizontal = 1;
place = "{795, 76.3}";
type = Stem;
},
{
horizontal = 1;
place = "{921.8, 95.65}";
type = Stem;
},
{
place = "{65, 156.12}";
type = Stem;
},
{
place = "{319.14, 103.65}";
type = Stem;
},
{
place = "{523.75, 156.25}";
type = Stem;
},
{
place = "{251.69, 102.15}";
type = Stem;
},
{
place = "{389.09, 106.5}";
type = Stem;
}
);
layerId = "37B3F0A2-20CC-4AE3-B6A0-1D169A898E63";
paths = (
{
closed = 1;
nodes = (
"568.94 0 LINE",
"680 111.06 LINE",
"680 737 LINE",
"523.81 737 LINE",
"523.69 165.37 LINE",
"484.19 125.94 LINE",
"260.62 126.12 LINE",
"221.06 165.62 LINE",
"221.19 737 LINE",
"65 737 LINE",
"65 111.06 LINE",
"174.92 0 LINE"
);
},
{
closed = 1;
nodes = (
"422.79 795 LINE",
"422.79 835.3 LINE",
"495.59 883.25 LINE",
"495.59 972.7 LINE",
"448.79 1017.45 LINE",
"298.49 1017.45 LINE",
"251.69 972.15 LINE",
"251.69 921.8 LINE",
"353.84 921.8 LINE",
"353.84 946.75 LINE",
"389.09 946.75 LINE",
"389.09 920.15 LINE",
"319.14 871.3 LINE",
"319.14 795 LINE"
);
}
);
width = 745;
}
);
leftKerningGroup = U;
note = uni1EE6;
unicode = 1EE6;
},
{
glyphname = Uhorn;
lastChange = "2019-09-03 20:00:58 +0000";
layers = (
{
hints = (
{
horizontal = 1;
place = "{0, 126.03}";
type = Stem;
},
{
horizontal = 1;
place = "{601.06, 82.44}";
type = Stem;
},
{
place = "{65, 156.12}";
type = Stem;
},
{
place = "{523.75, 156.25}";
type = Stem;
}
);
layerId = "37B3F0A2-20CC-4AE3-B6A0-1D169A898E63";
paths = (
{
closed = 1;
nodes = (
"568.94 0 LINE",
"680 111.06 LINE",
"680 601.06 LINE",
"823.31 601.06 LINE",
"911.56 801.81 LINE",
"757.94 801.81 LINE",
"740.75 683.5 LINE",
"680 683.5 LINE",
"680 737 LINE",
"523.81 737 LINE",
"523.69 165.37 LINE",
"484.19 125.94 LINE",
"260.62 126.12 LINE",
"221.06 165.62 LINE",
"221.19 737 LINE",
"65 737 LINE",
"65 111.06 LINE",
"174.92 0 LINE"
);
}
);
width = 745;
}
);
leftKerningGroup = Uhorn;
note = Uhorn;
rightKerningGroup = Uhorn;
unicode = 01AF;
},
{
glyphname = uni1EE8;
lastChange = "2019-09-03 20:00:58 +0000";
layers = (
{
hints = (
{
horizontal = 1;
place = "{0, 126.03}";
type = Stem;
},
{
horizontal = 1;
place = "{601.06, 82.44}";
type = Stem;
},
{
horizontal = 1;
place = "{794.62, 155.5}";
type = Stem;
},
{
place = "{65, 156.12}";
type = Stem;
},
{
place = "{523.75, 156.25}";
type = Stem;
}
);
layerId = "37B3F0A2-20CC-4AE3-B6A0-1D169A898E63";
paths = (
{
closed = 1;
nodes = (
"568.94 0 LINE",
"680 111.06 LINE",
"680 601.06 LINE",
"823.31 601.06 LINE",
"911.56 801.81 LINE",
"757.94 801.81 LINE",
"740.75 683.5 LINE",
"680 683.5 LINE",
"680 737 LINE",
"523.81 737 LINE",
"523.69 165.37 LINE",
"484.19 125.94 LINE",
"260.62 126.12 LINE",
"221.06 165.62 LINE",
"221.19 737 LINE",
"65 737 LINE",
"65 111.06 LINE",
"174.92 0 LINE"
);
},
{
closed = 1;
nodes = (
"435.75 794.62 LINE",
"580.06 950.12 LINE",
"419.75 950.12 LINE",
"316.69 794.62 LINE"
);
}
);
width = 745;
}
);
note = uni1EE8;
rightKerningGroup = Uhorn;
unicode = 1EE8;
},
{
glyphname = uni1EF0;
lastChange = "2019-09-03 20:00:58 +0000";
layers = (
{
hints = (
{
horizontal = 1;
place = "{-189.81, 132.68}";
type = Stem;
},
{
horizontal = 1;
place = "{0, 126.03}";
type = Stem;
},
{
horizontal = 1;
place = "{601.06, 82.44}";
type = Stem;
},
{
place = "{65, 156.12}";
type = Stem;
},
{
place = "{294.67, 154}";
type = Stem;
},
{
place = "{523.75, 156.25}";
type = Stem;
}
);
layerId = "37B3F0A2-20CC-4AE3-B6A0-1D169A898E63";
paths = (
{
closed = 1;
nodes = (
"568.94 0 LINE",
"680 111.06 LINE",
"680 601.06 LINE",
"823.31 601.06 LINE",
"911.56 801.81 LINE",
"757.94 801.81 LINE",
"740.75 683.5 LINE",
"680 683.5 LINE",
"680 737 LINE",
"523.81 737 LINE",
"523.69 165.37 LINE",
"484.19 125.94 LINE",
"260.62 126.12 LINE",
"221.06 165.62 LINE",
"221.19 737 LINE",
"65 737 LINE",
"65 111.06 LINE",
"174.92 0 LINE"
);
},
{
closed = 1;
nodes = (
"448.67 -189.81 LINE",
"448.67 -57.13 LINE",
"294.67 -57.13 LINE",
"294.67 -189.81 LINE"
);
}
);
width = 745;
}
);
note = uni1EF0;
rightKerningGroup = Uhorn;
unicode = 1EF0;
},
{
glyphname = uni1EEA;
lastChange = "2019-09-03 20:00:58 +0000";
layers = (
{
hints = (
{
horizontal = 1;
place = "{0, 126.03}";
type = Stem;
},
{
horizontal = 1;
place = "{601.06, 82.44}";
type = Stem;
},
{
horizontal = 1;
place = "{794.62, 155.5}";
type = Stem;
},
{
place = "{65, 156.12}";
type = Stem;
},
{
place = "{523.75, 156.25}";
type = Stem;
}
);
layerId = "37B3F0A2-20CC-4AE3-B6A0-1D169A898E63";
paths = (
{
closed = 1;
nodes = (
"568.94 0 LINE",
"680 111.06 LINE",
"680 601.06 LINE",
"823.31 601.06 LINE",
"911.56 801.81 LINE",
"757.94 801.81 LINE",
"740.75 683.5 LINE",
"680 683.5 LINE",
"680 737 LINE",
"523.81 737 LINE",
"523.69 165.37 LINE",
"484.19 125.94 LINE",
"260.62 126.12 LINE",
"221.06 165.62 LINE",
"221.19 737 LINE",
"65 737 LINE",
"65 111.06 LINE",
"174.92 0 LINE"
);
},
{
closed = 1;
nodes = (
"427 794.62 LINE",
"323.94 950.12 LINE",
"163.62 950.12 LINE",
"307.94 794.62 LINE"
);
}
);
width = 745;
}
);
note = uni1EEA;
rightKerningGroup = Uhorn;
unicode = 1EEA;
},
{
glyphname = uni1EEC;
lastChange = "2019-09-03 20:00:58 +0000";
layers = (
{
hints = (
{
horizontal = 1;
place = "{0, 126.03}";
type = Stem;
},
{
horizontal = 1;
place = "{601.06, 82.44}";
type = Stem;
},
{
horizontal = 1;
place = "{921.8, 95.65}";
type = Stem;
},
{
place = "{65, 156.12}";
type = Stem;
},
{
place = "{319.14, 103.65}";
type = Stem;
},
{
place = "{523.75, 156.25}";
type = Stem;
},
{
horizontal = 1;
place = "{795, 76.3}";
type = Stem;
},
{
place = "{389.09, 106.5}";
type = Stem;
},
{
place = "{251.69, 102.15}";
type = Stem;
}
);
layerId = "37B3F0A2-20CC-4AE3-B6A0-1D169A898E63";
paths = (
{
closed = 1;
nodes = (
"568.94 0 LINE",
"680 111.06 LINE",
"680 601.06 LINE",
"823.31 601.06 LINE",
"911.56 801.81 LINE",
"757.94 801.81 LINE",
"740.75 683.5 LINE",
"680 683.5 LINE",
"680 737 LINE",
"523.81 737 LINE",
"523.69 165.37 LINE",
"484.19 125.94 LINE",
"260.62 126.12 LINE",
"221.06 165.62 LINE",
"221.19 737 LINE",
"65 737 LINE",
"65 111.06 LINE",
"174.92 0 LINE"
);
},
{
closed = 1;
nodes = (
"422.79 795 LINE",
"422.79 835.3 LINE",
"495.59 883.25 LINE",
"495.59 972.7 LINE",
"448.79 1017.45 LINE",
"298.49 1017.45 LINE",
"251.69 972.15 LINE",
"251.69 921.8 LINE",
"353.84 921.8 LINE",
"353.84 946.75 LINE",
"389.09 946.75 LINE",
"389.09 920.15 LINE",
"319.14 871.3 LINE",
"319.14 795 LINE"
);
}
);
width = 745;
}
);
note = uni1EEC;
rightKerningGroup = Uhorn;
unicode = 1EEC;
},
{
glyphname = uni1EEE;
lastChange = "2019-09-03 20:00:58 +0000";
layers = (
{
hints = (
{
horizontal = 1;
place = "{0, 126.03}";
type = Stem;
},
{
horizontal = 1;
place = "{601.06, 82.44}";
type = Stem;
},
{
horizontal = 1;
place = "{859.12, 84.94}";
type = Stem;
},
{
place = "{166.62, 97.44}";
type = Stem;
},
{
place = "{523.75, 156.25}";
type = Stem;
},
{
horizontal = 1;
place = "{794.62, 86.94}";
type = Stem;
},
{
place = "{65, 156.12}";
type = Stem;
},
{
place = "{487.69, 97.68}";
type = Stem;
}
);
layerId = "37B3F0A2-20CC-4AE3-B6A0-1D169A898E63";
paths = (
{
closed = 1;
nodes = (
"568.94 0 LINE",
"680 111.06 LINE",
"680 601.06 LINE",
"823.31 601.06 LINE",
"911.56 801.81 LINE",
"757.94 801.81 LINE",
"740.75 683.5 LINE",
"680 683.5 LINE",
"680 737 LINE",
"523.81 737 LINE",
"523.69 165.37 LINE",
"484.19 125.94 LINE",
"260.62 126.12 LINE",
"221.06 165.62 LINE",
"221.19 737 LINE",
"65 737 LINE",
"65 111.06 LINE",
"174.92 0 LINE"
);
},
{
closed = 1;
nodes = (
"517.87 794.62 LINE",
"584.87 864.12 LINE",
"585.87 939.37 LINE",
"487.69 939.37 LINE",
"487.69 912.69 LINE",
"463.12 881.56 LINE",
"437.69 881.56 LINE",
"379.56 944.06 LINE",
"233.87 944.06 LINE",
"167.37 876 LINE",
"165.87 799.75 LINE",
"264.06 799.75 LINE",
"264.06 825.44 LINE",
"288.62 859.12 LINE",
"314.06 859.12 LINE",
"372.19 794.62 LINE"
);
}
);
width = 745;
}
);
note = uni1EEE;
rightKerningGroup = Uhorn;
unicode = 1EEE;
},
{
glyphname = Uhungarumlaut;
lastChange = "2019-09-03 20:00:58 +0000";
layers = (
{
hints = (
{
horizontal = 1;
place = "{0, 126.03}";
type = Stem;
},
{
horizontal = 1;
place = "{794.62, 155.5}";
type = Stem;
},
{
place = "{65, 156.12}";
type = Stem;
},
{
place = "{523.75, 156.25}";
type = Stem;
}
);
layerId = "37B3F0A2-20CC-4AE3-B6A0-1D169A898E63";
paths = (
{
closed = 1;
nodes = (
"568.94 0 LINE",
"680 111.06 LINE",
"680 737 LINE",
"523.81 737 LINE",
"523.69 165.37 LINE",
"484.19 125.94 LINE",
"260.62 126.12 LINE",
"221.06 165.62 LINE",
"221.19 737 LINE",
"65 737 LINE",
"65 111.06 LINE",
"174.92 0 LINE"
);
},
{
closed = 1;
nodes = (
"338 794.62 LINE",
"482.31 950.12 LINE",
"327.5 950.12 LINE",
"224.37 794.62 LINE"
);
},
{
closed = 1;
nodes = (
"539.81 794.62 LINE",
"684.12 950.12 LINE",
"529.31 950.12 LINE",
"426.19 794.62 LINE"
);
}
);
width = 745;
}
);
leftKerningGroup = U;
note = Uhungarumlaut;
unicode = 0170;
},
{
glyphname = uni0216;
lastChange = "2019-09-03 20:00:58 +0000";
layers = (
{
hints = (
{
horizontal = 1;
place = "{0, 126.03}";
type = Stem;
},
{
horizontal = 1;
place = "{795, 73.31}";
type = Stem;
},
{
place = "{65, 156.12}";
type = Stem;
},
{
place = "{523.75, 156.25}";
type = Stem;
},
{
place = "{200.37, 106.19}";
type = Stem;
},
{
horizontal = 1;
place = "{856.44, 85.56}";
type = Stem;
},
{
place = "{438.44, 106.18}";
type = Stem;
}
);
layerId = "37B3F0A2-20CC-4AE3-B6A0-1D169A898E63";
paths = (
{
closed = 1;
nodes = (
"568.94 0 LINE",
"680 111.06 LINE",
"680 737 LINE",
"523.81 737 LINE",
"523.69 165.37 LINE",
"484.19 125.94 LINE",
"260.62 126.12 LINE",
"221.06 165.62 LINE",
"221.19 737 LINE",
"65 737 LINE",
"65 111.06 LINE",
"174.92 0 LINE"
);
},
{
closed = 1;
nodes = (
"306.56 795 LINE",
"306.56 839.5 LINE",
"324 856.44 LINE",
"421 856.44 LINE",
"438.44 839.5 LINE",
"438.44 795 LINE",
"544.62 795 LINE",
"544.62 868.31 LINE",
"466.94 942 LINE",
"277.56 942 LINE",
"200.37 868.31 LINE",
"200.37 795 LINE"
);
}
);
width = 745;
}
);
leftKerningGroup = U;
note = uni0216;
unicode = 0216;
},
{
glyphname = Umacron;
lastChange = "2019-09-03 20:00:58 +0000";
layers = (
{
hints = (
{
horizontal = 1;
place = "{0, 126.03}";
type = Stem;
},
{
horizontal = 1;
place = "{794.62, 104.07}";
type = Stem;
},
{
place = "{65, 156.12}";
type = Stem;
},
{
place = "{523.75, 156.25}";
type = Stem;
}
);
layerId = "37B3F0A2-20CC-4AE3-B6A0-1D169A898E63";
paths = (
{
closed = 1;
nodes = (
"568.94 0 LINE",
"680 111.06 LINE",
"680 737 LINE",
"523.81 737 LINE",
"523.69 165.37 LINE",
"484.19 125.94 LINE",
"260.62 126.12 LINE",
"221.06 165.62 LINE",
"221.19 737 LINE",
"65 737 LINE",
"65 111.06 LINE",
"174.92 0 LINE"
);
},
{
closed = 1;
nodes = (
"584 794.62 LINE",
"584 898.69 LINE",
"161 898.69 LINE",
"161 794.62 LINE"
);
}
);
width = 745;
}
);
leftKerningGroup = U;
note = Umacron;
unicode = 016A;
},
{
glyphname = Uogonek;
lastChange = "2019-09-03 20:00:58 +0000";
layers = (
{
hints = (
{
horizontal = 1;
place = "{-175.81, 91.68}";
type = Stem;
},
{
horizontal = 1;
place = "{0, 126.03}";
type = Stem;
},
{
place = "{65, 156.12}";
type = Stem;
},
{
place = "{311.75, 89.44}";
type = Stem;
},
{
place = "{523.75, 156.25}";
type = Stem;
}
);
layerId = "37B3F0A2-20CC-4AE3-B6A0-1D169A898E63";
paths = (
{
closed = 1;
nodes = (
"450.62 -175.81 LINE",
"450.62 -84.13 LINE",
"421.19 -84.13 LINE",
"401.19 -64.63 LINE",
"401.19 -35.75 LINE",
"444.62 0 LINE",
"568.94 0 LINE",
"680 111.06 LINE",
"680 737 LINE",
"523.81 737 LINE",
"523.69 165.37 LINE",
"484.19 125.94 LINE",
"260.62 126.12 LINE",
"221.06 165.62 LINE",
"221.19 737 LINE",
"65 737 LINE",
"65 111.06 LINE",
"174.92 0 LINE",
"356.81 0 LINE",
"311.75 -33 LINE",
"311.75 -110.88 LINE",
"379.69 -175.81 LINE"
);
}
);
width = 745;
}
);
leftKerningGroup = U;
note = Uogonek;
unicode = 0172;
},
{
glyphname = Uring;
lastChange = "2019-09-03 20:00:58 +0000";
layers = (
{
hints = (
{
horizontal = 1;
place = "{0, 126.03}";
type = Stem;
},
{
horizontal = 1;
place = "{794.62, 71.94}";
type = Stem;
},
{
horizontal = 1;
place = "{940.25, 72.44}";
type = Stem;
},
{
place = "{65, 156.12}";
type = Stem;
},
{
place = "{523.75, 156.25}";
type = Stem;
},
{
place = "{246.44, 89.18}";
type = Stem;
},
{
place = "{409.37, 89.19}";
type = Stem;
}
);
layerId = "37B3F0A2-20CC-4AE3-B6A0-1D169A898E63";
paths = (
{
closed = 1;
nodes = (
"568.94 0 LINE",
"680 111.06 LINE",
"680 737 LINE",
"523.81 737 LINE",
"523.69 165.37 LINE",
"484.19 125.94 LINE",
"260.62 126.12 LINE",
"221.06 165.62 LINE",
"221.19 737 LINE",
"65 737 LINE",
"65 111.06 LINE",
"174.92 0 LINE"
);
},
{
closed = 1;
nodes = (
"429 794.62 LINE",
"498.56 864.12 LINE",
"498.56 943.12 LINE",
"429 1012.69 LINE",
"316 1012.69 LINE",
"246.44 943.12 LINE",
"246.44 864.12 LINE",
"316 794.62 LINE"
);
},
{
closed = 1;
nodes = (
"335.62 890.25 LINE",
"335.62 916.56 LINE",
"359.37 940.25 LINE",
"385.62 940.25 LINE",
"409.37 916.56 LINE",
"409.37 890.25 LINE",
"385.62 866.56 LINE",
"359.37 866.56 LINE"
);
}
);
width = 745;
}
);
leftKerningGroup = U;
note = Uring;
unicode = 016E;
},
{
glyphname = Utilde;
lastChange = "2019-09-03 20:00:58 +0000";
layers = (
{
hints = (
{
horizontal = 1;
place = "{0, 126.03}";
type = Stem;
},
{
horizontal = 1;
place = "{859.12, 84.94}";
type = Stem;
},
{
place = "{65, 156.12}";
type = Stem;
},
{
place = "{523.75, 156.25}";
type = Stem;
},
{
place = "{166.62, 97.44}";
type = Stem;
},
{
horizontal = 1;
place = "{794.62, 86.94}";
type = Stem;
},
{
place = "{487.69, 97.68}";
type = Stem;
}
);
layerId = "37B3F0A2-20CC-4AE3-B6A0-1D169A898E63";
paths = (
{
closed = 1;
nodes = (
"568.94 0 LINE",
"680 111.06 LINE",
"680 737 LINE",
"523.81 737 LINE",
"523.69 165.37 LINE",
"484.19 125.94 LINE",
"260.62 126.12 LINE",
"221.06 165.62 LINE",
"221.19 737 LINE",
"65 737 LINE",
"65 111.06 LINE",
"174.92 0 LINE"
);
},
{
closed = 1;
nodes = (
"517.87 794.62 LINE",
"584.87 864.12 LINE",
"585.87 939.37 LINE",
"487.69 939.37 LINE",
"487.69 912.69 LINE",
"463.12 881.56 LINE",
"437.69 881.56 LINE",
"379.56 944.06 LINE",
"233.87 944.06 LINE",
"167.37 876 LINE",
"165.87 799.75 LINE",
"264.06 799.75 LINE",
"264.06 825.44 LINE",
"288.62 859.12 LINE",
"314.06 859.12 LINE",
"372.19 794.62 LINE"
);
}
);
width = 745;
}
);
leftKerningGroup = U;
note = Utilde;
unicode = 0168;
},
{
glyphname = V;
lastChange = "2019-09-03 20:00:58 +0000";
layers = (
{
hints = (
{
horizontal = 1;
place = "{0, 129.87}";
type = Stem;
},
{
place = "{5, 687.25}";
type = Stem;
}
);
layerId = "37B3F0A2-20CC-4AE3-B6A0-1D169A898E63";
paths = (
{
closed = 1;
nodes = (
"477.87 0 LINE",
"692.25 737 LINE",
"518.75 737 LINE",
"363.69 129.87 LINE",
"333.56 129.87 LINE",
"178.5 737 LINE",
"5 737 LINE",
"219.37 0 LINE"
);
}
);
width = 697;
}
);
leftKerningGroup = V;
note = V;
rightKerningGroup = V;
unicode = 0056;
},
{
glyphname = W;
lastChange = "2019-09-03 20:00:58 +0000";
layers = (
{
hints = (
{
horizontal = 1;
place = "{0, 129.87}";
type = Stem;
},
{
place = "{5, 953.75}";
type = Stem;
}
);
layerId = "37B3F0A2-20CC-4AE3-B6A0-1D169A898E63";
paths = (
{
closed = 1;
nodes = (
"410.75 0 LINE",
"481.87 402.62 LINE",
"553 0 LINE",
"796.06 0 LINE",
"958.75 737 LINE",
"784.75 737 LINE",
"686.37 129.87 LINE",
"656.75 129.87 LINE",
"557.94 737 LINE",
"405.81 737 LINE",
"307 129.87 LINE",
"277.37 129.87 LINE",
"179 737 LINE",
"5 737 LINE",
"167.69 0 LINE"
);
}
);
width = 964;
}
);
leftKerningGroup = W;
note = W;
rightKerningGroup = W;
unicode = 0057;
},
{
glyphname = Wacute;
lastChange = "2019-09-03 20:00:58 +0000";
layers = (
{
hints = (
{
horizontal = 1;
place = "{0, 129.87}";
type = Stem;
},
{
horizontal = 1;
place = "{794.62, 155.5}";
type = Stem;
},
{
place = "{5, 953.75}";
type = Stem;
}
);
layerId = "37B3F0A2-20CC-4AE3-B6A0-1D169A898E63";
paths = (
{
closed = 1;
nodes = (
"410.75 0 LINE",
"481.87 402.62 LINE",
"553 0 LINE",
"796.06 0 LINE",
"958.75 737 LINE",
"784.75 737 LINE",
"686.37 129.87 LINE",
"656.75 129.87 LINE",
"557.94 737 LINE",
"405.81 737 LINE",
"307 129.87 LINE",
"277.37 129.87 LINE",
"179 737 LINE",
"5 737 LINE",
"167.69 0 LINE"
);
},
{
closed = 1;
nodes = (
"545.12 794.62 LINE",
"689.44 950.12 LINE",
"529.12 950.12 LINE",
"426.06 794.62 LINE"
);
}
);
width = 964;
}
);
leftKerningGroup = W;
note = Wacute;
rightKerningGroup = W;
unicode = 1E82;
},
{
glyphname = Wcircumflex;
lastChange = "2019-09-03 20:00:58 +0000";
layers = (
{
hints = (
{
horizontal = 1;
place = "{0, 129.87}";
type = Stem;
},
{
horizontal = 1;
place = "{794.62, 147.5}";
type = Stem;
},
{
place = "{5, 953.75}";
type = Stem;
}
);
layerId = "37B3F0A2-20CC-4AE3-B6A0-1D169A898E63";
paths = (
{
closed = 1;
nodes = (
"410.75 0 LINE",
"481.87 402.62 LINE",
"553 0 LINE",
"796.06 0 LINE",
"958.75 737 LINE",
"784.75 737 LINE",
"686.37 129.87 LINE",
"656.75 129.87 LINE",
"557.94 737 LINE",
"405.81 737 LINE",
"307 129.87 LINE",
"277.37 129.87 LINE",
"179 737 LINE",
"5 737 LINE",
"167.69 0 LINE"
);
},
{
closed = 1;
nodes = (
"412.81 794.62 LINE",
"481.87 864.69 LINE",
"550.44 794.62 LINE",
"672 794.62 LINE",
"563.25 942.12 LINE",
"400.5 942.12 LINE",
"291.75 794.62 LINE"
);
}
);
width = 964;
}
);
leftKerningGroup = W;
note = Wcircumflex;
rightKerningGroup = W;
unicode = 0174;
},
{
glyphname = Wdieresis;
lastChange = "2019-09-03 20:00:58 +0000";
layers = (
{
hints = (
{
horizontal = 1;
place = "{0, 129.87}";
type = Stem;
},
{
horizontal = 1;
place = "{794.62, 132.75}";
type = Stem;
},
{
place = "{270.37, 148}";
type = Stem;
},
{
place = "{545.37, 148}";
type = Stem;
}
);
layerId = "37B3F0A2-20CC-4AE3-B6A0-1D169A898E63";
paths = (
{
closed = 1;
nodes = (
"410.75 0 LINE",
"481.87 402.62 LINE",
"553 0 LINE",
"796.06 0 LINE",
"958.75 737 LINE",
"784.75 737 LINE",
"686.37 129.87 LINE",
"656.75 129.87 LINE",
"557.94 737 LINE",
"405.81 737 LINE",
"307 129.87 LINE",
"277.37 129.87 LINE",
"179 737 LINE",
"5 737 LINE",
"167.69 0 LINE"
);
},
{
closed = 1;
nodes = (
"418.37 794.62 LINE",
"418.37 927.37 LINE",
"270.37 927.37 LINE",
"270.37 794.62 LINE"
);
},
{
closed = 1;
nodes = (
"693.37 794.62 LINE",
"693.37 927.37 LINE",
"545.37 927.37 LINE",
"545.37 794.62 LINE"
);
}
);
width = 964;
}
);
leftKerningGroup = W;
note = Wdieresis;
rightKerningGroup = W;
unicode = 1E84;
},
{
glyphname = Wgrave;
lastChange = "2019-09-03 20:00:58 +0000";
layers = (
{
hints = (
{
horizontal = 1;
place = "{0, 129.87}";
type = Stem;
},
{
horizontal = 1;
place = "{794.62, 155.5}";
type = Stem;
},
{
place = "{5, 953.75}";
type = Stem;
}
);
layerId = "37B3F0A2-20CC-4AE3-B6A0-1D169A898E63";
paths = (
{
closed = 1;
nodes = (
"410.75 0 LINE",
"481.87 402.62 LINE",
"553 0 LINE",
"796.06 0 LINE",
"958.75 737 LINE",
"784.75 737 LINE",
"686.37 129.87 LINE",
"656.75 129.87 LINE",
"557.94 737 LINE",
"405.81 737 LINE",
"307 129.87 LINE",
"277.37 129.87 LINE",
"179 737 LINE",
"5 737 LINE",
"167.69 0 LINE"
);
},
{
closed = 1;
nodes = (
"536.37 794.62 LINE",
"433.31 950.12 LINE",
"273 950.12 LINE",
"417.31 794.62 LINE"
);
}
);
width = 964;
}
);
leftKerningGroup = W;
note = Wgrave;
rightKerningGroup = W;
unicode = 1E80;
},
{
glyphname = X;
lastChange = "2019-09-03 20:00:58 +0000";
layers = (
{
hints = (
{
horizontal = 1;
place = "{299.94, 156.06}";
type = Stem;
},
{
place = "{5, 673.25}";
type = Stem;
}
);
layerId = "37B3F0A2-20CC-4AE3-B6A0-1D169A898E63";
paths = (
{
closed = 1;
nodes = (
"185 0 LINE",
"326.56 299.94 LINE",
"356.69 299.94 LINE",
"498.25 0 LINE",
"678.25 0 LINE",
"482.5 383.87 LINE",
"676.69 737 LINE",
"497.69 737 LINE",
"356.69 456 LINE",
"326.56 456 LINE",
"185.56 737 LINE",
"6.56 737 LINE",
"200.75 383.87 LINE",
"5 0 LINE"
);
}
);
width = 683;
}
);
leftKerningGroup = X;
note = X;
rightKerningGroup = X;
unicode = 0058;
},
{
glyphname = Y;
lastChange = "2019-09-03 20:00:58 +0000";
layers = (
{
hints = (
{
horizontal = 1;
place = "{0, 737}";
type = Stem;
},
{
place = "{256.69, 155.75}";
type = Stem;
}
);
layerId = "37B3F0A2-20CC-4AE3-B6A0-1D169A898E63";
paths = (
{
closed = 1;
nodes = (
"412.44 0 LINE",
"412.44 264.31 LINE",
"449.44 296.31 LINE",
"664.12 737 LINE",
"485.12 737 LINE",
"349.62 406.37 LINE",
"319.5 406.37 LINE",
"184 737 LINE",
"5 737 LINE",
"219.69 296.31 LINE",
"256.69 264.31 LINE",
"256.69 0 LINE"
);
}
);
width = 669;
}
);
leftKerningGroup = Y;
note = Y;
rightKerningGroup = Y;
unicode = 0059;
},
{
glyphname = Yacute;
lastChange = "2019-09-03 20:00:58 +0000";
layers = (
{
hints = (
{
horizontal = 1;
place = "{794.62, 155.5}";
type = Stem;
},
{
place = "{256.69, 155.75}";
type = Stem;
}
);
layerId = "37B3F0A2-20CC-4AE3-B6A0-1D169A898E63";
paths = (
{
closed = 1;
nodes = (
"412.44 0 LINE",
"412.44 264.31 LINE",
"449.44 296.31 LINE",
"664.12 737 LINE",
"485.12 737 LINE",
"349.62 406.37 LINE",
"319.5 406.37 LINE",
"184 737 LINE",
"5 737 LINE",
"219.69 296.31 LINE",
"256.69 264.31 LINE",
"256.69 0 LINE"
);
},
{
closed = 1;
nodes = (
"397.81 794.62 LINE",
"542.12 950.12 LINE",
"381.81 950.12 LINE",
"278.75 794.62 LINE"
);
}
);
width = 669;
}
);
leftKerningGroup = Y;
note = Yacute;
rightKerningGroup = Y;
unicode = 00DD;
},
{
glyphname = Ycircumflex;
lastChange = "2019-09-03 20:00:58 +0000";
layers = (
{
hints = (
{
horizontal = 1;
place = "{794.62, 147.5}";
type = Stem;
},
{
place = "{256.69, 155.75}";
type = Stem;
}
);
layerId = "37B3F0A2-20CC-4AE3-B6A0-1D169A898E63";
paths = (
{
closed = 1;
nodes = (
"412.44 0 LINE",
"412.44 264.31 LINE",
"449.44 296.31 LINE",
"664.12 737 LINE",
"485.12 737 LINE",
"349.62 406.37 LINE",
"319.5 406.37 LINE",
"184 737 LINE",
"5 737 LINE",
"219.69 296.31 LINE",
"256.69 264.31 LINE",
"256.69 0 LINE"
);
},
{
closed = 1;
nodes = (
"265.5 794.62 LINE",
"334.56 864.69 LINE",
"403.12 794.62 LINE",
"524.69 794.62 LINE",
"415.94 942.12 LINE",
"253.19 942.12 LINE",
"144.44 794.62 LINE"
);
}
);
width = 669;
}
);
leftKerningGroup = Y;
note = Ycircumflex;
rightKerningGroup = Y;
unicode = 0176;
},
{
glyphname = Ydieresis;
lastChange = "2019-09-03 20:00:58 +0000";
layers = (
{
hints = (
{
horizontal = 1;
place = "{794.62, 132.75}";
type = Stem;
},
{
place = "{123.06, 148}";
type = Stem;
},
{
place = "{398.06, 148}";
type = Stem;
},
{
place = "{256.69, 155.75}";
type = Stem;
}
);
layerId = "37B3F0A2-20CC-4AE3-B6A0-1D169A898E63";
paths = (
{
closed = 1;
nodes = (
"412.44 0 LINE",
"412.44 264.31 LINE",
"449.44 296.31 LINE",
"664.12 737 LINE",
"485.12 737 LINE",
"349.62 406.37 LINE",
"319.5 406.37 LINE",
"184 737 LINE",
"5 737 LINE",
"219.69 296.31 LINE",
"256.69 264.31 LINE",
"256.69 0 LINE"
);
},
{
closed = 1;
nodes = (
"271.06 794.62 LINE",
"271.06 927.37 LINE",
"123.06 927.37 LINE",
"123.06 794.62 LINE"
);
},
{
closed = 1;
nodes = (
"546.06 794.62 LINE",
"546.06 927.37 LINE",
"398.06 927.37 LINE",
"398.06 794.62 LINE"
);
}
);
width = 669;
}
);
leftKerningGroup = Y;
note = Ydieresis;
rightKerningGroup = Y;
unicode = 0178;
},
